<svg xmlns="http://www.w3.org/2000/svg" xmlns:xlink="http://www.w3.org/1999/xlink" stroke-miterlimit="10" stroke-linecap="square" stroke="none" fill="none" viewBox="222.4521934758155 119.88 436.2654668166479 286.2" version="1.1" style="max-height: 500px" width="436.2654668166479" height="286.2"><clipPath id="g2cec2c68d40_0_7.0"><path clip-rule="nonzero" d="m0 0l960.0 0l0 540.0l-960.0 0l0 -540.0z"/></clipPath><g clip-path="url(#g2cec2c68d40_0_7.0)"><path fill-rule="evenodd" d="m0 0l960.0 0l0 540.0l-960.0 0z" fill="#ffffff"/><path fill-rule="evenodd" d="m323.99896 126.0l408.0 0l0 288.0l-408.0 0z" fill-opacity="0.0" fill="#000000"/><path fill-rule="nonzero" d="m337.48334 142.02188l0 18.578125l-2.4375 0l0 -18.578125l2.4375 0zm21.698029 3.703125q1.703125 0 3.03125 0.703125q1.328125 0.703125 2.09375 2.125q0.78125 1.40625 0.78125 3.4375l0 8.609375l-2.390625 0l0 -8.265625q0 -2.1875 -1.078125 -3.34375q-1.078125 -1.15625 -2.921875 -1.15625q-1.890625 0 -3.015625 1.21875q-1.125 1.203125 -1.125 3.5l0 8.046875l-2.390625 0l0 -8.265625q0 -2.1875 -1.078125 -3.34375q-1.078125 -1.15625 -2.921875 -1.15625q-1.890625 0 -3.015625 1.21875q-1.109375 1.203125 -1.109375 3.5l0 8.046875l-2.4375 0l0 -14.609375l2.4375 0l0 2.109375q0.71875 -1.140625 1.921875 -1.75q1.21875 -0.625 2.6875 -0.625q1.828125 0 3.234375 0.828125q1.421875 0.828125 2.125 2.421875q0.609375 -1.546875 2.015625 -2.390625q1.421875 -0.859375 3.15625 -0.859375zm12.315216 2.953125q0.71875 -1.25 2.140625 -2.078125q1.421875 -0.84375 3.3125 -0.84375q1.953125 0 3.53125 0.9375q1.59375 0.921875 2.5 2.625q0.90625 1.6875 0.90625 3.921875q0 2.21875 -0.90625 3.953125q-0.90625 1.734375 -2.5 2.6875q-1.578125 0.953125 -3.53125 0.953125q-1.859375 0 -3.296875 -0.828125q-1.421875 -0.84375 -2.15625 -2.09375l0 9.625l-2.4375 0l0 -21.546875l2.4375 0l0 2.6875zm9.90625 4.5625q0 -1.65625 -0.671875 -2.875q-0.65625 -1.234375 -1.796875 -1.859375q-1.125 -0.640625 -2.484375 -0.640625q-1.328125 0 -2.46875 0.65625q-1.125 0.640625 -1.8125 1.890625q-0.671875 1.234375 -0.671875 2.859375q0 1.65625 0.671875 2.890625q0.6875 1.234375 1.8125 1.890625q1.140625 0.65625 2.46875 0.65625q1.359375 0 2.484375 -0.65625q1.140625 -0.65625 1.796875 -1.890625q0.671875 -1.234375 0.671875 -2.921875zm8.113312 -12.359375l0 19.71875l-2.4375 0l0 -19.71875l2.4375 0zm5.385559 2.734375q-0.703125 0 -1.1875 -0.46875q-0.46875 -0.484375 -0.46875 -1.171875q0 -0.703125 0.46875 -1.171875q0.484375 -0.484375 1.1875 -0.484375q0.65625 0 1.125 0.484375q0.46875 0.46875 0.46875 1.171875q0 0.6875 -0.46875 1.171875q-0.46875 0.46875 -1.125 0.46875zm1.171875 2.375l0 14.609375l-2.4375 0l0 -14.609375l2.4375 0zm3.2136536 7.28125q0 -2.265625 0.90625 -3.953125q0.90625 -1.703125 2.515625 -2.625q1.625 -0.9375 3.703125 -0.9375q2.6875 0 4.4375 1.3125q1.75 1.296875 2.296875 3.609375l-2.609375 0q-0.375 -1.328125 -1.453125 -2.09375q-1.078125 -0.78125 -2.671875 -0.78125q-2.078125 0 -3.359375 1.4375q-1.28125 1.421875 -1.28125 4.03125q0 2.640625 1.28125 4.078125q1.28125 1.4375 3.359375 1.4375q1.59375 0 2.65625 -0.75q1.078125 -0.75 1.46875 -2.125l2.609375 0q-0.578125 2.234375 -2.34375 3.578125q-1.75 1.34375 -4.390625 1.34375q-2.078125 0 -3.703125 -0.921875q-1.609375 -0.9375 -2.515625 -2.640625q-0.90625 -1.703125 -0.90625 -4.0zm18.352173 -9.65625q-0.703125 0 -1.1875 -0.46875q-0.46875 -0.484375 -0.46875 -1.171875q0 -0.703125 0.46875 -1.171875q0.484375 -0.484375 1.1875 -0.484375q0.65625 0 1.125 0.484375q0.46875 0.46875 0.46875 1.171875q0 0.6875 -0.46875 1.171875q-0.46875 0.46875 -1.125 0.46875zm1.171875 2.375l0 14.609375l-2.4375 0l0 -14.609375l2.4375 0zm7.0886536 2.0l0 8.609375q0 1.0625 0.453125 1.515625q0.453125 0.4375 1.5625 0.4375l1.796875 0l0 2.046875l-2.1875 0q-2.03125 0 -3.046875 -0.921875q-1.015625 -0.9375 -1.015625 -3.078125l0 -8.609375l-1.890625 0l0 -2.0l1.890625 0l0 -3.671875l2.4375 0l0 3.671875l3.8125 0l0 2.0l-3.8125 0zm25.288788 -5.96875l0 1.96875l-5.0625 0l0 16.609375l-2.421875 0l0 -16.609375l-5.09375 0l0 -1.96875l12.578125 0zm5.4209595 6.34375q0.640625 -1.25 1.8125 -1.9375q1.1875 -0.703125 2.90625 -0.703125l0 2.5l-0.640625 0q-4.078125 0 -4.078125 4.4375l0 7.9375l-2.4375 0l0 -14.609375l2.4375 0l0 2.375zm20.458374 -2.375l0 14.609375l-2.421875 0l0 -2.15625q-0.6875 1.109375 -1.9375 1.75q-1.234375 0.625 -2.71875 0.625q-1.71875 0 -3.078125 -0.703125q-1.359375 -0.71875 -2.140625 -2.125q-0.78125 -1.421875 -0.78125 -3.4375l0 -8.5625l2.390625 0l0 8.234375q0 2.15625 1.09375 3.328125q1.09375 1.15625 2.984375 1.15625q1.953125 0 3.0625 -1.203125q1.125 -1.203125 1.125 -3.484375l0 -8.03125l2.421875 0zm9.278687 14.84375q-1.671875 0 -3.015625 -0.5625q-1.328125 -0.578125 -2.109375 -1.59375q-0.765625 -1.03125 -0.84375 -2.375l2.515625 0q0.09375 1.09375 1.015625 1.796875q0.921875 0.6875 2.421875 0.6875q1.375 0 2.171875 -0.609375q0.8125 -0.609375 0.8125 -1.546875q0 -0.96875 -0.859375 -1.421875q-0.84375 -0.46875 -2.640625 -0.921875q-1.625 -0.4375 -2.65625 -0.875q-1.015625 -0.4375 -1.75 -1.296875q-0.734375 -0.875 -0.734375 -2.28125q0 -1.125 0.65625 -2.046875q0.671875 -0.9375 1.890625 -1.484375q1.234375 -0.546875 2.8125 -0.546875q2.421875 0 3.90625 1.234375q1.5 1.21875 1.609375 3.34375l-2.421875 0q-0.078125 -1.140625 -0.921875 -1.828125q-0.84375 -0.703125 -2.25 -0.703125q-1.3125 0 -2.09375 0.5625q-0.765625 0.5625 -0.765625 1.46875q0 0.71875 0.46875 1.1875q0.46875 0.46875 1.171875 0.75q0.703125 0.265625 1.96875 0.625q1.5625 0.421875 2.546875 0.84375q0.984375 0.40625 1.6875 1.234375q0.71875 0.828125 0.75 2.15625q0 1.203125 -0.671875 2.15625q-0.671875 0.953125 -1.890625 1.5q-1.203125 0.546875 -2.78125 0.546875zm11.711395 -12.84375l0 8.609375q0 1.0625 0.453125 1.515625q0.453125 0.4375 1.5625 0.4375l1.796875 0l0 2.046875l-2.1875 0q-2.03125 0 -3.046875 -0.921875q-1.015625 -0.9375 -1.015625 -3.078125l0 -8.609375l-1.890625 0l0 -2.0l1.890625 0l0 -3.671875l2.4375 0l0 3.671875l3.8125 0l0 2.0l-3.8125 0z" fill="#000000"/><path fill-rule="nonzero" d="m340.93646 234.12083q-1.828125 0 -3.28125 -0.65625q-1.453125 -0.65625 -2.28125 -1.8125q-0.828125 -1.15625 -0.859375 -2.671875l2.59375 0q0.125 1.296875 1.0625 2.203125q0.953125 0.890625 2.765625 0.890625q1.734375 0 2.734375 -0.859375q1.0 -0.875 1.0 -2.234375q0 -1.078125 -0.59375 -1.734375q-0.578125 -0.671875 -1.453125 -1.015625q-0.875 -0.34375 -2.375 -0.75q-1.84375 -0.484375 -2.953125 -0.953125q-1.09375 -0.484375 -1.890625 -1.5q-0.78125 -1.0312653 -0.78125 -2.7656403q0 -1.515625 0.765625 -2.6875q0.78125 -1.1875 2.171875 -1.8125q1.40625 -0.640625 3.21875 -0.640625q2.609375 0 4.28125 1.3125q1.671875 1.296875 1.875 3.453125l-2.65625 0q-0.140625 -1.0625 -1.125 -1.875q-0.984375 -0.8125 -2.609375 -0.8125q-1.515625 0 -2.484375 0.78125q-0.953125 0.78125 -0.953125 2.203125q0 1.015625 0.5625 1.65625q0.578125 0.62501526 1.421875 0.96876526q0.84375 0.328125 2.359375 0.75q1.84375 0.515625 2.953125 1.015625q1.125 0.484375 1.921875 1.515625q0.796875 1.015625 0.796875 2.78125q0 1.359375 -0.71875 2.5625q-0.71875 1.1875 -2.140625 1.9375q-1.40625 0.75 -3.328125 0.75zm23.084656 -8.046875q0 0.6875 -0.078125 1.46875l-11.671875 0q0.140625 2.15625 1.484375 3.375q1.34375 1.203125 3.265625 1.203125q1.5625 0 2.609375 -0.734375q1.0625 -0.734375 1.484375 -1.953125l2.625 0q-0.59375 2.09375 -2.359375 3.421875q-1.75 1.3125 -4.359375 1.3125q-2.078125 0 -3.71875 -0.921875q-1.640625 -0.9375 -2.578125 -2.65625q-0.9375 -1.71875 -0.9375 -3.984375q0 -2.265625 0.90625 -3.96875q0.90625 -1.7187653 2.546875 -2.6250153q1.640625 -0.921875 3.78125 -0.921875q2.078125 0 3.671875 0.90625q1.59375 0.90625 2.453125 2.5000153q0.875 1.578125 0.875 3.578125zm-2.5 -0.515625q0 -1.375 -0.609375 -2.375q-0.609375 -1.0 -1.671875 -1.5156403q-1.046875 -0.53125 -2.328125 -0.53125q-1.84375 0 -3.140625 1.1718903q-1.28125 1.171875 -1.46875 3.25l9.21875 0zm8.136169 -3.8593903q0.640625 -1.25 1.8125 -1.9375q1.1875 -0.703125 2.90625 -0.703125l0 2.5l-0.640625 0q-4.078125 0 -4.078125 4.4375153l0 7.9375l-2.4375 0l0 -14.60939l2.4375 0l0 2.375zm12.942749 10.000015l4.53125 -12.375015l2.59375 0l-5.734375 14.60939l-2.828125 0l-5.734375 -14.60939l2.625 0l4.546875 12.375015zm10.782227 -14.750015q-0.703125 0 -1.1875 -0.46875q-0.46875 -0.484375 -0.46875 -1.171875q0 -0.703125 0.46875 -1.171875q0.484375 -0.484375 1.1875 -0.484375q0.65625 0 1.125 0.484375q0.46875 0.46875 0.46875 1.171875q0 0.6875 -0.46875 1.171875q-0.46875 0.46875 -1.125 0.46875zm1.171875 2.375l0 14.60939l-2.4375 0l0 -14.60939l2.4375 0zm3.213684 7.2812653q0 -2.265625 0.90625 -3.953125q0.90625 -1.7031403 2.515625 -2.6250153q1.625 -0.9375 3.703125 -0.9375q2.6875 0 4.4375 1.3125q1.75 1.296875 2.296875 3.6093903l-2.609375 0q-0.375 -1.328125 -1.453125 -2.0937653q-1.078125 -0.78125 -2.671875 -0.78125q-2.078125 0 -3.359375 1.4375153q-1.28125 1.421875 -1.28125 4.03125q0 2.640625 1.28125 4.078125q1.28125 1.4375 3.359375 1.4375q1.59375 0 2.65625 -0.75q1.078125 -0.75 1.46875 -2.125l2.609375 0q-0.578125 2.234375 -2.34375 3.578125q-1.75 1.34375 -4.390625 1.34375q-2.078125 0 -3.703125 -0.921875q-1.609375 -0.9375 -2.515625 -2.640625q-0.90625 -1.703125 -0.90625 -4.0zm30.414642 -0.53125q0 0.6875 -0.078125 1.46875l-11.671875 0q0.140625 2.15625 1.484375 3.375q1.34375 1.203125 3.265625 1.203125q1.5625 0 2.609375 -0.734375q1.0625 -0.734375 1.484375 -1.953125l2.625 0q-0.59375 2.09375 -2.359375 3.421875q-1.75 1.3125 -4.359375 1.3125q-2.078125 0 -3.71875 -0.921875q-1.640625 -0.9375 -2.578125 -2.65625q-0.9375 -1.71875 -0.9375 -3.984375q0 -2.265625 0.90625 -3.96875q0.90625 -1.7187653 2.546875 -2.6250153q1.640625 -0.921875 3.78125 -0.921875q2.078125 0 3.671875 0.90625q1.59375 0.90625 2.453125 2.5000153q0.875 1.578125 0.875 3.578125zm-2.5 -0.515625q0 -1.375 -0.609375 -2.375q-0.609375 -1.0 -1.671875 -1.5156403q-1.046875 -0.53125 -2.328125 -0.53125q-1.84375 0 -3.140625 1.1718903q-1.28125 1.171875 -1.46875 3.25l9.21875 0zm15.8237 -2.421875l0 2.046875l-10.625 0l0 -2.046875l10.625 0zm7.5312805 -1.8125153l0 8.60939q0 1.0625 0.453125 1.515625q0.453125 0.4375 1.5625 0.4375l1.796875 0l0 2.046875l-2.1875 0q-2.03125 0 -3.046875 -0.921875q-1.015625 -0.9375 -1.015625 -3.078125l0 -8.60939l-1.890625 0l0 -2.0l1.890625 0l0 -3.671875l2.4375 0l0 3.671875l3.8125 0l0 2.0l-3.8125 0zm13.1091 12.843765q-2.046875 0 -3.71875 -0.921875q-1.671875 -0.9375 -2.625 -2.65625q-0.9375 -1.71875 -0.9375 -3.984375q0 -2.234375 0.96875 -3.953125q0.984375 -1.7343903 2.65625 -2.6406403q1.6875 -0.921875 3.765625 -0.921875q2.078125 0 3.75 0.921875q1.6875 0.90625 2.65625 2.6250153q0.96875 1.703125 0.96875 3.96875q0 2.265625 -1.0 3.984375q-0.984375 1.71875 -2.703125 2.65625q-1.703125 0.921875 -3.78125 0.921875zm0 -2.125q1.3125 0 2.453125 -0.609375q1.140625 -0.625 1.84375 -1.84375q0.71875 -1.234375 0.71875 -2.984375q0 -1.765625 -0.703125 -2.984375q-0.6875 -1.234375 -1.8125 -1.8281403q-1.109375 -0.59375 -2.421875 -0.59375q-1.328125 0 -2.4375 0.59375q-1.109375 0.59376526 -1.78125 1.8281403q-0.65625 1.21875 -0.65625 2.984375q0 1.78125 0.65625 3.015625q0.65625 1.21875 1.75 1.828125q1.09375 0.59375 2.390625 0.59375zm20.809937 -8.90625l0 2.046875l-10.625 0l0 -2.046875l10.625 0zm10.4531555 10.984375q-1.828125 0 -3.28125 -0.65625q-1.453125 -0.65625 -2.28125 -1.8125q-0.828125 -1.15625 -0.859375 -2.671875l2.59375 0q0.125 1.296875 1.0625 2.203125q0.953125 0.890625 2.765625 0.890625q1.734375 0 2.734375 -0.859375q1.0 -0.875 1.0 -2.234375q0 -1.078125 -0.59375 -1.734375q-0.578125 -0.671875 -1.453125 -1.015625q-0.875 -0.34375 -2.375 -0.75q-1.84375 -0.484375 -2.953125 -0.953125q-1.09375 -0.484375 -1.890625 -1.5q-0.78125 -1.0312653 -0.78125 -2.7656403q0 -1.515625 0.765625 -2.6875q0.78125 -1.1875 2.171875 -1.8125q1.40625 -0.640625 3.21875 -0.640625q2.609375 0 4.28125 1.3125q1.671875 1.296875 1.875 3.453125l-2.65625 0q-0.140625 -1.0625 -1.125 -1.875q-0.984375 -0.8125 -2.609375 -0.8125q-1.515625 0 -2.484375 0.78125q-0.953125 0.78125 -0.953125 2.203125q0 1.015625 0.5625 1.65625q0.578125 0.62501526 1.421875 0.96876526q0.84375 0.328125 2.359375 0.75q1.84375 0.515625 2.953125 1.015625q1.125 0.484375 1.921875 1.515625q0.796875 1.015625 0.796875 2.78125q0 1.359375 -0.71875 2.5625q-0.71875 1.1875 -2.140625 1.9375q-1.40625 0.75 -3.328125 0.75zm23.084686 -8.046875q0 0.6875 -0.078125 1.46875l-11.6719055 0q0.140625 2.15625 1.484375 3.375q1.34375 1.203125 3.265625 1.203125q1.5625 0 2.6094055 -0.734375q1.0625 -0.734375 1.484375 -1.953125l2.625 0q-0.59375 2.09375 -2.359375 3.421875q-1.75 1.3125 -4.3594055 1.3125q-2.078125 0 -3.71875 -0.921875q-1.640625 -0.9375 -2.578125 -2.65625q-0.9375 -1.71875 -0.9375 -3.984375q0 -2.265625 0.90625 -3.96875q0.90625 -1.7187653 2.546875 -2.6250153q1.640625 -0.921875 3.78125 -0.921875q2.078125 0 3.6719055 0.90625q1.59375 0.90625 2.453125 2.5000153q0.875 1.578125 0.875 3.578125zm-2.5 -0.515625q0 -1.375 -0.609375 -2.375q-0.609375 -1.0 -1.6719055 -1.5156403q-1.046875 -0.53125 -2.328125 -0.53125q-1.84375 0 -3.140625 1.1718903q-1.28125 1.171875 -1.46875 3.25l9.2187805 0zm8.136169 -3.8593903q0.640625 -1.25 1.8125 -1.9375q1.1875 -0.703125 2.90625 -0.703125l0 2.5l-0.640625 0q-4.078125 0 -4.078125 4.4375153l0 7.9375l-2.4375 0l0 -14.60939l2.4375 0l0 2.375zm12.942749 10.000015l4.53125 -12.375015l2.59375 0l-5.734375 14.60939l-2.828125 0l-5.734375 -14.60939l2.625 0l4.546875 12.375015zm10.782227 -14.750015q-0.703125 0 -1.1875 -0.46875q-0.46875 -0.484375 -0.46875 -1.171875q0 -0.703125 0.46875 -1.171875q0.484375 -0.484375 1.1875 -0.484375q0.65625 0 1.125 0.484375q0.46875 0.46875 0.46875 1.171875q0 0.6875 -0.46875 1.171875q-0.46875 0.46875 -1.125 0.46875zm1.171875 2.375l0 14.60939l-2.4375 0l0 -14.60939l2.4375 0zm3.213684 7.2812653q0 -2.265625 0.90625 -3.953125q0.90625 -1.7031403 2.515625 -2.6250153q1.625 -0.9375 3.703125 -0.9375q2.6875 0 4.4375 1.3125q1.75 1.296875 2.296875 3.6093903l-2.609375 0q-0.375 -1.328125 -1.453125 -2.0937653q-1.078125 -0.78125 -2.671875 -0.78125q-2.078125 0 -3.359375 1.4375153q-1.28125 1.421875 -1.28125 4.03125q0 2.640625 1.28125 4.078125q1.28125 1.4375 3.359375 1.4375q1.59375 0 2.65625 -0.75q1.078125 -0.75 1.46875 -2.125l2.609375 0q-0.578125 2.234375 -2.34375 3.578125q-1.75 1.34375 -4.390625 1.34375q-2.078125 0 -3.703125 -0.921875q-1.609375 -0.9375 -2.515625 -2.640625q-0.90625 -1.703125 -0.90625 -4.0zm30.414612 -0.53125q0 0.6875 -0.078125 1.46875l-11.671875 0q0.140625 2.15625 1.484375 3.375q1.34375 1.203125 3.265625 1.203125q1.5625 0 2.609375 -0.734375q1.0625 -0.734375 1.484375 -1.953125l2.625 0q-0.59375 2.09375 -2.359375 3.421875q-1.75 1.3125 -4.359375 1.3125q-2.078125 0 -3.71875 -0.921875q-1.640625 -0.9375 -2.578125 -2.65625q-0.9375 -1.71875 -0.9375 -3.984375q0 -2.265625 0.90625 -3.96875q0.90625 -1.7187653 2.546875 -2.6250153q1.640625 -0.921875 3.78125 -0.921875q2.078125 0 3.671875 0.90625q1.59375 0.90625 2.453125 2.5000153q0.875 1.578125 0.875 3.578125zm-2.5 -0.515625q0 -1.375 -0.609375 -2.375q-0.609375 -1.0 -1.671875 -1.5156403q-1.046875 -0.53125 -2.328125 -0.53125q-1.84375 0 -3.140625 1.1718903q-1.28125 1.171875 -1.46875 3.25l9.21875 0zm24.253418 -10.20314l0 1.96875l-5.0625 0l0 16.60939l-2.421875 0l0 -16.60939l-5.09375 0l0 -1.96875l12.578125 0zm5.4209595 6.34375q0.640625 -1.25 1.8125 -1.9375q1.1875 -0.703125 2.90625 -0.703125l0 2.5l-0.640625 0q-4.078125 0 -4.078125 4.4375153l0 7.9375l-2.4375 0l0 -14.60939l2.4375 0l0 2.375zm20.458374 -2.375l0 14.60939l-2.421875 0l0 -2.15625q-0.6875 1.109375 -1.9375 1.75q-1.234375 0.625 -2.71875 0.625q-1.71875 0 -3.078125 -0.703125q-1.359375 -0.71875 -2.140625 -2.125q-0.78125 -1.421875 -0.78125 -3.4375l0 -8.562515l2.390625 0l0 8.23439q0 2.15625 1.09375 3.328125q1.09375 1.15625 2.984375 1.15625q1.953125 0 3.0625 -1.203125q1.125 -1.203125 1.125 -3.484375l0 -8.031265l2.421875 0zm9.278687 14.843765q-1.671875 0 -3.015625 -0.5625q-1.328125 -0.578125 -2.109375 -1.59375q-0.765625 -1.03125 -0.84375 -2.375l2.515625 0q0.09375 1.09375 1.015625 1.796875q0.921875 0.6875 2.421875 0.6875q1.375 0 2.171875 -0.609375q0.8125 -0.609375 0.8125 -1.546875q0 -0.96875 -0.859375 -1.421875q-0.84375 -0.46875 -2.640625 -0.921875q-1.625 -0.4375 -2.65625 -0.875q-1.015625 -0.4375 -1.75 -1.296875q-0.734375 -0.875 -0.734375 -2.28125q0 -1.125 0.65625 -2.0468903q0.671875 -0.9375 1.890625 -1.484375q1.234375 -0.546875 2.8125 -0.546875q2.421875 0 3.90625 1.234375q1.5 1.21875 1.609375 3.3437653l-2.421875 0q-0.078125 -1.140625 -0.921875 -1.8281403q-0.84375 -0.703125 -2.25 -0.703125q-1.3125 0 -2.09375 0.5625q-0.765625 0.56251526 -0.765625 1.4687653q0 0.71875 0.46875 1.1875q0.46875 0.46875 1.171875 0.75q0.703125 0.265625 1.96875 0.625q1.5625 0.421875 2.546875 0.84375q0.984375 0.40625 1.6875 1.234375q0.71875 0.828125 0.75 2.15625q0 1.203125 -0.671875 2.15625q-0.671875 0.953125 -1.890625 1.5q-1.203125 0.546875 -2.78125 0.546875zm11.711365 -12.843765l0 8.60939q0 1.0625 0.453125 1.515625q0.453125 0.4375 1.5625 0.4375l1.796875 0l0 2.046875l-2.1875 0q-2.03125 0 -3.046875 -0.921875q-1.015625 -0.9375 -1.015625 -3.078125l0 -8.60939l-1.890625 0l0 -2.0l1.890625 0l0 -3.671875l2.4375 0l0 3.671875l3.8125 0l0 2.0l-3.8125 0z" fill="#000000"/><path fill-rule="nonzero" d="m337.42084 288.68854l0 11.75q0 2.484375 1.203125 3.6875q1.21875 1.1875 3.390625 1.1875q2.125 0 3.328125 -1.1875q1.21875 -1.203125 1.21875 -3.6875l0 -11.75l2.4375 0l0 11.734375q0 2.3125 -0.9375 3.90625q-0.9375 1.578125 -2.53125 2.359375q-1.578125 0.765625 -3.546875 0.765625q-1.96875 0 -3.5625 -0.765625q-1.578125 -0.78125 -2.5 -2.359375q-0.921875 -1.59375 -0.921875 -3.90625l0 -11.734375l2.421875 0zm20.789764 18.8125q-1.671875 0 -3.015625 -0.5625q-1.328125 -0.578125 -2.109375 -1.59375q-0.765625 -1.03125 -0.84375 -2.375l2.515625 0q0.09375 1.09375 1.015625 1.796875q0.921875 0.6875 2.421875 0.6875q1.375 0 2.171875 -0.609375q0.8125 -0.609375 0.8125 -1.546875q0 -0.96875 -0.859375 -1.421875q-0.84375 -0.46875 -2.640625 -0.921875q-1.625 -0.4375 -2.65625 -0.875q-1.015625 -0.4375 -1.75 -1.296875q-0.734375 -0.875 -0.734375 -2.28125q0 -1.125 0.65625 -2.046875q0.671875 -0.9375 1.890625 -1.484375q1.234375 -0.546875 2.8125 -0.546875q2.421875 0 3.90625 1.234375q1.5 1.21875 1.609375 3.34375l-2.421875 0q-0.078125 -1.140625 -0.921875 -1.828125q-0.84375 -0.703125 -2.25 -0.703125q-1.3125 0 -2.09375 0.5625q-0.765625 0.5625 -0.765625 1.46875q0 0.71875 0.46875 1.1875q0.46875 0.46875 1.171875 0.75q0.703125 0.265625 1.96875 0.625q1.5625 0.421875 2.546875 0.84375q0.984375 0.40625 1.6875 1.234375q0.71875 0.828125 0.75 2.15625q0 1.203125 -0.671875 2.15625q-0.671875 0.953125 -1.890625 1.5q-1.203125 0.546875 -2.78125 0.546875zm22.07077 -8.09375q0 0.6875 -0.078125 1.46875l-11.671875 0q0.140625 2.15625 1.484375 3.375q1.34375 1.203125 3.265625 1.203125q1.5625 0 2.609375 -0.734375q1.0625 -0.734375 1.484375 -1.953125l2.625 0q-0.59375 2.09375 -2.359375 3.421875q-1.75 1.3125 -4.359375 1.3125q-2.078125 0 -3.71875 -0.921875q-1.640625 -0.9375 -2.578125 -2.65625q-0.9375 -1.71875 -0.9375 -3.984375q0 -2.265625 0.90625 -3.96875q0.90625 -1.71875 2.546875 -2.625q1.640625 -0.921875 3.78125 -0.921875q2.078125 0 3.671875 0.90625q1.59375 0.90625 2.453125 2.5q0.875 1.578125 0.875 3.578125zm-2.5 -0.515625q0 -1.375 -0.609375 -2.375q-0.609375 -1.0 -1.671875 -1.515625q-1.046875 -0.53125 -2.328125 -0.53125q-1.84375 0 -3.140625 1.171875q-1.28125 1.171875 -1.46875 3.25l9.21875 0zm8.136169 -3.859375q0.640625 -1.25 1.8125 -1.9375q1.1875 -0.703125 2.90625 -0.703125l0 2.5l-0.640625 0q-4.078125 0 -4.078125 4.4375l0 7.9375l-2.4375 0l0 -14.609375l2.4375 0l0 2.375zm26.059937 -6.34375l0 1.96875l-5.0625 0l0 16.609375l-2.421875 0l0 -16.609375l-5.09375 0l0 -1.96875l12.578125 0zm5.42099 6.34375q0.640625 -1.25 1.8125 -1.9375q1.1875 -0.703125 2.90625 -0.703125l0 2.5l-0.640625 0q-4.078125 0 -4.078125 4.4375l0 7.9375l-2.4375 0l0 -14.609375l2.4375 0l0 2.375zm20.458374 -2.375l0 14.609375l-2.421875 0l0 -2.15625q-0.6875 1.109375 -1.9375 1.75q-1.234375 0.625 -2.71875 0.625q-1.71875 0 -3.078125 -0.703125q-1.359375 -0.71875 -2.140625 -2.125q-0.78125 -1.421875 -0.78125 -3.4375l0 -8.5625l2.390625 0l0 8.234375q0 2.15625 1.09375 3.328125q1.09375 1.15625 2.984375 1.15625q1.953125 0 3.0625 -1.203125q1.125 -1.203125 1.125 -3.484375l0 -8.03125l2.421875 0zm9.278687 14.84375q-1.671875 0 -3.015625 -0.5625q-1.328125 -0.578125 -2.109375 -1.59375q-0.765625 -1.03125 -0.84375 -2.375l2.515625 0q0.09375 1.09375 1.015625 1.796875q0.921875 0.6875 2.421875 0.6875q1.375 0 2.171875 -0.609375q0.8125 -0.609375 0.8125 -1.546875q0 -0.96875 -0.859375 -1.421875q-0.84375 -0.46875 -2.640625 -0.921875q-1.625 -0.4375 -2.65625 -0.875q-1.015625 -0.4375 -1.75 -1.296875q-0.734375 -0.875 -0.734375 -2.28125q0 -1.125 0.65625 -2.046875q0.671875 -0.9375 1.890625 -1.484375q1.234375 -0.546875 2.8125 -0.546875q2.421875 0 3.90625 1.234375q1.5 1.21875 1.609375 3.34375l-2.421875 0q-0.078125 -1.140625 -0.921875 -1.828125q-0.84375 -0.703125 -2.25 -0.703125q-1.3125 0 -2.09375 0.5625q-0.765625 0.5625 -0.765625 1.46875q0 0.71875 0.46875 1.1875q0.46875 0.46875 1.171875 0.75q0.703125 0.265625 1.96875 0.625q1.5625 0.421875 2.546875 0.84375q0.984375 0.40625 1.6875 1.234375q0.71875 0.828125 0.75 2.15625q0 1.203125 -0.671875 2.15625q-0.671875 0.953125 -1.890625 1.5q-1.203125 0.546875 -2.78125 0.546875zm11.711365 -12.84375l0 8.609375q0 1.0625 0.453125 1.515625q0.453125 0.4375 1.5625 0.4375l1.796875 0l0 2.046875l-2.1875 0q-2.03125 0 -3.046875 -0.921875q-1.015625 -0.9375 -1.015625 -3.078125l0 -8.609375l-1.890625 0l0 -2.0l1.890625 0l0 -3.671875l2.4375 0l0 3.671875l3.8125 0l0 2.0l-3.8125 0z" fill="#000000"/><path fill-rule="nonzero" d="m346.0302 376.47498l-8.09375 0l-1.5 4.125l-2.5625 0l6.71875 -18.46875l2.796875 0l6.703125 18.46875l-2.5625 0l-1.5 -4.125zm-0.6875 -1.984375l-3.359375 -9.375l-3.359375 9.375l6.71875 0zm12.841248 6.34375q-1.671875 0 -3.015625 -0.5625q-1.328125 -0.578125 -2.109375 -1.59375q-0.765625 -1.03125 -0.84375 -2.375l2.515625 0q0.09375 1.09375 1.015625 1.796875q0.921875 0.6875 2.421875 0.6875q1.375 0 2.171875 -0.609375q0.8125 -0.609375 0.8125 -1.546875q0 -0.96875 -0.859375 -1.421875q-0.84375 -0.46875 -2.640625 -0.921875q-1.625 -0.4375 -2.65625 -0.875q-1.015625 -0.4375 -1.75 -1.296875q-0.734375 -0.875 -0.734375 -2.28125q0 -1.125 0.65625 -2.046875q0.671875 -0.9375 1.890625 -1.484375q1.234375 -0.546875 2.8125 -0.546875q2.421875 0 3.90625 1.234375q1.5 1.21875 1.609375 3.34375l-2.421875 0q-0.078125 -1.140625 -0.921875 -1.828125q-0.84375 -0.703125 -2.25 -0.703125q-1.3125 0 -2.09375 0.5625q-0.765625 0.5625 -0.765625 1.46875q0 0.71875 0.46875 1.1875q0.46875 0.46875 1.171875 0.75q0.703125 0.265625 1.96875 0.625q1.5625 0.421875 2.546875 0.84375q0.984375 0.40625 1.6875 1.234375q0.71875 0.828125 0.75 2.15625q0 1.203125 -0.671875 2.15625q-0.671875 0.953125 -1.890625 1.5q-1.203125 0.546875 -2.78125 0.546875zm13.91449 0q-1.671875 0 -3.015625 -0.5625q-1.328125 -0.578125 -2.109375 -1.59375q-0.765625 -1.03125 -0.84375 -2.375l2.515625 0q0.09375 1.09375 1.015625 1.796875q0.921875 0.6875 2.421875 0.6875q1.375 0 2.171875 -0.609375q0.8125 -0.609375 0.8125 -1.546875q0 -0.96875 -0.859375 -1.421875q-0.84375 -0.46875 -2.640625 -0.921875q-1.625 -0.4375 -2.65625 -0.875q-1.015625 -0.4375 -1.75 -1.296875q-0.734375 -0.875 -0.734375 -2.28125q0 -1.125 0.65625 -2.046875q0.671875 -0.9375 1.890625 -1.484375q1.234375 -0.546875 2.8125 -0.546875q2.421875 0 3.90625 1.234375q1.5 1.21875 1.609375 3.34375l-2.421875 0q-0.078125 -1.140625 -0.921875 -1.828125q-0.84375 -0.703125 -2.25 -0.703125q-1.3125 0 -2.09375 0.5625q-0.765625 0.5625 -0.765625 1.46875q0 0.71875 0.46875 1.1875q0.46875 0.46875 1.171875 0.75q0.703125 0.265625 1.96875 0.625q1.5625 0.421875 2.546875 0.84375q0.984375 0.40625 1.6875 1.234375q0.71875 0.828125 0.75 2.15625q0 1.203125 -0.671875 2.15625q-0.671875 0.953125 -1.890625 1.5q-1.203125 0.546875 -2.78125 0.546875zm21.69577 -14.84375l0 14.609375l-2.421875 0l0 -2.15625q-0.6875 1.109375 -1.9375 1.75q-1.234375 0.625 -2.71875 0.625q-1.71875 0 -3.078125 -0.703125q-1.359375 -0.71875 -2.140625 -2.125q-0.78125 -1.421875 -0.78125 -3.4375l0 -8.5625l2.390625 0l0 8.234375q0 2.15625 1.09375 3.328125q1.09375 1.15625 2.984375 1.15625q1.953125 0 3.0625 -1.203125q1.125 -1.203125 1.125 -3.484375l0 -8.03125l2.421875 0zm6.5443115 2.375q0.640625 -1.25 1.8125 -1.9375q1.1875 -0.703125 2.90625 -0.703125l0 2.5l-0.640625 0q-4.078125 0 -4.078125 4.4375l0 7.9375l-2.4375 0l0 -14.609375l2.4375 0l0 2.375zm20.833374 4.375q0 0.6875 -0.078125 1.46875l-11.671875 0q0.140625 2.15625 1.484375 3.375q1.34375 1.203125 3.265625 1.203125q1.5625 0 2.609375 -0.734375q1.0625 -0.734375 1.484375 -1.953125l2.625 0q-0.59375 2.09375 -2.359375 3.421875q-1.75 1.3125 -4.359375 1.3125q-2.078125 0 -3.71875 -0.921875q-1.640625 -0.9375 -2.578125 -2.65625q-0.9375 -1.71875 -0.9375 -3.984375q0 -2.265625 0.90625 -3.96875q0.90625 -1.71875 2.546875 -2.625q1.640625 -0.921875 3.78125 -0.921875q2.078125 0 3.671875 0.90625q1.59375 0.90625 2.453125 2.5q0.875 1.578125 0.875 3.578125zm-2.5 -0.515625q0 -1.375 -0.609375 -2.375q-0.609375 -1.0 -1.671875 -1.515625q-1.046875 -0.53125 -2.328125 -0.53125q-1.84375 0 -3.140625 1.171875q-1.28125 1.171875 -1.46875 3.25l9.21875 0zm4.7924194 1.015625q0 -2.234375 0.90625 -3.921875q0.90625 -1.703125 2.484375 -2.625q1.59375 -0.9375 3.578125 -0.9375q1.703125 0 3.15625 0.78125q1.46875 0.78125 2.25 2.0625l0 -7.71875l2.453125 0l0 19.71875l-2.453125 0l0 -2.75q-0.71875 1.3125 -2.140625 2.15625q-1.40625 0.828125 -3.296875 0.828125q-1.953125 0 -3.546875 -0.953125q-1.578125 -0.953125 -2.484375 -2.6875q-0.90625 -1.734375 -0.90625 -3.953125zm12.375 0.03125q0 -1.65625 -0.671875 -2.875q-0.65625 -1.234375 -1.796875 -1.875q-1.125 -0.65625 -2.484375 -0.65625q-1.359375 0 -2.484375 0.640625q-1.125 0.625 -1.796875 1.859375q-0.65625 1.21875 -0.65625 2.875q0 1.6875 0.65625 2.921875q0.671875 1.234375 1.796875 1.890625q1.125 0.65625 2.484375 0.65625q1.359375 0 2.484375 -0.65625q1.140625 -0.65625 1.796875 -1.890625q0.671875 -1.234375 0.671875 -2.890625zm12.761749 -1.96875q0 -2.71875 1.21875 -4.890625q1.234375 -2.171875 3.359375 -3.390625q2.125 -1.234375 4.703125 -1.234375q3.046875 0 5.3125 1.46875q2.265625 1.453125 3.296875 4.15625l-2.90625 0q-0.765625 -1.6875 -2.21875 -2.59375q-1.453125 -0.90625 -3.484375 -0.90625q-1.9375 0 -3.484375 0.90625q-1.546875 0.90625 -2.4375 2.578125q-0.875 1.65625 -0.875 3.90625q0 2.203125 0.875 3.875q0.890625 1.65625 2.4375 2.5625q1.546875 0.90625 3.484375 0.90625q2.03125 0 3.484375 -0.890625q1.453125 -0.890625 2.21875 -2.5625l2.90625 0q-1.03125 2.65625 -3.296875 4.109375q-2.265625 1.453125 -5.3125 1.453125q-2.578125 0 -4.703125 -1.203125q-2.125 -1.21875 -3.359375 -3.375q-1.21875 -2.15625 -1.21875 -4.875zm27.859802 9.53125q-2.046875 0 -3.71875 -0.921875q-1.671875 -0.9375 -2.625 -2.65625q-0.9375 -1.71875 -0.9375 -3.984375q0 -2.234375 0.96875 -3.953125q0.984375 -1.734375 2.65625 -2.640625q1.6875 -0.921875 3.765625 -0.921875q2.078125 0 3.75 0.921875q1.6875 0.90625 2.65625 2.625q0.96875 1.703125 0.96875 3.96875q0 2.265625 -1.0 3.984375q-0.984375 1.71875 -2.703125 2.65625q-1.703125 0.921875 -3.78125 0.921875zm0 -2.125q1.3125 0 2.453125 -0.609375q1.140625 -0.625 1.84375 -1.84375q0.71875 -1.234375 0.71875 -2.984375q0 -1.765625 -0.703125 -2.984375q-0.6875 -1.234375 -1.8125 -1.828125q-1.109375 -0.59375 -2.421875 -0.59375q-1.328125 0 -2.4375 0.59375q-1.109375 0.59375 -1.78125 1.828125q-0.65625 1.21875 -0.65625 2.984375q0 1.78125 0.65625 3.015625q0.65625 1.21875 1.75 1.828125q1.09375 0.59375 2.390625 0.59375zm17.809937 -12.984375q2.65625 0 4.3125 1.609375q1.65625 1.609375 1.65625 4.65625l0 8.609375l-2.40625 0l0 -8.265625q0 -2.1875 -1.09375 -3.34375q-1.078125 -1.15625 -2.984375 -1.15625q-1.90625 0 -3.046875 1.203125q-1.125 1.1875 -1.125 3.484375l0 8.078125l-2.4375 0l0 -14.609375l2.4375 0l0 2.078125q0.71875 -1.109375 1.953125 -1.71875q1.234375 -0.625 2.734375 -0.625zm12.903687 2.265625l0 8.609375q0 1.0625 0.453125 1.515625q0.453125 0.4375 1.5625 0.4375l1.796875 0l0 2.046875l-2.1875 0q-2.03125 0 -3.046875 -0.921875q-1.015625 -0.9375 -1.015625 -3.078125l0 -8.609375l-1.890625 0l0 -2.0l1.890625 0l0 -3.671875l2.4375 0l0 3.671875l3.8125 0l0 2.0l-3.8125 0zm20.062195 4.75q0 0.6875 -0.078125 1.46875l-11.671875 0q0.140625 2.15625 1.484375 3.375q1.34375 1.203125 3.265625 1.203125q1.5625 0 2.609375 -0.734375q1.0625 -0.734375 1.484375 -1.953125l2.625 0q-0.59375 2.09375 -2.359375 3.421875q-1.75 1.3125 -4.359375 1.3125q-2.078125 0 -3.71875 -0.921875q-1.640625 -0.9375 -2.578125 -2.65625q-0.9375 -1.71875 -0.9375 -3.984375q0 -2.265625 0.90625 -3.96875q0.90625 -1.71875 2.546875 -2.625q1.640625 -0.921875 3.78125 -0.921875q2.078125 0 3.671875 0.90625q1.59375 0.90625 2.453125 2.5q0.875 1.578125 0.875 3.578125zm-2.5 -0.515625q0 -1.375 -0.609375 -2.375q-0.609375 -1.0 -1.671875 -1.515625q-1.046875 -0.53125 -2.328125 -0.53125q-1.84375 0 -3.140625 1.171875q-1.28125 1.171875 -1.46875 3.25l9.21875 0zm13.32373 8.375l-3.46875 -5.4375l-3.328125 5.4375l-2.53125 0l4.71875 -7.25l-4.71875 -7.359375l2.75 0l3.46875 5.40625l3.296875 -5.40625l2.53125 0l-4.6875 7.21875l4.71875 7.390625l-2.75 0zm8.1119995 -12.609375l0 8.609375q0 1.0625 0.453125 1.515625q0.453125 0.4375 1.5625 0.4375l1.796875 0l0 2.046875l-2.1875 0q-2.03125 0 -3.046875 -0.921875q-1.015625 -0.9375 -1.015625 -3.078125l0 -8.609375l-1.890625 0l0 -2.0l1.890625 0l0 -3.671875l2.4375 0l0 3.671875l3.8125 0l0 2.0l-3.8125 0z" fill="#000000"/><defs><linearGradient y2="24.157814359485386" x2="13.780088120271447" y1="7.616322444008582" x1="13.783457421350526" spreadMethod="pad" gradientTransform="matrix(16.541492258619662 0.0 0.0 16.541492258619662 0.0 0.0)" gradientUnits="userSpaceOnUse" id="g2cec2c68d40_0_7.1"><stop stop-color="#ff0000" offset="0.0"/><stop stop-opacity="0.9490196" stop-color="#fd2a0f" offset="0.1025"/><stop stop-opacity="0.8980392" stop-color="#fc5920" offset="0.205"/><stop stop-opacity="0.84705883" stop-color="#f98e33" offset="0.3075"/><stop stop-opacity="0.8" stop-color="#f6c949" offset="0.41"/><stop stop-opacity="0.84705883" stop-color="#d9c857" offset="0.5575"/><stop stop-opacity="0.8980392" stop-color="#c0c665" offset="0.70500004"/><stop stop-opacity="0.9490196" stop-color="#a8c572" offset="0.8525"/><stop stop-color="#93c47d" offset="1.0"/></linearGradient></defs><path fill-rule="evenodd" d="m227.99895 136.60632l0 0c0 -5.857712 4.7486115 -10.606323 10.606323 -10.606323l50.78737 0c2.8129578 0 5.5107117 1.1174469 7.4997864 3.1065216c1.9890747 1.9890747 3.1065369 4.6868286 3.1065369 7.4998016l0 252.39365c0 5.857727 -4.7486267 10.606323 -10.606323 10.606323l-50.78737 0c-5.857712 0 -10.606323 -4.748596 -10.606323 -10.606323z" fill="url(#g2cec2c68d40_0_7.1)"/></g></svg>