<svg style="max-height: 500px" version="1.1" viewBox="251.1202219551372 120.33144 459.4771730566489 301.9896" fill="none" stroke="none" stroke-linecap="square" stroke-miterlimit="10" xmlns:xlink="http://www.w3.org/1999/xlink" xmlns="http://www.w3.org/2000/svg" width="459.4771730566489" height="301.9896"><clipPath id="g2defaaf4e68_0_6.0"><path d="m0 0l960.0 0l0 540.0l-960.0 0l0 -540.0z" clip-rule="nonzero"/></clipPath><g clip-path="url(#g2defaaf4e68_0_6.0)"><path fill="#ffffff" d="m0 0l960.0 0l0 540.0l-960.0 0z" fill-rule="evenodd"/><path fill="#000000" fill-opacity="0.0" d="m277.74365 154.15266l43.77954 0.12599182" fill-rule="evenodd"/><path stroke="#000000" stroke-width="2.0" stroke-linejoin="round" stroke-linecap="butt" d="m277.74365 154.15268l31.779572 0.09144592" fill-rule="evenodd"/><path fill="#000000" stroke="#000000" stroke-width="2.0" stroke-linecap="butt" d="m309.51373 157.54758l9.085663 -3.2773285l-9.06665 -3.3295746z" fill-rule="evenodd"/><path fill="#7000ff" d="m254.007 153.83182l0 0c0 -6.627411 5.372574 -12.0 11.999985 -12.0l0 0c3.1826172 0 6.2348633 1.2642822 8.485291 3.5147247c2.2504272 2.2504425 3.5147095 5.3026886 3.5147095 8.485275l0 0c0 6.627426 -5.3725586 12.0 -12.0 12.0l0 0c-6.627411 0 -11.999985 -5.372574 -11.999985 -12.0z" fill-rule="evenodd"/><path fill="#ffffff" d="m263.68912 150.09807l0 -2.0625l3.859375 0l0 11.65625l-2.3125 0l0 -9.59375l-1.546875 0z" fill-rule="nonzero"/><g filter="url(#shadowFilter-g2defaaf4e68_0_6.1)"/><defs><filter id="shadowFilter-g2defaaf4e68_0_6.1" filterUnits="userSpaceOnUse"><feGaussianBlur in="SourceAlpha" stdDeviation="4.0" result="blur"/><feComponentTransfer in="blur" color-interpolation-filters="sRGB"><feFuncR type="linear"/><feFuncG type="linear"/><feFuncB type="linear"/><feFuncA type="linear"/></feComponentTransfer></filter></defs><g id="g2defaaf4e68_0_6.1"><path fill="#ffffff" d="m323.74063 240.37103l0 0c0 -5.3026276 4.2986145 -9.601242 9.601227 -9.601242l100.797516 0c2.5464172 0 4.9885254 1.0115509 6.7891235 2.8121338c1.8005676 1.8005829 2.8121338 4.242691 2.8121338 6.7891083l0 38.40381c0 5.3026123 -4.2986145 9.601257 -9.601257 9.601257l-100.797516 0c-5.3026123 0 -9.601227 -4.298645 -9.601227 -9.601257z" fill-rule="evenodd"/><path stroke="#000000" stroke-width="2.0" stroke-linejoin="round" stroke-linecap="butt" d="m323.74063 240.37103l0 0c0 -5.3026276 4.2986145 -9.601242 9.601227 -9.601242l100.797516 0c2.5464172 0 4.9885254 1.0115509 6.7891235 2.8121338c1.8005676 1.8005829 2.8121338 4.242691 2.8121338 6.7891083l0 38.40381c0 5.3026123 -4.2986145 9.601257 -9.601257 9.601257l-100.797516 0c-5.3026123 0 -9.601227 -4.298645 -9.601227 -9.601257z" fill-rule="evenodd"/><path fill="#000000" d="m357.747 245.41856l0 10.234375l-2.046875 0l0 -10.234375l2.046875 0zm6.5275574 2.0q1.453125 0 2.34375 0.921875q0.890625 0.90625 0.890625 2.546875l0 4.765625l-2.046875 0l0 -4.484375q0 -0.96875 -0.484375 -1.484375q-0.484375 -0.53125 -1.328125 -0.53125q-0.84375 0 -1.34375 0.53125q-0.484375 0.515625 -0.484375 1.484375l0 4.484375l-2.046875 0l0 -8.125l2.046875 0l0 1.015625q0.40625 -0.53125 1.046875 -0.828125q0.640625 -0.296875 1.40625 -0.296875zm7.5784607 1.796875l0 3.9375q0 0.40625 0.1875 0.59375q0.203125 0.171875 0.671875 0.171875l0.953125 0l0 1.734375l-1.296875 0q-2.59375 0 -2.59375 -2.515625l0 -3.921875l-0.96875 0l0 -1.6875l0.96875 0l0 -2.0l2.078125 0l0 2.0l1.8125 0l0 1.6875l-1.8125 0zm10.8428955 2.203125q0 0.4375 -0.0625 0.796875l-5.9375 0q0.078125 0.875 0.609375 1.375q0.546875 0.5 1.34375 0.5q1.140625 0 1.625 -0.984375l2.21875 0q-0.359375 1.171875 -1.359375 1.921875q-0.984375 0.75 -2.4375 0.75q-1.171875 0 -2.109375 -0.515625q-0.921875 -0.515625 -1.453125 -1.46875q-0.515625 -0.953125 -0.515625 -2.203125q0 -1.25 0.515625 -2.203125q0.515625 -0.953125 1.4375 -1.46875q0.921875 -0.515625 2.125 -0.515625q1.15625 0 2.0625 0.5q0.921875 0.5 1.421875 1.421875q0.515625 0.90625 0.515625 2.09375zm-2.125 -0.59375q-0.015625 -0.78125 -0.578125 -1.25q-0.546875 -0.484375 -1.359375 -0.484375q-0.765625 0 -1.28125 0.46875q-0.515625 0.453125 -0.640625 1.265625l3.859375 0zm5.667938 -2.03125q0.390625 -0.640625 1.03125 -1.0q0.640625 -0.375 1.46875 -0.375l0 2.15625l-0.546875 0q-0.96875 0 -1.46875 0.453125q-0.484375 0.453125 -0.484375 1.578125l0 4.046875l-2.046875 0l0 -8.125l2.046875 0l0 1.265625zm8.374268 -1.375q1.453125 0 2.34375 0.921875q0.890625 0.90625 0.890625 2.546875l0 4.765625l-2.046875 0l0 -4.484375q0 -0.96875 -0.484375 -1.484375q-0.484375 -0.53125 -1.328125 -0.53125q-0.84375 0 -1.34375 0.53125q-0.484375 0.515625 -0.484375 1.484375l0 4.484375l-2.046875 0l0 -8.125l2.046875 0l0 1.015625q0.40625 -0.53125 1.046875 -0.828125q0.640625 -0.296875 1.40625 -0.296875zm4.656555 4.140625q0 -1.21875 0.484375 -2.171875q0.5 -0.953125 1.34375 -1.46875q0.84375 -0.515625 1.875 -0.515625q0.90625 0 1.59375 0.375q0.6875 0.359375 1.09375 0.90625l0 -1.15625l2.0625 0l0 8.125l-2.0625 0l0 -1.1875q-0.390625 0.578125 -1.09375 0.953125q-0.703125 0.359375 -1.609375 0.359375q-1.015625 0 -1.859375 -0.515625q-0.84375 -0.53125 -1.34375 -1.484375q-0.484375 -0.96875 -0.484375 -2.21875zm6.390625 0.03125q0 -0.75 -0.296875 -1.28125q-0.296875 -0.53125 -0.796875 -0.8125q-0.484375 -0.296875 -1.0625 -0.296875q-0.578125 0 -1.0625 0.28125q-0.46875 0.28125 -0.78125 0.8125q-0.296875 0.53125 -0.296875 1.265625q0 0.734375 0.296875 1.296875q0.3125 0.546875 0.796875 0.84375q0.484375 0.28125 1.046875 0.28125q0.578125 0 1.0625 -0.28125q0.5 -0.296875 0.796875 -0.828125q0.296875 -0.53125 0.296875 -1.28125zm6.124481 -6.78125l0 10.84375l-2.046875 0l0 -10.84375l2.046875 0z" fill-rule="nonzero"/><path fill="#000000" d="m360.7802 265.52792l0 8.125l-2.078125 0l0 -1.25q-0.375 0.65625 -1.03125 1.015625q-0.65625 0.34375 -1.5 0.34375q-0.640625 0 -1.09375 -0.28125l0 4.046875l-2.046875 0l0 -12.0l2.046875 0l0 4.46875q0 0.953125 0.484375 1.46875q0.5 0.515625 1.328125 0.515625q0.84375 0 1.328125 -0.515625q0.484375 -0.515625 0.484375 -1.46875l0 -4.46875l2.078125 0zm5.218231 8.25q-1.0 0 -1.796875 -0.359375q-0.796875 -0.359375 -1.265625 -0.96875q-0.453125 -0.609375 -0.484375 -1.359375l2.0625 0q0.0625 0.46875 0.453125 0.78125q0.40625 0.296875 1.015625 0.296875q0.578125 0 0.90625 -0.234375q0.328125 -0.234375 0.328125 -0.59375q0 -0.40625 -0.40625 -0.59375q-0.390625 -0.203125 -1.265625 -0.4375q-0.921875 -0.21875 -1.5 -0.453125q-0.578125 -0.234375 -1.0 -0.71875q-0.40625 -0.484375 -0.40625 -1.296875q0 -0.6875 0.375 -1.234375q0.390625 -0.5625 1.109375 -0.875q0.734375 -0.328125 1.71875 -0.328125q1.453125 0 2.3125 0.734375q0.875 0.71875 0.953125 1.953125l-1.953125 0q-0.046875 -0.484375 -0.40625 -0.765625q-0.359375 -0.296875 -0.96875 -0.296875q-0.546875 0 -0.859375 0.203125q-0.296875 0.203125 -0.296875 0.578125q0 0.40625 0.40625 0.625q0.421875 0.203125 1.28125 0.421875q0.875 0.21875 1.453125 0.453125q0.578125 0.234375 0.984375 0.734375q0.421875 0.484375 0.4375 1.296875q0 0.703125 -0.390625 1.265625q-0.390625 0.546875 -1.125 0.859375q-0.71875 0.3125 -1.671875 0.3125zm12.425171 -4.359375q0 0.4375 -0.0625 0.796875l-5.9375 0q0.078125 0.875 0.609375 1.375q0.546875 0.5 1.34375 0.5q1.140625 0 1.625 -0.984375l2.21875 0q-0.359375 1.171875 -1.359375 1.921875q-0.984375 0.75 -2.4375 0.75q-1.171875 0 -2.109375 -0.515625q-0.921875 -0.515625 -1.453125 -1.46875q-0.515625 -0.953125 -0.515625 -2.203125q0 -1.25 0.515625 -2.203125q0.515625 -0.953125 1.4375 -1.46875q0.921875 -0.515625 2.125 -0.515625q1.15625 0 2.0625 0.5q0.921875 0.5 1.421875 1.421875q0.515625 0.90625 0.515625 2.09375zm-2.125 -0.59375q-0.015625 -0.78125 -0.578125 -1.25q-0.546875 -0.484375 -1.359375 -0.484375q-0.765625 0 -1.28125 0.46875q-0.515625 0.453125 -0.640625 1.265625l3.859375 0zm5.667938 -2.03125q0.390625 -0.640625 1.03125 -1.0q0.640625 -0.375 1.46875 -0.375l0 2.15625l-0.546875 0q-0.96875 0 -1.46875 0.453125q-0.484375 0.453125 -0.484375 1.578125l0 4.046875l-2.046875 0l0 -8.125l2.046875 0l0 1.265625zm7.2492676 4.96875l2.0625 -6.234375l2.171875 0l-3.0 8.125l-2.484375 0l-3.0 -8.125l2.203125 0l2.046875 6.234375zm6.435364 -7.203125q-0.53125 0 -0.890625 -0.34375q-0.359375 -0.34375 -0.359375 -0.84375q0 -0.515625 0.359375 -0.859375q0.359375 -0.34375 0.890625 -0.34375q0.546875 0 0.90625 0.34375q0.359375 0.34375 0.359375 0.859375q0 0.5 -0.359375 0.84375q-0.359375 0.34375 -0.90625 0.34375zm1.015625 0.96875l0 8.125l-2.046875 0l0 -8.125l2.046875 0zm1.4963379 4.0625q0 -1.25 0.515625 -2.1875q0.515625 -0.953125 1.421875 -1.46875q0.90625 -0.53125 2.078125 -0.53125q1.515625 0 2.5 0.765625q0.984375 0.75 1.328125 2.109375l-2.21875 0q-0.171875 -0.53125 -0.59375 -0.828125q-0.421875 -0.296875 -1.03125 -0.296875q-0.875 0 -1.390625 0.640625q-0.515625 0.625 -0.515625 1.796875q0 1.15625 0.515625 1.796875q0.515625 0.640625 1.390625 0.640625q1.25 0 1.625 -1.109375l2.21875 0q-0.34375 1.3125 -1.34375 2.09375q-0.984375 0.765625 -2.484375 0.765625q-1.171875 0 -2.078125 -0.515625q-0.90625 -0.515625 -1.421875 -1.453125q-0.515625 -0.953125 -0.515625 -2.21875zm16.901215 -0.171875q0 0.4375 -0.0625 0.796875l-5.9375 0q0.078125 0.875 0.609375 1.375q0.546875 0.5 1.34375 0.5q1.140625 0 1.625 -0.984375l2.21875 0q-0.359375 1.171875 -1.359375 1.921875q-0.984375 0.75 -2.4375 0.75q-1.171875 0 -2.109375 -0.515625q-0.921875 -0.515625 -1.453125 -1.46875q-0.515625 -0.953125 -0.515625 -2.203125q0 -1.25 0.515625 -2.203125q0.515625 -0.953125 1.4375 -1.46875q0.921875 -0.515625 2.125 -0.515625q1.15625 0 2.0625 0.5q0.921875 0.5 1.421875 1.421875q0.515625 0.90625 0.515625 2.09375zm-2.125 -0.59375q-0.015625 -0.78125 -0.578125 -1.25q-0.546875 -0.484375 -1.359375 -0.484375q-0.765625 0 -1.28125 0.46875q-0.515625 0.453125 -0.640625 1.265625l3.859375 0z" fill-rule="nonzero"/></g><g filter="url(#shadowFilter-g2defaaf4e68_0_6.2)"/><defs><filter id="shadowFilter-g2defaaf4e68_0_6.2" filterUnits="userSpaceOnUse"><feGaussianBlur in="SourceAlpha" stdDeviation="4.0" result="blur"/><feComponentTransfer in="blur" color-interpolation-filters="sRGB"><feFuncR type="linear"/><feFuncG type="linear"/><feFuncB type="linear"/><feFuncA type="linear"/></feComponentTransfer></filter></defs><g id="g2defaaf4e68_0_6.2"><path fill="#ffffff" d="m323.74063 366.75375l0 0c0 -5.3026123 4.2986145 -9.601257 9.601227 -9.601257l100.797516 0c2.5464172 0 4.9885254 1.0115662 6.7891235 2.8121643c1.8005676 1.8005676 2.8121338 4.242676 2.8121338 6.789093l0 38.40381c0 5.3026123 -4.2986145 9.601257 -9.601257 9.601257l-100.797516 0c-5.3026123 0 -9.601227 -4.298645 -9.601227 -9.601257z" fill-rule="evenodd"/><path stroke="#000000" stroke-width="2.0" stroke-linejoin="round" stroke-linecap="butt" d="m323.74063 366.75375l0 0c0 -5.3026123 4.2986145 -9.601257 9.601227 -9.601257l100.797516 0c2.5464172 0 4.9885254 1.0115662 6.7891235 2.8121643c1.8005676 1.8005676 2.8121338 4.242676 2.8121338 6.789093l0 38.40381c0 5.3026123 -4.2986145 9.601257 -9.601257 9.601257l-100.797516 0c-5.3026123 0 -9.601227 -4.298645 -9.601227 -9.601257z" fill-rule="evenodd"/><path fill="#000000" d="m357.747 371.80127l0 10.234375l-2.046875 0l0 -10.234375l2.046875 0zm6.5275574 2.0q1.453125 0 2.34375 0.921875q0.890625 0.90625 0.890625 2.546875l0 4.765625l-2.046875 0l0 -4.484375q0 -0.96875 -0.484375 -1.484375q-0.484375 -0.53125 -1.328125 -0.53125q-0.84375 0 -1.34375 0.53125q-0.484375 0.515625 -0.484375 1.484375l0 4.484375l-2.046875 0l0 -8.125l2.046875 0l0 1.015625q0.40625 -0.53125 1.046875 -0.828125q0.640625 -0.296875 1.40625 -0.296875zm7.5784607 1.796875l0 3.9375q0 0.40625 0.1875 0.59375q0.203125 0.171875 0.671875 0.171875l0.953125 0l0 1.734375l-1.296875 0q-2.59375 0 -2.59375 -2.515625l0 -3.921875l-0.96875 0l0 -1.6875l0.96875 0l0 -2.0l2.078125 0l0 2.0l1.8125 0l0 1.6875l-1.8125 0zm10.8428955 2.203125q0 0.4375 -0.0625 0.796875l-5.9375 0q0.078125 0.875 0.609375 1.375q0.546875 0.5 1.34375 0.5q1.140625 0 1.625 -0.984375l2.21875 0q-0.359375 1.171875 -1.359375 1.921875q-0.984375 0.75 -2.4375 0.75q-1.171875 0 -2.109375 -0.515625q-0.921875 -0.515625 -1.453125 -1.46875q-0.515625 -0.953125 -0.515625 -2.203125q0 -1.25 0.515625 -2.203125q0.515625 -0.953125 1.4375 -1.46875q0.921875 -0.515625 2.125 -0.515625q1.15625 0 2.0625 0.5q0.921875 0.5 1.421875 1.421875q0.515625 0.90625 0.515625 2.09375zm-2.125 -0.59375q-0.015625 -0.78125 -0.578125 -1.25q-0.546875 -0.484375 -1.359375 -0.484375q-0.765625 0 -1.28125 0.46875q-0.515625 0.453125 -0.640625 1.265625l3.859375 0zm5.667938 -2.03125q0.390625 -0.640625 1.03125 -1.0q0.640625 -0.375 1.46875 -0.375l0 2.15625l-0.546875 0q-0.96875 0 -1.46875 0.453125q-0.484375 0.453125 -0.484375 1.578125l0 4.046875l-2.046875 0l0 -8.125l2.046875 0l0 1.265625zm8.374268 -1.375q1.453125 0 2.34375 0.921875q0.890625 0.90625 0.890625 2.546875l0 4.765625l-2.046875 0l0 -4.484375q0 -0.96875 -0.484375 -1.484375q-0.484375 -0.53125 -1.328125 -0.53125q-0.84375 0 -1.34375 0.53125q-0.484375 0.515625 -0.484375 1.484375l0 4.484375l-2.046875 0l0 -8.125l2.046875 0l0 1.015625q0.40625 -0.53125 1.046875 -0.828125q0.640625 -0.296875 1.40625 -0.296875zm4.656555 4.140625q0 -1.21875 0.484375 -2.171875q0.5 -0.953125 1.34375 -1.46875q0.84375 -0.515625 1.875 -0.515625q0.90625 0 1.59375 0.375q0.6875 0.359375 1.09375 0.90625l0 -1.15625l2.0625 0l0 8.125l-2.0625 0l0 -1.1875q-0.390625 0.578125 -1.09375 0.953125q-0.703125 0.359375 -1.609375 0.359375q-1.015625 0 -1.859375 -0.515625q-0.84375 -0.53125 -1.34375 -1.484375q-0.484375 -0.96875 -0.484375 -2.21875zm6.390625 0.03125q0 -0.75 -0.296875 -1.28125q-0.296875 -0.53125 -0.796875 -0.8125q-0.484375 -0.296875 -1.0625 -0.296875q-0.578125 0 -1.0625 0.28125q-0.46875 0.28125 -0.78125 0.8125q-0.296875 0.53125 -0.296875 1.265625q0 0.734375 0.296875 1.296875q0.3125 0.546875 0.796875 0.84375q0.484375 0.28125 1.046875 0.28125q0.578125 0 1.0625 -0.28125q0.5 -0.296875 0.796875 -0.828125q0.296875 -0.53125 0.296875 -1.28125zm6.124481 -6.78125l0 10.84375l-2.046875 0l0 -10.84375l2.046875 0z" fill-rule="nonzero"/><path fill="#000000" d="m360.7802 391.91064l0 8.125l-2.078125 0l0 -1.25q-0.375 0.65625 -1.03125 1.015625q-0.65625 0.34375 -1.5 0.34375q-0.640625 0 -1.09375 -0.28125l0 4.046875l-2.046875 0l0 -12.0l2.046875 0l0 4.46875q0 0.953125 0.484375 1.46875q0.5 0.515625 1.328125 0.515625q0.84375 0 1.328125 -0.515625q0.484375 -0.515625 0.484375 -1.46875l0 -4.46875l2.078125 0zm5.218231 8.25q-1.0 0 -1.796875 -0.359375q-0.796875 -0.359375 -1.265625 -0.96875q-0.453125 -0.609375 -0.484375 -1.359375l2.0625 0q0.0625 0.46875 0.453125 0.78125q0.40625 0.296875 1.015625 0.296875q0.578125 0 0.90625 -0.234375q0.328125 -0.234375 0.328125 -0.59375q0 -0.40625 -0.40625 -0.59375q-0.390625 -0.203125 -1.265625 -0.4375q-0.921875 -0.21875 -1.5 -0.453125q-0.578125 -0.234375 -1.0 -0.71875q-0.40625 -0.484375 -0.40625 -1.296875q0 -0.6875 0.375 -1.234375q0.390625 -0.5625 1.109375 -0.875q0.734375 -0.328125 1.71875 -0.328125q1.453125 0 2.3125 0.734375q0.875 0.71875 0.953125 1.953125l-1.953125 0q-0.046875 -0.484375 -0.40625 -0.765625q-0.359375 -0.296875 -0.96875 -0.296875q-0.546875 0 -0.859375 0.203125q-0.296875 0.203125 -0.296875 0.578125q0 0.40625 0.40625 0.625q0.421875 0.203125 1.28125 0.421875q0.875 0.21875 1.453125 0.453125q0.578125 0.234375 0.984375 0.734375q0.421875 0.484375 0.4375 1.296875q0 0.703125 -0.390625 1.265625q-0.390625 0.546875 -1.125 0.859375q-0.71875 0.3125 -1.671875 0.3125zm12.425171 -4.359375q0 0.4375 -0.0625 0.796875l-5.9375 0q0.078125 0.875 0.609375 1.375q0.546875 0.5 1.34375 0.5q1.140625 0 1.625 -0.984375l2.21875 0q-0.359375 1.171875 -1.359375 1.921875q-0.984375 0.75 -2.4375 0.75q-1.171875 0 -2.109375 -0.515625q-0.921875 -0.515625 -1.453125 -1.46875q-0.515625 -0.953125 -0.515625 -2.203125q0 -1.25 0.515625 -2.203125q0.515625 -0.953125 1.4375 -1.46875q0.921875 -0.515625 2.125 -0.515625q1.15625 0 2.0625 0.5q0.921875 0.5 1.421875 1.421875q0.515625 0.90625 0.515625 2.09375zm-2.125 -0.59375q-0.015625 -0.78125 -0.578125 -1.25q-0.546875 -0.484375 -1.359375 -0.484375q-0.765625 0 -1.28125 0.46875q-0.515625 0.453125 -0.640625 1.265625l3.859375 0zm5.667938 -2.03125q0.390625 -0.640625 1.03125 -1.0q0.640625 -0.375 1.46875 -0.375l0 2.15625l-0.546875 0q-0.96875 0 -1.46875 0.453125q-0.484375 0.453125 -0.484375 1.578125l0 4.046875l-2.046875 0l0 -8.125l2.046875 0l0 1.265625zm7.2492676 4.96875l2.0625 -6.234375l2.171875 0l-3.0 8.125l-2.484375 0l-3.0 -8.125l2.203125 0l2.046875 6.234375zm6.435364 -7.203125q-0.53125 0 -0.890625 -0.34375q-0.359375 -0.34375 -0.359375 -0.84375q0 -0.515625 0.359375 -0.859375q0.359375 -0.34375 0.890625 -0.34375q0.546875 0 0.90625 0.34375q0.359375 0.34375 0.359375 0.859375q0 0.5 -0.359375 0.84375q-0.359375 0.34375 -0.90625 0.34375zm1.015625 0.96875l0 8.125l-2.046875 0l0 -8.125l2.046875 0zm1.4963379 4.0625q0 -1.25 0.515625 -2.1875q0.515625 -0.953125 1.421875 -1.46875q0.90625 -0.53125 2.078125 -0.53125q1.515625 0 2.5 0.765625q0.984375 0.75 1.328125 2.109375l-2.21875 0q-0.171875 -0.53125 -0.59375 -0.828125q-0.421875 -0.296875 -1.03125 -0.296875q-0.875 0 -1.390625 0.640625q-0.515625 0.625 -0.515625 1.796875q0 1.15625 0.515625 1.796875q0.515625 0.640625 1.390625 0.640625q1.25 0 1.625 -1.109375l2.21875 0q-0.34375 1.3125 -1.34375 2.09375q-0.984375 0.765625 -2.484375 0.765625q-1.171875 0 -2.078125 -0.515625q-0.90625 -0.515625 -1.421875 -1.453125q-0.515625 -0.953125 -0.515625 -2.21875zm16.901215 -0.171875q0 0.4375 -0.0625 0.796875l-5.9375 0q0.078125 0.875 0.609375 1.375q0.546875 0.5 1.34375 0.5q1.140625 0 1.625 -0.984375l2.21875 0q-0.359375 1.171875 -1.359375 1.921875q-0.984375 0.75 -2.4375 0.75q-1.171875 0 -2.109375 -0.515625q-0.921875 -0.515625 -1.453125 -1.46875q-0.515625 -0.953125 -0.515625 -2.203125q0 -1.25 0.515625 -2.203125q0.515625 -0.953125 1.4375 -1.46875q0.921875 -0.515625 2.125 -0.515625q1.15625 0 2.0625 0.5q0.921875 0.5 1.421875 1.421875q0.515625 0.90625 0.515625 2.09375zm-2.125 -0.59375q-0.015625 -0.78125 -0.578125 -1.25q-0.546875 -0.484375 -1.359375 -0.484375q-0.765625 0 -1.28125 0.46875q-0.515625 0.453125 -0.640625 1.265625l3.859375 0z" fill-rule="nonzero"/></g><path fill="#000000" fill-opacity="0.0" d="m465.82672 230.51512l0 0c5.0913086 0 9.974121 2.0225067 13.574219 5.6226196c3.6000977 3.600113 5.6226196 8.482895 5.6226196 13.574219l0 53.76378c0 10.602142 8.594727 19.196869 19.196869 19.196869l0 0c-10.602142 0 -19.196869 8.594696 -19.196869 19.196838l0 53.763763c0 10.602142 -8.594727 19.196869 -19.196838 19.196869z" fill-rule="evenodd"/><path fill="#000000" fill-opacity="0.0" d="m465.82672 230.51512l0 0c5.0913086 0 9.974121 2.0225067 13.574219 5.6226196c3.6000977 3.600113 5.6226196 8.482895 5.6226196 13.574219l0 53.76378c0 10.602142 8.594727 19.196869 19.196869 19.196869l0 0c-10.602142 0 -19.196869 8.594696 -19.196869 19.196838l0 53.763763c0 10.602142 -8.594727 19.196869 -19.196838 19.196869" fill-rule="evenodd"/><path stroke="#000000" stroke-width="4.0" stroke-linejoin="round" stroke-linecap="butt" d="m465.82672 230.51512l0 0c5.0913086 0 9.974121 2.0225067 13.574219 5.6226196c3.6000977 3.600113 5.6226196 8.482895 5.6226196 13.574219l0 53.76378c0 10.602142 8.594727 19.196869 19.196869 19.196869l0 0c-10.602142 0 -19.196869 8.594696 -19.196869 19.196838l0 53.763763c0 10.602142 -8.594727 19.196869 -19.196838 19.196869" fill-rule="evenodd"/><path fill="#000000" fill-opacity="0.0" d="m383.74063 182.7761l0.4409485 48.0" fill-rule="evenodd"/><path stroke="#000000" stroke-width="2.0" stroke-linejoin="round" stroke-linecap="butt" d="m383.7406 182.77608l0.330719 36.00052" fill-rule="evenodd"/><path fill="#000000" stroke="#000000" stroke-width="2.0" stroke-linecap="butt" d="m380.768 218.80693l3.3866882 9.045471l3.2199402 -9.106155z" fill-rule="evenodd"/><path fill="#000000" fill-opacity="0.0" d="m505.6561 293.37622l119.49606 0l0 60.126007l-119.49606 0z" fill-rule="evenodd"/><path fill="#000000" d="m515.17175 323.59424q0 -1.515625 0.671875 -2.703125q0.6875 -1.203125 1.859375 -1.859375q1.1875 -0.671875 2.65625 -0.671875q1.71875 0 3.0 0.875q1.296875 0.875 1.8125 2.4375l-2.359375 0q-0.359375 -0.734375 -1.0 -1.09375q-0.640625 -0.375 -1.46875 -0.375q-0.890625 0 -1.59375 0.421875q-0.6875 0.40625 -1.078125 1.171875q-0.390625 0.765625 -0.390625 1.796875q0 1.0 0.390625 1.78125q0.390625 0.765625 1.078125 1.1875q0.703125 0.40625 1.59375 0.40625q0.828125 0 1.46875 -0.359375q0.640625 -0.375 1.0 -1.109375l2.359375 0q-0.515625 1.5625 -1.796875 2.4375q-1.28125 0.875 -3.015625 0.875q-1.46875 0 -2.65625 -0.671875q-1.171875 -0.671875 -1.859375 -1.859375q-0.671875 -1.1875 -0.671875 -2.6875zm11.2247925 1.03125q0 -1.21875 0.484375 -2.171875q0.5 -0.953125 1.34375 -1.46875q0.84375 -0.515625 1.875 -0.515625q0.90625 0 1.59375 0.375q0.6875 0.359375 1.09375 0.90625l0 -1.15625l2.0625 0l0 8.125l-2.0625 0l0 -1.1875q-0.390625 0.578125 -1.09375 0.953125q-0.703125 0.359375 -1.609375 0.359375q-1.015625 0 -1.859375 -0.515625q-0.84375 -0.53125 -1.34375 -1.484375q-0.484375 -0.96875 -0.484375 -2.21875zm6.390625 0.03125q0 -0.75 -0.296875 -1.28125q-0.296875 -0.53125 -0.796875 -0.8125q-0.484375 -0.296875 -1.0625 -0.296875q-0.578125 0 -1.0625 0.28125q-0.46875 0.28125 -0.78125 0.8125q-0.296875 0.53125 -0.296875 1.265625q0 0.734375 0.296875 1.296875q0.3125 0.546875 0.796875 0.84375q0.484375 0.28125 1.046875 0.28125q0.578125 0 1.0625 -0.28125q0.5 -0.296875 0.796875 -0.828125q0.296875 -0.53125 0.296875 -1.28125zm6.1244507 -6.78125l0 10.84375l-2.046875 0l0 -10.84375l2.046875 0zm4.074463 0l0 10.84375l-2.046875 0l0 -10.84375l2.046875 0zm4.984497 6.78125q0 -1.25 0.515625 -2.1875q0.515625 -0.953125 1.421875 -1.46875q0.90625 -0.53125 2.078125 -0.53125q1.515625 0 2.5 0.765625q0.984375 0.75 1.328125 2.109375l-2.21875 0q-0.171875 -0.53125 -0.59375 -0.828125q-0.421875 -0.296875 -1.03125 -0.296875q-0.875 0 -1.390625 0.640625q-0.515625 0.625 -0.515625 1.796875q0 1.15625 0.515625 1.796875q0.515625 0.640625 1.390625 0.640625q1.25 0 1.625 -1.109375l2.21875 0q-0.34375 1.3125 -1.34375 2.09375q-0.984375 0.765625 -2.484375 0.765625q-1.171875 0 -2.078125 -0.515625q-0.90625 -0.515625 -1.421875 -1.453125q-0.515625 -0.953125 -0.515625 -2.21875zm13.91687 -4.171875q0.921875 0 1.640625 0.40625q0.71875 0.390625 1.125 1.1875q0.40625 0.78125 0.40625 1.875l0 4.765625l-2.046875 0l0 -4.484375q0 -0.96875 -0.484375 -1.484375q-0.484375 -0.53125 -1.328125 -0.53125q-0.84375 0 -1.34375 0.53125q-0.484375 0.515625 -0.484375 1.484375l0 4.484375l-2.046875 0l0 -10.84375l2.046875 0l0 3.734375q0.390625 -0.53125 1.046875 -0.828125q0.671875 -0.296875 1.46875 -0.296875zm4.594055 4.140625q0 -1.21875 0.484375 -2.171875q0.5 -0.953125 1.34375 -1.46875q0.84375 -0.515625 1.875 -0.515625q0.90625 0 1.59375 0.375q0.6875 0.359375 1.09375 0.90625l0 -1.15625l2.0625 0l0 8.125l-2.0625 0l0 -1.1875q-0.390625 0.578125 -1.09375 0.953125q-0.703125 0.359375 -1.609375 0.359375q-1.015625 0 -1.859375 -0.515625q-0.84375 -0.53125 -1.34375 -1.484375q-0.484375 -0.96875 -0.484375 -2.21875zm6.390625 0.03125q0 -0.75 -0.296875 -1.28125q-0.296875 -0.53125 -0.796875 -0.8125q-0.484375 -0.296875 -1.0625 -0.296875q-0.578125 0 -1.0625 0.28125q-0.46875 0.28125 -0.78125 0.8125q-0.296875 0.53125 -0.296875 1.265625q0 0.734375 0.296875 1.296875q0.3125 0.546875 0.796875 0.84375q0.484375 0.28125 1.046875 0.28125q0.578125 0 1.0625 -0.28125q0.5 -0.296875 0.796875 -0.828125q0.296875 -0.53125 0.296875 -1.28125zm5.1088867 -5.03125q-0.53125 0 -0.890625 -0.34375q-0.359375 -0.34375 -0.359375 -0.84375q0 -0.515625 0.359375 -0.859375q0.359375 -0.34375 0.890625 -0.34375q0.546875 0 0.90625 0.34375q0.359375 0.34375 0.359375 0.859375q0 0.5 -0.359375 0.84375q-0.359375 0.34375 -0.90625 0.34375zm1.015625 0.96875l0 8.125l-2.046875 0l0 -8.125l2.046875 0zm6.527527 -0.109375q1.453125 0 2.34375 0.921875q0.890625 0.90625 0.890625 2.546875l0 4.765625l-2.046875 0l0 -4.484375q0 -0.96875 -0.484375 -1.484375q-0.484375 -0.53125 -1.328125 -0.53125q-0.84375 0 -1.34375 0.53125q-0.484375 0.515625 -0.484375 1.484375l0 4.484375l-2.046875 0l0 -8.125l2.046875 0l0 1.015625q0.40625 -0.53125 1.046875 -0.828125q0.640625 -0.296875 1.40625 -0.296875z" fill-rule="nonzero"/><g filter="url(#shadowFilter-g2defaaf4e68_0_6.3)"/><defs><filter id="shadowFilter-g2defaaf4e68_0_6.3" filterUnits="userSpaceOnUse"><feGaussianBlur in="SourceAlpha" stdDeviation="4.0" result="blur"/><feComponentTransfer in="blur" color-interpolation-filters="sRGB"><feFuncR type="linear"/><feFuncG type="linear"/><feFuncB type="linear"/><feFuncA type="linear"/></feComponentTransfer></filter></defs><g id="g2defaaf4e68_0_6.3"><path fill="#ffffff" d="m323.74063 134.77103l0 0c0 -5.3026123 4.2986145 -9.601234 9.601227 -9.601234l100.797516 0c2.5464172 0 4.9885254 1.0115509 6.7891235 2.8121338c1.8005676 1.8005905 2.8121338 4.2426987 2.8121338 6.7891006l0 38.403824c0 5.3026123 -4.2986145 9.601242 -9.601257 9.601242l-100.797516 0c-5.3026123 0 -9.601227 -4.2986298 -9.601227 -9.601242z" fill-rule="evenodd"/><path stroke="#000000" stroke-width="2.0" stroke-linejoin="round" stroke-linecap="butt" d="m323.74063 134.77103l0 0c0 -5.3026123 4.2986145 -9.601234 9.601227 -9.601234l100.797516 0c2.5464172 0 4.9885254 1.0115509 6.7891235 2.8121338c1.8005676 1.8005905 2.8121338 4.2426987 2.8121338 6.7891006l0 38.403824c0 5.3026123 -4.2986145 9.601242 -9.601257 9.601242l-100.797516 0c-5.3026123 0 -9.601227 -4.2986298 -9.601227 -9.601242z" fill-rule="evenodd"/><path fill="#000000" d="m379.28217 148.09981l-4.078125 0l-0.671875 1.953125l-2.15625 0l3.6875 -10.25l2.390625 0l3.671875 10.25l-2.171875 0l-0.671875 -1.953125zm-0.546875 -1.640625l-1.484375 -4.28125l-1.484375 4.28125l2.96875 0zm12.228302 -3.46875q0 0.8125 -0.390625 1.53125q-0.390625 0.71875 -1.21875 1.171875q-0.828125 0.4375 -2.078125 0.4375l-1.71875 0l0 3.921875l-2.046875 0l0 -10.234375l3.765625 0q1.1875 0 2.015625 0.421875q0.84375 0.40625 1.25 1.125q0.421875 0.71875 0.421875 1.625zm-3.78125 1.484375q0.859375 0 1.265625 -0.390625q0.40625 -0.390625 0.40625 -1.09375q0 -1.5 -1.671875 -1.5l-1.625 0l0 2.984375l1.625 0zm7.2860413 -4.65625l0 10.234375l-2.046875 0l0 -10.234375l2.046875 0z" fill-rule="nonzero"/><path fill="#000000" d="m360.7802 159.92793l0 8.125l-2.078125 0l0 -1.25q-0.375 0.65625 -1.03125 1.015625q-0.65625 0.34375 -1.5 0.34375q-0.640625 0 -1.09375 -0.28125l0 4.046875l-2.046875 0l0 -12.0l2.046875 0l0 4.46875q0 0.953125 0.484375 1.46875q0.5 0.515625 1.328125 0.515625q0.84375 0 1.328125 -0.515625q0.484375 -0.515625 0.484375 -1.46875l0 -4.46875l2.078125 0zm5.218231 8.25q-1.0 0 -1.796875 -0.359375q-0.796875 -0.359375 -1.265625 -0.96875q-0.453125 -0.609375 -0.484375 -1.359375l2.0625 0q0.0625 0.46875 0.453125 0.78125q0.40625 0.296875 1.015625 0.296875q0.578125 0 0.90625 -0.234375q0.328125 -0.234375 0.328125 -0.59375q0 -0.40625 -0.40625 -0.59375q-0.390625 -0.203125 -1.265625 -0.4375q-0.921875 -0.21875 -1.5 -0.453125q-0.578125 -0.234375 -1.0 -0.71875q-0.40625 -0.484375 -0.40625 -1.296875q0 -0.6875 0.375 -1.234375q0.390625 -0.5625 1.109375 -0.875q0.734375 -0.328125 1.71875 -0.328125q1.453125 0 2.3125 0.734375q0.875 0.71875 0.953125 1.953125l-1.953125 0q-0.046875 -0.484375 -0.40625 -0.765625q-0.359375 -0.296875 -0.96875 -0.296875q-0.546875 0 -0.859375 0.203125q-0.296875 0.203125 -0.296875 0.578125q0 0.40625 0.40625 0.625q0.421875 0.203125 1.28125 0.421875q0.875 0.21875 1.453125 0.453125q0.578125 0.234375 0.984375 0.734375q0.421875 0.484375 0.4375 1.296875q0 0.703125 -0.390625 1.265625q-0.390625 0.546875 -1.125 0.859375q-0.71875 0.3125 -1.671875 0.3125zm12.425171 -4.359375q0 0.4375 -0.0625 0.796875l-5.9375 0q0.078125 0.875 0.609375 1.375q0.546875 0.5 1.34375 0.5q1.140625 0 1.625 -0.984375l2.21875 0q-0.359375 1.171875 -1.359375 1.921875q-0.984375 0.75 -2.4375 0.75q-1.171875 0 -2.109375 -0.515625q-0.921875 -0.515625 -1.453125 -1.46875q-0.515625 -0.953125 -0.515625 -2.203125q0 -1.25 0.515625 -2.203125q0.515625 -0.953125 1.4375 -1.46875q0.921875 -0.515625 2.125 -0.515625q1.15625 0 2.0625 0.5q0.921875 0.5 1.421875 1.421875q0.515625 0.90625 0.515625 2.09375zm-2.125 -0.59375q-0.015625 -0.78125 -0.578125 -1.25q-0.546875 -0.484375 -1.359375 -0.484375q-0.765625 0 -1.28125 0.46875q-0.515625 0.453125 -0.640625 1.265625l3.859375 0zm5.667938 -2.03125q0.390625 -0.640625 1.03125 -1.0q0.640625 -0.375 1.46875 -0.375l0 2.15625l-0.546875 0q-0.96875 0 -1.46875 0.453125q-0.484375 0.453125 -0.484375 1.578125l0 4.046875l-2.046875 0l0 -8.125l2.046875 0l0 1.265625zm7.2492676 4.96875l2.0625 -6.234375l2.171875 0l-3.0 8.125l-2.484375 0l-3.0 -8.125l2.203125 0l2.046875 6.234375zm6.435364 -7.203125q-0.53125 0 -0.890625 -0.34375q-0.359375 -0.34375 -0.359375 -0.84375q0 -0.515625 0.359375 -0.859375q0.359375 -0.34375 0.890625 -0.34375q0.546875 0 0.90625 0.34375q0.359375 0.34375 0.359375 0.859375q0 0.5 -0.359375 0.84375q-0.359375 0.34375 -0.90625 0.34375zm1.015625 0.96875l0 8.125l-2.046875 0l0 -8.125l2.046875 0zm1.4963379 4.0625q0 -1.25 0.515625 -2.1875q0.515625 -0.953125 1.421875 -1.46875q0.90625 -0.53125 2.078125 -0.53125q1.515625 0 2.5 0.765625q0.984375 0.75 1.328125 2.109375l-2.21875 0q-0.171875 -0.53125 -0.59375 -0.828125q-0.421875 -0.296875 -1.03125 -0.296875q-0.875 0 -1.390625 0.640625q-0.515625 0.625 -0.515625 1.796875q0 1.15625 0.515625 1.796875q0.515625 0.640625 1.390625 0.640625q1.25 0 1.625 -1.109375l2.21875 0q-0.34375 1.3125 -1.34375 2.09375q-0.984375 0.765625 -2.484375 0.765625q-1.171875 0 -2.078125 -0.515625q-0.90625 -0.515625 -1.421875 -1.453125q-0.515625 -0.953125 -0.515625 -2.21875zm16.901215 -0.171875q0 0.4375 -0.0625 0.796875l-5.9375 0q0.078125 0.875 0.609375 1.375q0.546875 0.5 1.34375 0.5q1.140625 0 1.625 -0.984375l2.21875 0q-0.359375 1.171875 -1.359375 1.921875q-0.984375 0.75 -2.4375 0.75q-1.171875 0 -2.109375 -0.515625q-0.921875 -0.515625 -1.453125 -1.46875q-0.515625 -0.953125 -0.515625 -2.203125q0 -1.25 0.515625 -2.203125q0.515625 -0.953125 1.4375 -1.46875q0.921875 -0.515625 2.125 -0.515625q1.15625 0 2.0625 0.5q0.921875 0.5 1.421875 1.421875q0.515625 0.90625 0.515625 2.09375zm-2.125 -0.59375q-0.015625 -0.78125 -0.578125 -1.25q-0.546875 -0.484375 -1.359375 -0.484375q-0.765625 0 -1.28125 0.46875q-0.515625 0.453125 -0.640625 1.265625l3.859375 0z" fill-rule="nonzero"/></g><path fill="#000000" fill-opacity="0.0" d="m380.06036 306.05124l0 0c0 -1.8525696 1.5018005 -3.3543396 3.3543396 -3.3543396l0 0c0.8896179 0 1.7427979 0.35339355 2.3718567 0.9824524c0.62905884 0.62905884 0.9824829 1.4822388 0.9824829 2.3718872l0 0c0 1.8525391 -1.5018005 3.354309 -3.3543396 3.354309l0 0c-1.8525391 0 -3.3543396 -1.50177 -3.3543396 -3.354309z" fill-rule="evenodd"/><path stroke="#000000" stroke-width="1.0" stroke-linejoin="round" stroke-linecap="butt" d="m380.06036 306.05124l0 0c0 -1.8525696 1.5018005 -3.3543396 3.3543396 -3.3543396l0 0c0.8896179 0 1.7427979 0.35339355 2.3718567 0.9824524c0.62905884 0.62905884 0.9824829 1.4822388 0.9824829 2.3718872l0 0c0 1.8525391 -1.5018005 3.354309 -3.3543396 3.354309l0 0c-1.8525391 0 -3.3543396 -1.50177 -3.3543396 -3.354309z" fill-rule="evenodd"/><path fill="#000000" fill-opacity="0.0" d="m380.06036 317.87692l0 0c0 -1.8525391 1.5018005 -3.3543396 3.3543396 -3.3543396l0 0c0.8896179 0 1.7427979 0.35342407 2.3718567 0.9824829c0.62905884 0.62905884 0.9824829 1.4822388 0.9824829 2.3718567l0 0c0 1.8525391 -1.5018005 3.3543396 -3.3543396 3.3543396l0 0c-1.8525391 0 -3.3543396 -1.5018005 -3.3543396 -3.3543396z" fill-rule="evenodd"/><path stroke="#000000" stroke-width="1.0" stroke-linejoin="round" stroke-linecap="butt" d="m380.06036 317.87692l0 0c0 -1.8525391 1.5018005 -3.3543396 3.3543396 -3.3543396l0 0c0.8896179 0 1.7427979 0.35342407 2.3718567 0.9824829c0.62905884 0.62905884 0.9824829 1.4822388 0.9824829 2.3718567l0 0c0 1.8525391 -1.5018005 3.3543396 -3.3543396 3.3543396l0 0c-1.8525391 0 -3.3543396 -1.5018005 -3.3543396 -3.3543396z" fill-rule="evenodd"/><path fill="#000000" fill-opacity="0.0" d="m380.06036 329.47296l0 0c0 -1.8525391 1.5018005 -3.3543396 3.3543396 -3.3543396l0 0c0.8896179 0 1.7427979 0.35342407 2.3718567 0.9824829c0.62905884 0.62905884 0.9824829 1.4822388 0.9824829 2.3718567l0 0c0 1.8525391 -1.5018005 3.3543396 -3.3543396 3.3543396l0 0c-1.8525391 0 -3.3543396 -1.5018005 -3.3543396 -3.3543396z" fill-rule="evenodd"/><path stroke="#000000" stroke-width="1.0" stroke-linejoin="round" stroke-linecap="butt" d="m380.06036 329.47296l0 0c0 -1.8525391 1.5018005 -3.3543396 3.3543396 -3.3543396l0 0c0.8896179 0 1.7427979 0.35342407 2.3718567 0.9824829c0.62905884 0.62905884 0.9824829 1.4822388 0.9824829 2.3718567l0 0c0 1.8525391 -1.5018005 3.3543396 -3.3543396 3.3543396l0 0c-1.8525391 0 -3.3543396 -1.5018005 -3.3543396 -3.3543396z" fill-rule="evenodd"/><path fill="#000000" fill-opacity="0.0" d="m383.74063 288.3761l-0.09448242 14.141724" fill-rule="evenodd"/><path stroke="#000000" stroke-width="2.0" stroke-linejoin="round" stroke-linecap="butt" d="m383.74063 288.3761l-0.09448242 14.141724" fill-rule="evenodd"/><path fill="#000000" fill-opacity="0.0" d="m383.4147 332.8273l0.3149414 24.0" fill-rule="evenodd"/><path stroke="#000000" stroke-width="2.0" stroke-linejoin="round" stroke-linecap="butt" d="m383.4147 332.82727l0.1574707 12.001068" fill-rule="evenodd"/><path fill="#000000" stroke="#000000" stroke-width="2.0" stroke-linecap="butt" d="m380.269 344.87167l3.4222717 9.032074l3.184082 -9.118744z" fill-rule="evenodd"/><g filter="url(#shadowFilter-g2defaaf4e68_0_6.4)"/><defs><filter id="shadowFilter-g2defaaf4e68_0_6.4" filterUnits="userSpaceOnUse"><feGaussianBlur in="SourceAlpha" stdDeviation="4.0" result="blur"/><feComponentTransfer in="blur" color-interpolation-filters="sRGB"><feFuncR type="linear"/><feFuncG type="linear"/><feFuncB type="linear"/><feFuncA type="linear"/></feComponentTransfer></filter></defs><g id="g2defaaf4e68_0_6.4"><path fill="#ffffff" d="m576.3858 134.77316l0 0c0 -5.3026276 4.298645 -9.60125 9.601257 -9.60125l110.40381 0c2.5464478 0 4.9885254 1.0115585 6.7891235 2.8121414c1.8005981 1.8005829 2.8121338 4.242691 2.8121338 6.7891083l0 38.40381c0 5.3026276 -4.298645 9.601242 -9.601257 9.601242l-110.40381 0c-5.3026123 0 -9.601257 -4.2986145 -9.601257 -9.601242z" fill-rule="evenodd"/><path stroke="#000000" stroke-width="2.0" stroke-linejoin="round" stroke-linecap="butt" d="m576.3858 134.77316l0 0c0 -5.3026276 4.298645 -9.60125 9.601257 -9.60125l110.40381 0c2.5464478 0 4.9885254 1.0115585 6.7891235 2.8121414c1.8005981 1.8005829 2.8121338 4.242691 2.8121338 6.7891083l0 38.40381c0 5.3026276 -4.298645 9.601242 -9.601257 9.601242l-110.40381 0c-5.3026123 0 -9.601257 -4.2986145 -9.601257 -9.601242z" fill-rule="evenodd"/><path fill="#000000" d="m604.3827 139.8207l0 1.65625l-2.71875 0l0 8.578125l-2.0625 0l0 -8.578125l-2.71875 0l0 -1.65625l7.5 0zm3.550476 3.375q0.390625 -0.640625 1.03125 -1.0q0.640625 -0.375 1.46875 -0.375l0 2.15625l-0.546875 0q-0.96875 0 -1.46875 0.453125q-0.484375 0.453125 -0.484375 1.578125l0 4.046875l-2.046875 0l0 -8.125l2.046875 0l0 1.265625zm3.3430176 2.765625q0 -1.21875 0.484375 -2.171875q0.5 -0.953125 1.34375 -1.46875q0.84375 -0.515625 1.875 -0.515625q0.90625 0 1.59375 0.375q0.6875 0.359375 1.09375 0.90625l0 -1.15625l2.0625 0l0 8.125l-2.0625 0l0 -1.1875q-0.390625 0.578125 -1.09375 0.953125q-0.703125 0.359375 -1.609375 0.359375q-1.015625 0 -1.859375 -0.515625q-0.84375 -0.53125 -1.34375 -1.484375q-0.484375 -0.96875 -0.484375 -2.21875zm6.390625 0.03125q0 -0.75 -0.296875 -1.28125q-0.296875 -0.53125 -0.796875 -0.8125q-0.484375 -0.296875 -1.0625 -0.296875q-0.578125 0 -1.0625 0.28125q-0.46875 0.28125 -0.78125 0.8125q-0.296875 0.53125 -0.296875 1.265625q0 0.734375 0.296875 1.296875q0.3125 0.546875 0.796875 0.84375q0.484375 0.28125 1.046875 0.28125q0.578125 0 1.0625 -0.28125q0.5 -0.296875 0.796875 -0.828125q0.296875 -0.53125 0.296875 -1.28125zm8.577576 -4.171875q1.453125 0 2.34375 0.921875q0.890625 0.90625 0.890625 2.546875l0 4.765625l-2.046875 0l0 -4.484375q0 -0.96875 -0.484375 -1.484375q-0.484375 -0.53125 -1.328125 -0.53125q-0.84375 0 -1.34375 0.53125q-0.484375 0.515625 -0.484375 1.484375l0 4.484375l-2.046875 0l0 -8.125l2.046875 0l0 1.015625q0.40625 -0.53125 1.046875 -0.828125q0.640625 -0.296875 1.40625 -0.296875zm8.297241 8.359375q-1.0 0 -1.796875 -0.359375q-0.796875 -0.359375 -1.265625 -0.96875q-0.453125 -0.609375 -0.484375 -1.359375l2.0625 0q0.0625 0.46875 0.453125 0.78125q0.40625 0.296875 1.015625 0.296875q0.578125 0 0.90625 -0.234375q0.328125 -0.234375 0.328125 -0.59375q0 -0.40625 -0.40625 -0.59375q-0.390625 -0.203125 -1.265625 -0.4375q-0.921875 -0.21875 -1.5 -0.453125q-0.578125 -0.234375 -1.0 -0.71875q-0.40625 -0.484375 -0.40625 -1.296875q0 -0.6875 0.375 -1.234375q0.390625 -0.5625 1.109375 -0.875q0.734375 -0.328125 1.71875 -0.328125q1.453125 0 2.3125 0.734375q0.875 0.71875 0.953125 1.953125l-1.953125 0q-0.046875 -0.484375 -0.40625 -0.765625q-0.359375 -0.296875 -0.96875 -0.296875q-0.546875 0 -0.859375 0.203125q-0.296875 0.203125 -0.296875 0.578125q0 0.40625 0.40625 0.625q0.421875 0.203125 1.28125 0.421875q0.875 0.21875 1.453125 0.453125q0.578125 0.234375 0.984375 0.734375q0.421875 0.484375 0.4375 1.296875q0 0.703125 -0.390625 1.265625q-0.390625 0.546875 -1.125 0.859375q-0.71875 0.3125 -1.671875 0.3125zm4.347046 -4.21875q0 -1.21875 0.484375 -2.171875q0.5 -0.953125 1.34375 -1.46875q0.84375 -0.515625 1.875 -0.515625q0.90625 0 1.59375 0.375q0.6875 0.359375 1.09375 0.90625l0 -1.15625l2.0625 0l0 8.125l-2.0625 0l0 -1.1875q-0.390625 0.578125 -1.09375 0.953125q-0.703125 0.359375 -1.609375 0.359375q-1.015625 0 -1.859375 -0.515625q-0.84375 -0.53125 -1.34375 -1.484375q-0.484375 -0.96875 -0.484375 -2.21875zm6.390625 0.03125q0 -0.75 -0.296875 -1.28125q-0.296875 -0.53125 -0.796875 -0.8125q-0.484375 -0.296875 -1.0625 -0.296875q-0.578125 0 -1.0625 0.28125q-0.46875 0.28125 -0.78125 0.8125q-0.296875 0.53125 -0.296875 1.265625q0 0.734375 0.296875 1.296875q0.3125 0.546875 0.796875 0.84375q0.484375 0.28125 1.046875 0.28125q0.578125 0 1.0625 -0.28125q0.5 -0.296875 0.796875 -0.828125q0.296875 -0.53125 0.296875 -1.28125zm3.5463257 0q0 -1.25 0.515625 -2.1875q0.515625 -0.953125 1.421875 -1.46875q0.90625 -0.53125 2.078125 -0.53125q1.515625 0 2.5 0.765625q0.984375 0.75 1.328125 2.109375l-2.21875 0q-0.171875 -0.53125 -0.59375 -0.828125q-0.421875 -0.296875 -1.03125 -0.296875q-0.875 0 -1.390625 0.640625q-0.515625 0.625 -0.515625 1.796875q0 1.15625 0.515625 1.796875q0.515625 0.640625 1.390625 0.640625q1.25 0 1.625 -1.109375l2.21875 0q-0.34375 1.3125 -1.34375 2.09375q-0.984375 0.765625 -2.484375 0.765625q-1.171875 0 -2.078125 -0.515625q-0.90625 -0.515625 -1.421875 -1.453125q-0.515625 -0.953125 -0.515625 -2.21875zm11.744995 -2.375l0 3.9375q0 0.40625 0.1875 0.59375q0.203125 0.171875 0.671875 0.171875l0.953125 0l0 1.734375l-1.296875 0q-2.59375 0 -2.59375 -2.515625l0 -3.921875l-0.96875 0l0 -1.6875l0.96875 0l0 -2.0l2.078125 0l0 2.0l1.8125 0l0 1.6875l-1.8125 0zm4.3272705 -2.65625q-0.53125 0 -0.890625 -0.34375q-0.359375 -0.34375 -0.359375 -0.84375q0 -0.515625 0.359375 -0.859375q0.359375 -0.34375 0.890625 -0.34375q0.546875 0 0.90625 0.34375q0.359375 0.34375 0.359375 0.859375q0 0.5 -0.359375 0.84375q-0.359375 0.34375 -0.90625 0.34375zm1.015625 0.96875l0 8.125l-2.046875 0l0 -8.125l2.046875 0zm5.621338 8.25q-1.171875 0 -2.109375 -0.515625q-0.9375 -0.515625 -1.46875 -1.46875q-0.53125 -0.953125 -0.53125 -2.203125q0 -1.25 0.546875 -2.1875q0.546875 -0.953125 1.5 -1.46875q0.953125 -0.53125 2.125 -0.53125q1.171875 0 2.125 0.53125q0.953125 0.515625 1.5 1.46875q0.5625 0.9375 0.5625 2.1875q0 1.25 -0.578125 2.203125q-0.5625 0.953125 -1.53125 1.46875q-0.953125 0.515625 -2.140625 0.515625zm0 -1.78125q0.5625 0 1.046875 -0.265625q0.5 -0.28125 0.78125 -0.8125q0.296875 -0.546875 0.296875 -1.328125q0 -1.15625 -0.609375 -1.78125q-0.59375 -0.625 -1.484375 -0.625q-0.875 0 -1.46875 0.625q-0.59375 0.625 -0.59375 1.78125q0 1.15625 0.578125 1.78125q0.578125 0.625 1.453125 0.625zm10.256958 -6.578125q1.453125 0 2.34375 0.921875q0.890625 0.90625 0.890625 2.546875l0 4.765625l-2.046875 0l0 -4.484375q0 -0.96875 -0.484375 -1.484375q-0.484375 -0.53125 -1.328125 -0.53125q-0.84375 0 -1.34375 0.53125q-0.484375 0.515625 -0.484375 1.484375l0 4.484375l-2.046875 0l0 -8.125l2.046875 0l0 1.015625q0.40625 -0.53125 1.046875 -0.828125q0.640625 -0.296875 1.40625 -0.296875z" fill-rule="nonzero"/><path fill="#000000" d="m597.56024 157.8207l0 1.65625l-2.71875 0l0 8.578125l-2.0625 0l0 -8.578125l-2.71875 0l0 -1.65625l7.5 0zm5.09729 10.359375q-1.171875 0 -2.109375 -0.515625q-0.9375 -0.515625 -1.46875 -1.46875q-0.53125 -0.953125 -0.53125 -2.203125q0 -1.25 0.546875 -2.1875q0.546875 -0.953125 1.5 -1.46875q0.953125 -0.53125 2.125 -0.53125q1.171875 0 2.125 0.53125q0.953125 0.515625 1.5 1.46875q0.5625 0.9375 0.5625 2.1875q0 1.25 -0.578125 2.203125q-0.5625 0.953125 -1.53125 1.46875q-0.953125 0.515625 -2.140625 0.515625zm0 -1.78125q0.5625 0 1.046875 -0.265625q0.5 -0.28125 0.78125 -0.8125q0.296875 -0.546875 0.296875 -1.328125q0 -1.15625 -0.609375 -1.78125q-0.59375 -0.625 -1.484375 -0.625q-0.875 0 -1.46875 0.625q-0.59375 0.625 -0.59375 1.78125q0 1.15625 0.578125 1.78125q0.578125 0.625 1.453125 0.625zm10.553833 1.65625l-2.75 -3.453125l0 3.453125l-2.046875 0l0 -10.84375l2.046875 0l0 6.171875l2.734375 -3.453125l2.65625 0l-3.578125 4.078125l3.609375 4.046875l-2.671875 0zm11.309326 -4.234375q0 0.4375 -0.0625 0.796875l-5.9375 0q0.078125 0.875 0.609375 1.375q0.546875 0.5 1.34375 0.5q1.140625 0 1.625 -0.984375l2.21875 0q-0.359375 1.171875 -1.359375 1.921875q-0.984375 0.75 -2.4375 0.75q-1.171875 0 -2.109375 -0.515625q-0.921875 -0.515625 -1.453125 -1.46875q-0.515625 -0.953125 -0.515625 -2.203125q0 -1.25 0.515625 -2.203125q0.515625 -0.953125 1.4375 -1.46875q0.921875 -0.515625 2.125 -0.515625q1.15625 0 2.0625 0.5q0.921875 0.5 1.421875 1.421875q0.515625 0.90625 0.515625 2.09375zm-2.125 -0.59375q-0.015625 -0.78125 -0.578125 -1.25q-0.546875 -0.484375 -1.359375 -0.484375q-0.765625 0 -1.28125 0.46875q-0.515625 0.453125 -0.640625 1.265625l3.859375 0zm8.121033 -3.40625q1.453125 0 2.34375 0.921875q0.890625 0.90625 0.890625 2.546875l0 4.765625l-2.046875 0l0 -4.484375q0 -0.96875 -0.484375 -1.484375q-0.484375 -0.53125 -1.328125 -0.53125q-0.84375 0 -1.34375 0.53125q-0.484375 0.515625 -0.484375 1.484375l0 4.484375l-2.046875 0l0 -8.125l2.046875 0l0 1.015625q0.40625 -0.53125 1.046875 -0.828125q0.640625 -0.296875 1.40625 -0.296875zm12.207275 8.34375q-1.078125 0 -1.9375 -0.359375q-0.84375 -0.375 -1.34375 -1.0625q-0.5 -0.703125 -0.515625 -1.640625l2.203125 0q0.03125 0.640625 0.4375 1.015625q0.40625 0.359375 1.109375 0.359375q0.71875 0 1.125 -0.34375q0.40625 -0.34375 0.40625 -0.90625q0 -0.453125 -0.28125 -0.75q-0.265625 -0.296875 -0.6875 -0.453125q-0.421875 -0.171875 -1.15625 -0.375q-0.984375 -0.296875 -1.609375 -0.578125q-0.625 -0.296875 -1.078125 -0.875q-0.4375 -0.578125 -0.4375 -1.546875q0 -0.90625 0.453125 -1.578125q0.453125 -0.671875 1.265625 -1.03125q0.828125 -0.359375 1.875 -0.359375q1.59375 0 2.578125 0.765625q0.984375 0.765625 1.09375 2.15625l-2.25 0q-0.03125 -0.53125 -0.453125 -0.875q-0.421875 -0.34375 -1.109375 -0.34375q-0.59375 0 -0.953125 0.3125q-0.359375 0.296875 -0.359375 0.890625q0 0.40625 0.265625 0.6875q0.265625 0.265625 0.671875 0.4375q0.40625 0.15625 1.140625 0.375q1.0 0.296875 1.625 0.59375q0.625 0.296875 1.078125 0.890625q0.453125 0.578125 0.453125 1.53125q0 0.8125 -0.421875 1.515625q-0.421875 0.703125 -1.25 1.125q-0.8125 0.421875 -1.9375 0.421875zm12.941345 -4.34375q0 0.4375 -0.0625 0.796875l-5.9375 0q0.078125 0.875 0.609375 1.375q0.546875 0.5 1.34375 0.5q1.140625 0 1.625 -0.984375l2.21875 0q-0.359375 1.171875 -1.359375 1.921875q-0.984375 0.75 -2.4375 0.75q-1.171875 0 -2.109375 -0.515625q-0.921875 -0.515625 -1.453125 -1.46875q-0.515625 -0.953125 -0.515625 -2.203125q0 -1.25 0.515625 -2.203125q0.515625 -0.953125 1.4375 -1.46875q0.921875 -0.515625 2.125 -0.515625q1.15625 0 2.0625 0.5q0.921875 0.5 1.421875 1.421875q0.515625 0.90625 0.515625 2.09375zm-2.125 -0.59375q-0.015625 -0.78125 -0.578125 -1.25q-0.546875 -0.484375 -1.359375 -0.484375q-0.765625 0 -1.28125 0.46875q-0.515625 0.453125 -0.640625 1.265625l3.859375 0zm5.6679077 -2.03125q0.390625 -0.640625 1.03125 -1.0q0.640625 -0.375 1.46875 -0.375l0 2.15625l-0.546875 0q-0.96875 0 -1.46875 0.453125q-0.484375 0.453125 -0.484375 1.578125l0 4.046875l-2.046875 0l0 -8.125l2.046875 0l0 1.265625zm7.2492676 4.96875l2.0625 -6.234375l2.171875 0l-3.0 8.125l-2.484375 0l-3.0 -8.125l2.203125 0l2.046875 6.234375zm6.435364 -7.203125q-0.53125 0 -0.890625 -0.34375q-0.359375 -0.34375 -0.359375 -0.84375q0 -0.515625 0.359375 -0.859375q0.359375 -0.34375 0.890625 -0.34375q0.546875 0 0.90625 0.34375q0.359375 0.34375 0.359375 0.859375q0 0.5 -0.359375 0.84375q-0.359375 0.34375 -0.90625 0.34375zm1.015625 0.96875l0 8.125l-2.046875 0l0 -8.125l2.046875 0zm1.4963379 4.0625q0 -1.25 0.515625 -2.1875q0.515625 -0.953125 1.421875 -1.46875q0.90625 -0.53125 2.078125 -0.53125q1.515625 0 2.5 0.765625q0.984375 0.75 1.328125 2.109375l-2.21875 0q-0.171875 -0.53125 -0.59375 -0.828125q-0.421875 -0.296875 -1.03125 -0.296875q-0.875 0 -1.390625 0.640625q-0.515625 0.625 -0.515625 1.796875q0 1.15625 0.515625 1.796875q0.515625 0.640625 1.390625 0.640625q1.25 0 1.625 -1.109375l2.21875 0q-0.34375 1.3125 -1.34375 2.09375q-0.984375 0.765625 -2.484375 0.765625q-1.171875 0 -2.078125 -0.515625q-0.90625 -0.515625 -1.421875 -1.453125q-0.515625 -0.953125 -0.515625 -2.21875zm16.901245 -0.171875q0 0.4375 -0.0625 0.796875l-5.9375 0q0.078125 0.875 0.609375 1.375q0.546875 0.5 1.34375 0.5q1.140625 0 1.625 -0.984375l2.21875 0q-0.359375 1.171875 -1.359375 1.921875q-0.984375 0.75 -2.4375 0.75q-1.171875 0 -2.109375 -0.515625q-0.921875 -0.515625 -1.453125 -1.46875q-0.515625 -0.953125 -0.515625 -2.203125q0 -1.25 0.515625 -2.203125q0.515625 -0.953125 1.4375 -1.46875q0.921875 -0.515625 2.125 -0.515625q1.15625 0 2.0625 0.5q0.921875 0.5 1.421875 1.421875q0.515625 0.90625 0.515625 2.09375zm-2.125 -0.59375q-0.015625 -0.78125 -0.578125 -1.25q-0.546875 -0.484375 -1.359375 -0.484375q-0.765625 0 -1.28125 0.46875q-0.515625 0.453125 -0.640625 1.265625l3.859375 0z" fill-rule="nonzero"/></g><path fill="#000000" fill-opacity="0.0" d="m444.6238 142.5799l129.6063 1.1968536" fill-rule="evenodd"/><path stroke="#000000" stroke-width="2.0" stroke-linejoin="round" stroke-linecap="butt" d="m444.6238 142.5799l117.60678 1.0860443" fill-rule="evenodd"/><path fill="#000000" stroke="#000000" stroke-width="2.0" stroke-linecap="butt" d="m562.20013 146.96927l9.106323 -3.219513l-9.045349 -3.387146z" fill-rule="evenodd"/><path fill="#7000ff" d="m517.6474 142.81224l0 0c0 -6.627411 5.3726196 -12.0 12.0 -12.0l0 0c3.1826172 0 6.2348633 1.2642822 8.485291 3.5147247c2.2504272 2.2504272 3.5147095 5.3026733 3.5147095 8.485275l0 0c0 6.627411 -5.3725586 12.0 -12.0 12.0l0 0c-6.6273804 0 -12.0 -5.372589 -12.0 -12.0z" fill-rule="evenodd"/><path fill="#ffffff" d="m526.6023 146.14099q1.546875 -1.28125 2.453125 -2.125q0.90625 -0.859375 1.515625 -1.78125q0.609375 -0.9375 0.609375 -1.828125q0 -0.828125 -0.390625 -1.28125q-0.375 -0.46875 -1.171875 -0.46875q-0.796875 0 -1.234375 0.546875q-0.4375 0.53125 -0.453125 1.453125l-2.171875 0q0.0625 -1.921875 1.140625 -2.90625q1.078125 -1.0 2.75 -1.0q1.828125 0 2.796875 0.96875q0.984375 0.96875 0.984375 2.546875q0 1.25 -0.671875 2.390625q-0.671875 1.140625 -1.546875 1.984375q-0.859375 0.828125 -2.25 2.015625l4.71875 0l0 1.859375l-7.90625 0l0 -1.671875l0.828125 -0.703125z" fill-rule="nonzero"/><path fill="#000000" fill-opacity="0.0" d="m445.7349 166.5799l129.6063 1.1968536" fill-rule="evenodd"/><path stroke="#000000" stroke-width="2.0" stroke-linejoin="round" stroke-linecap="butt" d="m457.7344 166.6907l117.60678 1.0860443" fill-rule="evenodd"/><path fill="#000000" stroke="#000000" stroke-width="2.0" stroke-linecap="butt" d="m457.7649 163.38739l-9.106293 3.219513l9.045288 3.3871307z" fill-rule="evenodd"/><path fill="#7000ff" d="m476.5783 165.73875l0 0c0 -6.627426 5.372589 -12.0 12.0 -12.0l0 0c3.1825867 0 6.234833 1.2642822 8.485291 3.5147095c2.2504272 2.2504425 3.5147095 5.3026886 3.5147095 8.485291l0 0c0 6.627411 -5.372589 12.0 -12.0 12.0l0 0c-6.627411 0 -12.0 -5.372589 -12.0 -12.0z" fill-rule="evenodd"/><path fill="#ffffff" d="m484.6613 163.005q0.078125 -1.59375 1.125 -2.46875q1.0625 -0.875 2.765625 -0.875q1.171875 0 2.0 0.40625q0.828125 0.40625 1.25 1.109375q0.4375 0.6875 0.4375 1.578125q0 1.0 -0.53125 1.703125q-0.515625 0.6875 -1.234375 0.9375l0 0.0625q0.921875 0.28125 1.4375 1.015625q0.53125 0.734375 0.53125 1.890625q0 0.96875 -0.4375 1.71875q-0.4375 0.75 -1.296875 1.171875q-0.859375 0.421875 -2.0625 0.421875q-1.796875 0 -2.9375 -0.90625q-1.140625 -0.921875 -1.203125 -2.6875l2.171875 0q0.03125 0.78125 0.53125 1.25q0.515625 0.46875 1.390625 0.46875q0.8125 0 1.25 -0.453125q0.453125 -0.453125 0.453125 -1.171875q0 -0.96875 -0.609375 -1.375q-0.609375 -0.421875 -1.890625 -0.421875l-0.46875 0l0 -1.84375l0.46875 0q2.265625 0 2.265625 -1.515625q0 -0.6875 -0.40625 -1.0625q-0.40625 -0.390625 -1.171875 -0.390625q-0.75 0 -1.15625 0.40625q-0.40625 0.40625 -0.46875 1.03125l-2.203125 0z" fill-rule="nonzero"/><path fill="#7000ff" d="m392.89062 206.77419l0 0c0 -6.627426 5.372589 -12.0 12.0 -12.0l0 0c3.1826172 0 6.2348633 1.2642822 8.485291 3.5147095c2.2504272 2.2504425 3.5147095 5.3026886 3.5147095 8.485291l0 0c0 6.627411 -5.3725586 12.0 -12.0 12.0l0 0c-6.627411 0 -12.0 -5.372589 -12.0 -12.0z" fill-rule="evenodd"/><path fill="#ffffff" d="m400.35263 210.36856l0 -1.765625l5.234375 -7.484375l2.609375 0l0 7.296875l1.40625 0l0 1.953125l-1.40625 0l0 2.265625l-2.234375 0l0 -2.265625l-5.609375 0zm5.75 -6.859375l-3.28125 4.90625l3.28125 0l0 -4.90625z" fill-rule="nonzero"/><path fill="#7000ff" d="m392.89062 338.118l0 0c0 -6.627411 5.372589 -12.0 12.0 -12.0l0 0c3.1826172 0 6.2348633 1.2642822 8.485291 3.5147095c2.2504272 2.2504578 3.5147095 5.302704 3.5147095 8.485291l0 0c0 6.627411 -5.3725586 12.0 -12.0 12.0l0 0c-6.627411 0 -12.0 -5.372589 -12.0 -12.0z" fill-rule="evenodd"/><path fill="#ffffff" d="m408.42612 334.24365l-5.1875 0l0 2.75q0.34375 -0.421875 0.96875 -0.6875q0.625 -0.265625 1.328125 -0.265625q1.28125 0 2.09375 0.5625q0.8125 0.5625 1.171875 1.4375q0.375 0.859375 0.375 1.859375q0 1.84375 -1.046875 2.96875q-1.046875 1.109375 -2.984375 1.109375q-1.828125 0 -2.921875 -0.90625q-1.078125 -0.921875 -1.21875 -2.390625l2.171875 0q0.140625 0.640625 0.640625 1.03125q0.515625 0.375 1.296875 0.375q0.9375 0 1.421875 -0.59375q0.484375 -0.59375 0.484375 -1.5625q0 -1.0 -0.5 -1.515625q-0.484375 -0.515625 -1.421875 -0.515625q-0.671875 0 -1.125 0.34375q-0.4375 0.328125 -0.640625 0.890625l-2.140625 0l0 -6.859375l7.234375 0l0 1.96875z" fill-rule="nonzero"/></g></svg>