<svg style="max-height: 500px" version="1.1" viewBox="332.4634420697413 84.72816 296.3932050866523 362.14344" fill="none" stroke="none" stroke-linecap="square" stroke-miterlimit="10" xmlns:xlink="http://www.w3.org/1999/xlink" xmlns="http://www.w3.org/2000/svg" width="296.3932050866523" height="362.14344"><clipPath id="g2defaaf4e68_0_47.0"><path d="m0 0l960.0 0l0 540.0l-960.0 0l0 -540.0z" clip-rule="nonzero"/></clipPath><g clip-path="url(#g2defaaf4e68_0_47.0)"><path fill="#ffffff" d="m0 0l960.0 0l0 540.0l-960.0 0z" fill-rule="evenodd"/><path fill="#000000" fill-opacity="0.0" d="m337.7638 208.4133l0 0c0 -12.173416 9.868469 -22.041916 22.0419 -22.041916l240.38864 0c5.845886 0 11.452332 2.3222656 15.5859375 6.4559326c4.133667 4.1336517 6.4559326 9.740097 6.4559326 15.585983l0 210.08942c0 12.173401 -9.868469 22.0419 -22.04187 22.0419l-240.38864 0c-12.173431 0 -22.0419 -9.8685 -22.0419 -22.0419z" fill-rule="evenodd"/><path stroke="#595959" stroke-width="1.0" stroke-linejoin="round" stroke-linecap="butt" stroke-dasharray="8.0,3.0" d="m337.7638 208.4133l0 0c0 -12.173416 9.868469 -22.041916 22.0419 -22.041916l240.38864 0c5.845886 0 11.452332 2.3222656 15.5859375 6.4559326c4.133667 4.1336517 6.4559326 9.740097 6.4559326 15.585983l0 210.08942c0 12.173401 -9.868469 22.0419 -22.04187 22.0419l-240.38864 0c-12.173431 0 -22.0419 -9.8685 -22.0419 -22.0419z" fill-rule="evenodd"/><g filter="url(#shadowFilter-g2defaaf4e68_0_47.1)"/><defs><filter id="shadowFilter-g2defaaf4e68_0_47.1" filterUnits="userSpaceOnUse"><feGaussianBlur in="SourceAlpha" stdDeviation="4.0" result="blur"/><feComponentTransfer in="blur" color-interpolation-filters="sRGB"><feFuncR type="linear"/><feFuncG type="linear"/><feFuncB type="linear"/><feFuncA type="linear"/></feComponentTransfer></filter></defs><g id="g2defaaf4e68_0_47.1"><path fill="#ffffff" d="m428.4514 323.5028l0 0c0 -5.3026123 4.2986145 -9.601227 9.601257 -9.601227l120.640045 0c2.5463867 0 4.9885254 1.0115356 6.7890625 2.8121338c1.8005981 1.8005676 2.8121338 4.2427063 2.8121338 6.789093l0 38.40384c0 5.3026123 -4.298584 9.601227 -9.601196 9.601227l-120.640045 0c-5.302643 0 -9.601257 -4.2986145 -9.601257 -9.601227z" fill-rule="evenodd"/><path stroke="#000000" stroke-width="2.0" stroke-linejoin="round" stroke-linecap="butt" d="m428.4514 323.5028l0 0c0 -5.3026123 4.2986145 -9.601227 9.601257 -9.601227l120.640045 0c2.5463867 0 4.9885254 1.0115356 6.7890625 2.8121338c1.8005981 1.8005676 2.8121338 4.2427063 2.8121338 6.789093l0 38.40384c0 5.3026123 -4.298584 9.601227 -9.601196 9.601227l-120.640045 0c-5.302643 0 -9.601257 -4.2986145 -9.601257 -9.601227z" fill-rule="evenodd"/><path fill="#000000" d="m471.3634 329.69098q-0.53125 0 -0.890625 -0.34375q-0.359375 -0.34375 -0.359375 -0.84375q0 -0.515625 0.359375 -0.859375q0.359375 -0.34375 0.890625 -0.34375q0.546875 0 0.90625 0.34375q0.359375 0.34375 0.359375 0.859375q0 0.5 -0.359375 0.84375q-0.359375 0.34375 -0.90625 0.34375zm1.015625 0.96875l0 8.125l-2.046875 0l0 -8.125l2.046875 0zm6.5275574 -0.109375q1.453125 0 2.34375 0.921875q0.890625 0.90625 0.890625 2.546875l0 4.765625l-2.046875 0l0 -4.484375q0 -0.96875 -0.484375 -1.484375q-0.484375 -0.53125 -1.328125 -0.53125q-0.84375 0 -1.34375 0.53125q-0.484375 0.515625 -0.484375 1.484375l0 4.484375l-2.046875 0l0 -8.125l2.046875 0l0 1.015625q0.40625 -0.53125 1.046875 -0.828125q0.640625 -0.296875 1.40625 -0.296875zm7.5784607 1.796875l0 3.9375q0 0.40625 0.1875 0.59375q0.203125 0.171875 0.671875 0.171875l0.953125 0l0 1.734375l-1.296875 0q-2.59375 0 -2.59375 -2.515625l0 -3.921875l-0.96875 0l0 -1.6875l0.96875 0l0 -2.0l2.078125 0l0 2.0l1.8125 0l0 1.6875l-1.8125 0zm10.8428955 2.203125q0 0.4375 -0.0625 0.796875l-5.9375 0q0.078125 0.875 0.609375 1.375q0.546875 0.5 1.34375 0.5q1.140625 0 1.625 -0.984375l2.21875 0q-0.359375 1.171875 -1.359375 1.921875q-0.984375 0.75 -2.4375 0.75q-1.171875 0 -2.109375 -0.515625q-0.921875 -0.515625 -1.453125 -1.46875q-0.515625 -0.953125 -0.515625 -2.203125q0 -1.25 0.515625 -2.203125q0.515625 -0.953125 1.4375 -1.46875q0.921875 -0.515625 2.125 -0.515625q1.15625 0 2.0625 0.5q0.921875 0.5 1.421875 1.421875q0.515625 0.90625 0.515625 2.09375zm-2.125 -0.59375q-0.015625 -0.78125 -0.578125 -1.25q-0.546875 -0.484375 -1.359375 -0.484375q-0.765625 0 -1.28125 0.46875q-0.515625 0.453125 -0.640625 1.265625l3.859375 0zm5.667938 -2.03125q0.390625 -0.640625 1.03125 -1.0q0.640625 -0.375 1.46875 -0.375l0 2.15625l-0.546875 0q-0.96875 0 -1.46875 0.453125q-0.484375 0.453125 -0.484375 1.578125l0 4.046875l-2.046875 0l0 -8.125l2.046875 0l0 1.265625zm8.374268 -1.375q1.453125 0 2.34375 0.921875q0.8905945 0.90625 0.8905945 2.546875l0 4.765625l-2.0468445 0l0 -4.484375q0 -0.96875 -0.484375 -1.484375q-0.484375 -0.53125 -1.328125 -0.53125q-0.84375 0 -1.34375 0.53125q-0.484375 0.515625 -0.484375 1.484375l0 4.484375l-2.046875 0l0 -8.125l2.046875 0l0 1.015625q0.40625 -0.53125 1.046875 -0.828125q0.640625 -0.296875 1.40625 -0.296875zm4.6565857 4.140625q0 -1.21875 0.484375 -2.171875q0.5 -0.953125 1.34375 -1.46875q0.84375 -0.515625 1.875 -0.515625q0.90625 0 1.59375 0.375q0.6875 0.359375 1.09375 0.90625l0 -1.15625l2.0625 0l0 8.125l-2.0625 0l0 -1.1875q-0.390625 0.578125 -1.09375 0.953125q-0.703125 0.359375 -1.609375 0.359375q-1.015625 0 -1.859375 -0.515625q-0.84375 -0.53125 -1.34375 -1.484375q-0.484375 -0.96875 -0.484375 -2.21875zm6.390625 0.03125q0 -0.75 -0.296875 -1.28125q-0.296875 -0.53125 -0.796875 -0.8125q-0.484375 -0.296875 -1.0625 -0.296875q-0.578125 0 -1.0625 0.28125q-0.46875 0.28125 -0.78125 0.8125q-0.296875 0.53125 -0.296875 1.265625q0 0.734375 0.296875 1.296875q0.3125 0.546875 0.796875 0.84375q0.484375 0.28125 1.046875 0.28125q0.578125 0 1.0625 -0.28125q0.5 -0.296875 0.796875 -0.828125q0.296875 -0.53125 0.296875 -1.28125zm6.1244507 -6.78125l0 10.84375l-2.046875 0l0 -10.84375l2.046875 0z" fill-rule="nonzero"/><path fill="#000000" d="m456.87225 348.55035q1.5 0 2.40625 0.921875q0.921875 0.90625 0.921875 2.546875l0 4.765625l-2.046875 0l0 -4.484375q0 -0.953125 -0.484375 -1.453125q-0.484375 -0.515625 -1.328125 -0.515625q-0.828125 0 -1.328125 0.515625q-0.484375 0.5 -0.484375 1.453125l0 4.484375l-2.046875 0l0 -4.484375q0 -0.953125 -0.484375 -1.453125q-0.484375 -0.515625 -1.328125 -0.515625q-0.84375 0 -1.34375 0.515625q-0.484375 0.5 -0.484375 1.453125l0 4.484375l-2.046875 0l0 -8.125l2.046875 0l0 0.984375q0.390625 -0.515625 1.015625 -0.796875q0.625 -0.296875 1.375 -0.296875q0.953125 0 1.703125 0.40625q0.75 0.390625 1.15625 1.140625q0.390625 -0.703125 1.140625 -1.125q0.765625 -0.421875 1.640625 -0.421875zm6.3129272 -0.859375q-0.53125 0 -0.890625 -0.34375q-0.359375 -0.34375 -0.359375 -0.84375q0 -0.515625 0.359375 -0.859375q0.359375 -0.34375 0.890625 -0.34375q0.546875 0 0.90625 0.34375q0.359375 0.34375 0.359375 0.859375q0 0.5 -0.359375 0.84375q-0.359375 0.34375 -0.90625 0.34375zm1.015625 0.96875l0 8.125l-2.046875 0l0 -8.125l2.046875 0zm1.4963379 4.0625q0 -1.25 0.515625 -2.1875q0.515625 -0.953125 1.421875 -1.46875q0.90625 -0.53125 2.078125 -0.53125q1.515625 0 2.5 0.765625q0.984375 0.75 1.328125 2.109375l-2.21875 0q-0.171875 -0.53125 -0.59375 -0.828125q-0.421875 -0.296875 -1.03125 -0.296875q-0.875 0 -1.390625 0.640625q-0.515625 0.625 -0.515625 1.796875q0 1.15625 0.515625 1.796875q0.515625 0.640625 1.390625 0.640625q1.25 0 1.625 -1.109375l2.21875 0q-0.34375 1.3125 -1.34375 2.09375q-0.984375 0.765625 -2.484375 0.765625q-1.171875 0 -2.078125 -0.515625q-0.90625 -0.515625 -1.421875 -1.453125q-0.515625 -0.953125 -0.515625 -2.21875zm11.401215 -2.796875q0.390625 -0.640625 1.03125 -1.0q0.640625 -0.375 1.46875 -0.375l0 2.15625l-0.546875 0q-0.96875 0 -1.46875 0.453125q-0.484375 0.453125 -0.484375 1.578125l0 4.046875l-2.046875 0l0 -8.125l2.046875 0l0 1.265625zm7.4680176 6.984375q-1.171875 0 -2.109375 -0.515625q-0.9375 -0.515625 -1.46875 -1.46875q-0.53125 -0.953125 -0.53125 -2.203125q0 -1.25 0.546875 -2.1875q0.546875 -0.953125 1.5 -1.46875q0.953125 -0.53125 2.125 -0.53125q1.171875 0 2.125 0.53125q0.953125 0.515625 1.5 1.46875q0.5625 0.9375 0.5625 2.1875q0 1.25 -0.578125 2.203125q-0.5625 0.953125 -1.53125 1.46875q-0.953125 0.515625 -2.140625 0.515625zm0 -1.78125q0.5625 0 1.046875 -0.265625q0.5 -0.28125 0.78125 -0.8125q0.296875 -0.546875 0.296875 -1.328125q0 -1.15625 -0.609375 -1.78125q-0.59375 -0.625 -1.484375 -0.625q-0.875 0 -1.46875 0.625q-0.59375 0.625 -0.59375 1.78125q0 1.15625 0.578125 1.78125q0.578125 0.625 1.453125 0.625zm8.866333 1.78125q-1.0 0 -1.796875 -0.359375q-0.796875 -0.359375 -1.265625 -0.96875q-0.453125 -0.609375 -0.484375 -1.359375l2.0625 0q0.0625 0.46875 0.453125 0.78125q0.40625 0.296875 1.015625 0.296875q0.578125 0 0.90625 -0.234375q0.328125 -0.234375 0.328125 -0.59375q0 -0.40625 -0.40625 -0.59375q-0.390625 -0.203125 -1.265625 -0.4375q-0.921875 -0.21875 -1.5 -0.453125q-0.578125 -0.234375 -1.0 -0.71875q-0.40625 -0.484375 -0.40625 -1.296875q0 -0.6875 0.375 -1.234375q0.390625 -0.5625 1.109375 -0.875q0.734375 -0.328125 1.71875 -0.328125q1.453125 0 2.3125 0.734375q0.875 0.71875 0.953125 1.953125l-1.953125 0q-0.046875 -0.484375 -0.40625 -0.765625q-0.359375 -0.296875 -0.96875 -0.296875q-0.546875 0 -0.859375 0.203125q-0.296875 0.203125 -0.296875 0.578125q0 0.40625 0.40625 0.625q0.421875 0.203125 1.28125 0.421875q0.875 0.21875 1.453125 0.453125q0.578125 0.234375 0.984375 0.734375q0.421875 0.484375 0.4375 1.296875q0 0.703125 -0.390625 1.265625q-0.390625 0.546875 -1.125 0.859375q-0.71875 0.3125 -1.671875 0.3125zm12.425201 -4.359375q0 0.4375 -0.0625 0.796875l-5.9375 0q0.078125 0.875 0.609375 1.375q0.546875 0.5 1.34375 0.5q1.140625 0 1.625 -0.984375l2.21875 0q-0.359375 1.171875 -1.359375 1.921875q-0.984375 0.75 -2.4375 0.75q-1.171875 0 -2.109375 -0.515625q-0.921875 -0.515625 -1.453125 -1.46875q-0.515625 -0.953125 -0.515625 -2.203125q0 -1.25 0.515625 -2.203125q0.515625 -0.953125 1.4375 -1.46875q0.921875 -0.515625 2.125 -0.515625q1.15625 0 2.0625 0.5q0.921875 0.5 1.421875 1.421875q0.515625 0.90625 0.515625 2.09375zm-2.125 -0.59375q-0.015625 -0.78125 -0.578125 -1.25q-0.546875 -0.484375 -1.359375 -0.484375q-0.765625 0 -1.28125 0.46875q-0.515625 0.453125 -0.640625 1.265625l3.859375 0zm5.667938 -2.03125q0.390625 -0.640625 1.03125 -1.0q0.640625 -0.375 1.46875 -0.375l0 2.15625l-0.546875 0q-0.96875 0 -1.46875 0.453125q-0.484375 0.453125 -0.484375 1.578125l0 4.046875l-2.046875 0l0 -8.125l2.046875 0l0 1.265625zm7.249237 4.96875l2.0625 -6.234375l2.171875 0l-3.0 8.125l-2.484375 0l-3.0 -8.125l2.203125 0l2.046875 6.234375zm6.435425 -7.203125q-0.53125 0 -0.890625 -0.34375q-0.359375 -0.34375 -0.359375 -0.84375q0 -0.515625 0.359375 -0.859375q0.359375 -0.34375 0.890625 -0.34375q0.546875 0 0.90625 0.34375q0.359375 0.34375 0.359375 0.859375q0 0.5 -0.359375 0.84375q-0.359375 0.34375 -0.90625 0.34375zm1.015625 0.96875l0 8.125l-2.046875 0l0 -8.125l2.046875 0zm1.4962769 4.0625q0 -1.25 0.515625 -2.1875q0.515625 -0.953125 1.421875 -1.46875q0.90625 -0.53125 2.078125 -0.53125q1.515625 0 2.5 0.765625q0.984375 0.75 1.328125 2.109375l-2.21875 0q-0.171875 -0.53125 -0.59375 -0.828125q-0.421875 -0.296875 -1.03125 -0.296875q-0.875 0 -1.390625 0.640625q-0.515625 0.625 -0.515625 1.796875q0 1.15625 0.515625 1.796875q0.515625 0.640625 1.390625 0.640625q1.25 0 1.625 -1.109375l2.21875 0q-0.34375 1.3125 -1.34375 2.09375q-0.984375 0.765625 -2.484375 0.765625q-1.171875 0 -2.078125 -0.515625q-0.90625 -0.515625 -1.421875 -1.453125q-0.515625 -0.953125 -0.515625 -2.21875zm16.901245 -0.171875q0 0.4375 -0.0625 0.796875l-5.9375 0q0.078125 0.875 0.609375 1.375q0.546875 0.5 1.34375 0.5q1.140625 0 1.625 -0.984375l2.21875 0q-0.359375 1.171875 -1.359375 1.921875q-0.984375 0.75 -2.4375 0.75q-1.171875 0 -2.109375 -0.515625q-0.921875 -0.515625 -1.453125 -1.46875q-0.515625 -0.953125 -0.515625 -2.203125q0 -1.25 0.515625 -2.203125q0.515625 -0.953125 1.4375 -1.46875q0.921875 -0.515625 2.125 -0.515625q1.15625 0 2.0625 0.5q0.921875 0.5 1.421875 1.421875q0.515625 0.90625 0.515625 2.09375zm-2.125 -0.59375q-0.015625 -0.78125 -0.578125 -1.25q-0.546875 -0.484375 -1.359375 -0.484375q-0.765625 0 -1.28125 0.46875q-0.515625 0.453125 -0.640625 1.265625l3.859375 0zm6.7304077 4.953125q-1.0 0 -1.796875 -0.359375q-0.796875 -0.359375 -1.265625 -0.96875q-0.453125 -0.609375 -0.484375 -1.359375l2.0625 0q0.0625 0.46875 0.453125 0.78125q0.40625 0.296875 1.015625 0.296875q0.578125 0 0.90625 -0.234375q0.328125 -0.234375 0.328125 -0.59375q0 -0.40625 -0.40625 -0.59375q-0.390625 -0.203125 -1.265625 -0.4375q-0.921875 -0.21875 -1.5 -0.453125q-0.578125 -0.234375 -1.0 -0.71875q-0.40625 -0.484375 -0.40625 -1.296875q0 -0.6875 0.375 -1.234375q0.390625 -0.5625 1.109375 -0.875q0.734375 -0.328125 1.71875 -0.328125q1.453125 0 2.3125 0.734375q0.875 0.71875 0.953125 1.953125l-1.953125 0q-0.046875 -0.484375 -0.40625 -0.765625q-0.359375 -0.296875 -0.96875 -0.296875q-0.546875 0 -0.859375 0.203125q-0.296875 0.203125 -0.296875 0.578125q0 0.40625 0.40625 0.625q0.421875 0.203125 1.28125 0.421875q0.875 0.21875 1.453125 0.453125q0.578125 0.234375 0.984375 0.734375q0.421875 0.484375 0.4375 1.296875q0 0.703125 -0.390625 1.265625q-0.390625 0.546875 -1.125 0.859375q-0.71875 0.3125 -1.671875 0.3125z" fill-rule="nonzero"/></g><g filter="url(#shadowFilter-g2defaaf4e68_0_47.2)"/><defs><filter id="shadowFilter-g2defaaf4e68_0_47.2" filterUnits="userSpaceOnUse"><feGaussianBlur in="SourceAlpha" stdDeviation="4.0" result="blur"/><feComponentTransfer in="blur" color-interpolation-filters="sRGB"><feFuncR type="linear"/><feFuncG type="linear"/><feFuncB type="linear"/><feFuncA type="linear"/></feComponentTransfer></filter></defs><g id="g2defaaf4e68_0_47.2"><path fill="#ffffff" d="m406.4094 337.96738l0 0c0 -5.3026123 4.2986145 -9.601227 9.601227 -9.601227l120.640076 0c2.5463867 0 4.9884644 1.0115356 6.7890625 2.8121338c1.8005981 1.8005676 2.8121338 4.2427063 2.8121338 6.789093l0 38.40381c0 5.302643 -4.298584 9.601257 -9.601196 9.601257l-120.640076 0c-5.3026123 0 -9.601227 -4.2986145 -9.601227 -9.601257z" fill-rule="evenodd"/><path stroke="#000000" stroke-width="2.0" stroke-linejoin="round" stroke-linecap="butt" d="m406.4094 337.96738l0 0c0 -5.3026123 4.2986145 -9.601227 9.601227 -9.601227l120.640076 0c2.5463867 0 4.9884644 1.0115356 6.7890625 2.8121338c1.8005981 1.8005676 2.8121338 4.2427063 2.8121338 6.789093l0 38.40381c0 5.302643 -4.298584 9.601257 -9.601196 9.601257l-120.640076 0c-5.3026123 0 -9.601227 -4.2986145 -9.601227 -9.601257z" fill-rule="evenodd"/><path fill="#000000" d="m449.3214 344.15555q-0.53125 0 -0.890625 -0.34375q-0.359375 -0.34375 -0.359375 -0.84375q0 -0.515625 0.359375 -0.859375q0.359375 -0.34375 0.890625 -0.34375q0.546875 0 0.90625 0.34375q0.359375 0.34375 0.359375 0.859375q0 0.5 -0.359375 0.84375q-0.359375 0.34375 -0.90625 0.34375zm1.015625 0.96875l0 8.125l-2.046875 0l0 -8.125l2.046875 0zm6.5275574 -0.109375q1.453125 0 2.34375 0.921875q0.890625 0.90625 0.890625 2.546875l0 4.765625l-2.046875 0l0 -4.484375q0 -0.96875 -0.484375 -1.484375q-0.484375 -0.53125 -1.328125 -0.53125q-0.84375 0 -1.34375 0.53125q-0.484375 0.515625 -0.484375 1.484375l0 4.484375l-2.046875 0l0 -8.125l2.046875 0l0 1.015625q0.40625 -0.53125 1.046875 -0.828125q0.640625 -0.296875 1.40625 -0.296875zm7.5784607 1.796875l0 3.9375q0 0.40625 0.1875 0.59375q0.203125 0.171875 0.671875 0.171875l0.953125 0l0 1.734375l-1.296875 0q-2.59375 0 -2.59375 -2.515625l0 -3.921875l-0.96875 0l0 -1.6875l0.96875 0l0 -2.0l2.078125 0l0 2.0l1.8125 0l0 1.6875l-1.8125 0zm10.8428955 2.203125q0 0.4375 -0.0625 0.796875l-5.9375 0q0.078125 0.875 0.609375 1.375q0.546875 0.5 1.34375 0.5q1.140625 0 1.625 -0.984375l2.21875 0q-0.359375 1.171875 -1.359375 1.921875q-0.984375 0.75 -2.4375 0.75q-1.171875 0 -2.109375 -0.515625q-0.921875 -0.515625 -1.453125 -1.46875q-0.515625 -0.953125 -0.515625 -2.203125q0 -1.25 0.515625 -2.203125q0.515625 -0.953125 1.4375 -1.46875q0.921875 -0.515625 2.125 -0.515625q1.15625 0 2.0625 0.5q0.921875 0.5 1.421875 1.421875q0.515625 0.90625 0.515625 2.09375zm-2.125 -0.59375q-0.015625 -0.78125 -0.578125 -1.25q-0.546875 -0.484375 -1.359375 -0.484375q-0.765625 0 -1.28125 0.46875q-0.515625 0.453125 -0.640625 1.265625l3.859375 0zm5.667938 -2.03125q0.390625 -0.640625 1.03125 -1.0q0.640625 -0.375 1.46875 -0.375l0 2.15625l-0.546875 0q-0.96875 0 -1.46875 0.453125q-0.484375 0.453125 -0.484375 1.578125l0 4.046875l-2.046875 0l0 -8.125l2.046875 0l0 1.265625zm8.374268 -1.375q1.453125 0 2.34375 0.921875q0.890625 0.90625 0.890625 2.546875l0 4.765625l-2.046875 0l0 -4.484375q0 -0.96875 -0.484375 -1.484375q-0.484375 -0.53125 -1.328125 -0.53125q-0.84375 0 -1.34375 0.53125q-0.484375 0.515625 -0.484375 1.484375l0 4.484375l-2.046875 0l0 -8.125l2.046875 0l0 1.015625q0.40625 -0.53125 1.046875 -0.828125q0.640625 -0.296875 1.40625 -0.296875zm4.656555 4.140625q0 -1.21875 0.484375 -2.171875q0.5 -0.953125 1.34375 -1.46875q0.84375 -0.515625 1.875 -0.515625q0.90625 0 1.59375 0.375q0.6875 0.359375 1.09375 0.90625l0 -1.15625l2.0625 0l0 8.125l-2.0625 0l0 -1.1875q-0.390625 0.578125 -1.09375 0.953125q-0.703125 0.359375 -1.609375 0.359375q-1.015625 0 -1.859375 -0.515625q-0.84375 -0.53125 -1.34375 -1.484375q-0.484375 -0.96875 -0.484375 -2.21875zm6.390625 0.03125q0 -0.75 -0.296875 -1.28125q-0.296875 -0.53125 -0.796875 -0.8125q-0.484375 -0.296875 -1.0625 -0.296875q-0.578125 0 -1.0625 0.28125q-0.46875 0.28125 -0.78125 0.8125q-0.296875 0.53125 -0.296875 1.265625q0 0.734375 0.296875 1.296875q0.3125 0.546875 0.796875 0.84375q0.484375 0.28125 1.046875 0.28125q0.578125 0 1.0625 -0.28125q0.5 -0.296875 0.796875 -0.828125q0.296875 -0.53125 0.296875 -1.28125zm6.124481 -6.78125l0 10.84375l-2.046875 0l0 -10.84375l2.046875 0z" fill-rule="nonzero"/><path fill="#000000" d="m434.83026 363.01492q1.5 0 2.40625 0.921875q0.921875 0.90625 0.921875 2.546875l0 4.765625l-2.046875 0l0 -4.484375q0 -0.953125 -0.484375 -1.453125q-0.484375 -0.515625 -1.328125 -0.515625q-0.828125 0 -1.328125 0.515625q-0.484375 0.5 -0.484375 1.453125l0 4.484375l-2.046875 0l0 -4.484375q0 -0.953125 -0.484375 -1.453125q-0.484375 -0.515625 -1.328125 -0.515625q-0.84375 0 -1.34375 0.515625q-0.484375 0.5 -0.484375 1.453125l0 4.484375l-2.046875 0l0 -8.125l2.046875 0l0 0.984375q0.390625 -0.515625 1.015625 -0.796875q0.625 -0.296875 1.375 -0.296875q0.953125 0 1.703125 0.40625q0.75 0.390625 1.15625 1.140625q0.390625 -0.703125 1.140625 -1.125q0.765625 -0.421875 1.640625 -0.421875zm6.3129272 -0.859375q-0.53125 0 -0.890625 -0.34375q-0.359375 -0.34375 -0.359375 -0.84375q0 -0.515625 0.359375 -0.859375q0.359375 -0.34375 0.890625 -0.34375q0.546875 0 0.90625 0.34375q0.359375 0.34375 0.359375 0.859375q0 0.5 -0.359375 0.84375q-0.359375 0.34375 -0.90625 0.34375zm1.015625 0.96875l0 8.125l-2.046875 0l0 -8.125l2.046875 0zm1.4963379 4.0625q0 -1.25 0.515625 -2.1875q0.515625 -0.953125 1.421875 -1.46875q0.90625 -0.53125 2.078125 -0.53125q1.515625 0 2.5 0.765625q0.984375 0.75 1.328125 2.109375l-2.21875 0q-0.171875 -0.53125 -0.59375 -0.828125q-0.421875 -0.296875 -1.03125 -0.296875q-0.875 0 -1.390625 0.640625q-0.515625 0.625 -0.515625 1.796875q0 1.15625 0.515625 1.796875q0.515625 0.640625 1.390625 0.640625q1.25 0 1.625 -1.109375l2.21875 0q-0.34375 1.3125 -1.34375 2.09375q-0.984375 0.765625 -2.484375 0.765625q-1.171875 0 -2.078125 -0.515625q-0.90625 -0.515625 -1.421875 -1.453125q-0.515625 -0.953125 -0.515625 -2.21875zm11.401215 -2.796875q0.390625 -0.640625 1.03125 -1.0q0.640625 -0.375 1.46875 -0.375l0 2.15625l-0.546875 0q-0.96875 0 -1.46875 0.453125q-0.484375 0.453125 -0.484375 1.578125l0 4.046875l-2.046875 0l0 -8.125l2.046875 0l0 1.265625zm7.4680176 6.984375q-1.171875 0 -2.109375 -0.515625q-0.9375 -0.515625 -1.46875 -1.46875q-0.53125 -0.953125 -0.53125 -2.203125q0 -1.25 0.546875 -2.1875q0.546875 -0.953125 1.5 -1.46875q0.953125 -0.53125 2.125 -0.53125q1.171875 0 2.125 0.53125q0.953125 0.515625 1.5 1.46875q0.5625 0.9375 0.5625 2.1875q0 1.25 -0.578125 2.203125q-0.5625 0.953125 -1.53125 1.46875q-0.953125 0.515625 -2.140625 0.515625zm0 -1.78125q0.5625 0 1.046875 -0.265625q0.5 -0.28125 0.78125 -0.8125q0.296875 -0.546875 0.296875 -1.328125q0 -1.15625 -0.609375 -1.78125q-0.59375 -0.625 -1.484375 -0.625q-0.875 0 -1.46875 0.625q-0.59375 0.625 -0.59375 1.78125q0 1.15625 0.578125 1.78125q0.578125 0.625 1.453125 0.625zm8.866333 1.78125q-1.0 0 -1.796875 -0.359375q-0.796875 -0.359375 -1.265625 -0.96875q-0.453125 -0.609375 -0.484375 -1.359375l2.0625 0q0.0625 0.46875 0.453125 0.78125q0.40625 0.296875 1.015625 0.296875q0.578125 0 0.90625 -0.234375q0.328125 -0.234375 0.328125 -0.59375q0 -0.40625 -0.40625 -0.59375q-0.390625 -0.203125 -1.265625 -0.4375q-0.921875 -0.21875 -1.5 -0.453125q-0.578125 -0.234375 -1.0 -0.71875q-0.40625 -0.484375 -0.40625 -1.296875q0 -0.6875 0.375 -1.234375q0.390625 -0.5625 1.109375 -0.875q0.734375 -0.328125 1.71875 -0.328125q1.453125 0 2.3125 0.734375q0.875 0.71875 0.953125 1.953125l-1.953125 0q-0.046875 -0.484375 -0.40625 -0.765625q-0.359375 -0.296875 -0.96875 -0.296875q-0.546875 0 -0.859375 0.203125q-0.296875 0.203125 -0.296875 0.578125q0 0.40625 0.40625 0.625q0.421875 0.203125 1.28125 0.421875q0.875 0.21875 1.453125 0.453125q0.578125 0.234375 0.984375 0.734375q0.421875 0.484375 0.4375 1.296875q0 0.703125 -0.390625 1.265625q-0.390625 0.546875 -1.125 0.859375q-0.71875 0.3125 -1.671875 0.3125zm12.425201 -4.359375q0 0.4375 -0.0625 0.796875l-5.9375 0q0.078125 0.875 0.609375 1.375q0.546875 0.5 1.34375 0.5q1.140625 0 1.625 -0.984375l2.21875 0q-0.359375 1.171875 -1.359375 1.921875q-0.984375 0.75 -2.4375 0.75q-1.171875 0 -2.109375 -0.515625q-0.921875 -0.515625 -1.453125 -1.46875q-0.515625 -0.953125 -0.515625 -2.203125q0 -1.25 0.515625 -2.203125q0.515625 -0.953125 1.4375 -1.46875q0.921875 -0.515625 2.125 -0.515625q1.15625 0 2.0625 0.5q0.921875 0.5 1.421875 1.421875q0.515625 0.90625 0.515625 2.09375zm-2.125 -0.59375q-0.015625 -0.78125 -0.578125 -1.25q-0.546875 -0.484375 -1.359375 -0.484375q-0.765625 0 -1.28125 0.46875q-0.515625 0.453125 -0.640625 1.265625l3.859375 0zm5.667938 -2.03125q0.390625 -0.640625 1.03125 -1.0q0.640625 -0.375 1.46875 -0.375l0 2.15625l-0.546875 0q-0.96875 0 -1.46875 0.453125q-0.484375 0.453125 -0.484375 1.578125l0 4.046875l-2.046875 0l0 -8.125l2.046875 0l0 1.265625zm7.2492676 4.96875l2.0625 -6.234375l2.171875 0l-3.0 8.125l-2.484375 0l-3.0 -8.125l2.203125 0l2.046875 6.234375zm6.435364 -7.203125q-0.53125 0 -0.890625 -0.34375q-0.359375 -0.34375 -0.359375 -0.84375q0 -0.515625 0.359375 -0.859375q0.359375 -0.34375 0.890625 -0.34375q0.546875 0 0.90625 0.34375q0.359375 0.34375 0.359375 0.859375q0 0.5 -0.359375 0.84375q-0.359375 0.34375 -0.90625 0.34375zm1.015625 0.96875l0 8.125l-2.046875 0l0 -8.125l2.046875 0zm1.4963379 4.0625q0 -1.25 0.515625 -2.1875q0.515625 -0.953125 1.421875 -1.46875q0.90625 -0.53125 2.078125 -0.53125q1.515625 0 2.5 0.765625q0.984375 0.75 1.328125 2.109375l-2.21875 0q-0.171875 -0.53125 -0.59375 -0.828125q-0.421875 -0.296875 -1.03125 -0.296875q-0.875 0 -1.390625 0.640625q-0.515625 0.625 -0.515625 1.796875q0 1.15625 0.515625 1.796875q0.515625 0.640625 1.390625 0.640625q1.25 0 1.625 -1.109375l2.21875 0q-0.34375 1.3125 -1.34375 2.09375q-0.984375 0.765625 -2.484375 0.765625q-1.171875 0 -2.078125 -0.515625q-0.90625 -0.515625 -1.421875 -1.453125q-0.515625 -0.953125 -0.515625 -2.21875zm16.901215 -0.171875q0 0.4375 -0.0625 0.796875l-5.9375 0q0.078125 0.875 0.609375 1.375q0.546875 0.5 1.34375 0.5q1.140625 0 1.625 -0.984375l2.21875 0q-0.359375 1.171875 -1.359375 1.921875q-0.984375 0.75 -2.4375 0.75q-1.171875 0 -2.109375 -0.515625q-0.921875 -0.515625 -1.453125 -1.46875q-0.515625 -0.953125 -0.515625 -2.203125q0 -1.25 0.515625 -2.203125q0.515625 -0.953125 1.4375 -1.46875q0.921875 -0.515625 2.125 -0.515625q1.15625 0 2.0625 0.5q0.921875 0.5 1.421875 1.421875q0.515625 0.90625 0.515625 2.09375zm-2.125 -0.59375q-0.015625 -0.78125 -0.578125 -1.25q-0.546875 -0.484375 -1.359375 -0.484375q-0.765625 0 -1.28125 0.46875q-0.515625 0.453125 -0.640625 1.265625l3.859375 0zm6.7304077 4.953125q-1.0 0 -1.796875 -0.359375q-0.796875 -0.359375 -1.265625 -0.96875q-0.453125 -0.609375 -0.484375 -1.359375l2.0625 0q0.0625 0.46875 0.453125 0.78125q0.40625 0.296875 1.015625 0.296875q0.578125 0 0.90625 -0.234375q0.328125 -0.234375 0.328125 -0.59375q0 -0.40625 -0.40625 -0.59375q-0.390625 -0.203125 -1.265625 -0.4375q-0.921875 -0.21875 -1.5 -0.453125q-0.578125 -0.234375 -1.0 -0.71875q-0.40625 -0.484375 -0.40625 -1.296875q0 -0.6875 0.375 -1.234375q0.390625 -0.5625 1.109375 -0.875q0.734375 -0.328125 1.71875 -0.328125q1.453125 0 2.3125 0.734375q0.875 0.71875 0.953125 1.953125l-1.953125 0q-0.046875 -0.484375 -0.40625 -0.765625q-0.359375 -0.296875 -0.96875 -0.296875q-0.546875 0 -0.859375 0.203125q-0.296875 0.203125 -0.296875 0.578125q0 0.40625 0.40625 0.625q0.421875 0.203125 1.28125 0.421875q0.875 0.21875 1.453125 0.453125q0.578125 0.234375 0.984375 0.734375q0.421875 0.484375 0.4375 1.296875q0 0.703125 -0.390625 1.265625q-0.390625 0.546875 -1.125 0.859375q-0.71875 0.3125 -1.671875 0.3125z" fill-rule="nonzero"/></g><g filter="url(#shadowFilter-g2defaaf4e68_0_47.3)"/><defs><filter id="shadowFilter-g2defaaf4e68_0_47.3" filterUnits="userSpaceOnUse"><feGaussianBlur in="SourceAlpha" stdDeviation="4.0" result="blur"/><feComponentTransfer in="blur" color-interpolation-filters="sRGB"><feFuncR type="linear"/><feFuncG type="linear"/><feFuncB type="linear"/><feFuncA type="linear"/></feComponentTransfer></filter></defs><g id="g2defaaf4e68_0_47.3"><path fill="#ffffff" d="m375.4146 101.6786l0 0c0 -6.5608673 5.318634 -11.879501 11.879517 -11.879501l116.083496 0c3.1506653 0 6.172241 1.2515869 8.400085 3.4794235c2.2278442 2.2278442 3.4794312 5.2494354 3.4794312 8.400078l0 47.51658c0 6.5608826 -5.318634 11.879517 -11.879517 11.879517l-116.083496 0c-6.5608826 0 -11.879517 -5.318634 -11.879517 -11.879517z" fill-rule="evenodd"/><path stroke="#000000" stroke-width="2.0" stroke-linejoin="round" stroke-linecap="butt" d="m375.4146 101.6786l0 0c0 -6.5608673 5.318634 -11.879501 11.879517 -11.879501l116.083496 0c3.1506653 0 6.172241 1.2515869 8.400085 3.4794235c2.2278442 2.2278442 3.4794312 5.2494354 3.4794312 8.400078l0 47.51658c0 6.5608826 -5.318634 11.879517 -11.879517 11.879517l-116.083496 0c-6.5608826 0 -11.879517 -5.318634 -11.879517 -11.879517z" fill-rule="evenodd"/><path fill="#000000" d="m423.94034 125.39189q0 -1.515625 0.671875 -2.703125q0.6875 -1.203125 1.859375 -1.859375q1.1875 -0.671875 2.65625 -0.671875q1.71875 0 3.0 0.875q1.296875 0.875 1.8125 2.4375l-2.359375 0q-0.359375 -0.734375 -1.0 -1.09375q-0.640625 -0.375 -1.46875 -0.375q-0.890625 0 -1.59375 0.421875q-0.6875 0.40625 -1.078125 1.171875q-0.390625 0.765625 -0.390625 1.796875q0 1.0 0.390625 1.78125q0.390625 0.765625 1.078125 1.1875q0.703125 0.40625 1.59375 0.40625q0.828125 0 1.46875 -0.359375q0.640625 -0.375 1.0 -1.109375l2.359375 0q-0.515625 1.5625 -1.796875 2.4375q-1.28125 0.875 -3.015625 0.875q-1.46875 0 -2.65625 -0.671875q-1.171875 -0.671875 -1.859375 -1.859375q-0.671875 -1.1875 -0.671875 -2.6875zm13.8029175 -5.71875l0 10.84375l-2.046875 0l0 -10.84375l2.046875 0zm3.0588074 1.75q-0.53125 0 -0.890625 -0.34375q-0.359375 -0.34375 -0.359375 -0.84375q0 -0.515625 0.359375 -0.859375q0.359375 -0.34375 0.890625 -0.34375q0.546875 0 0.90625 0.34375q0.359375 0.34375 0.359375 0.859375q0 0.5 -0.359375 0.84375q-0.359375 0.34375 -0.90625 0.34375zm1.015625 0.96875l0 8.125l-2.046875 0l0 -8.125l2.046875 0zm9.574463 3.890625q0 0.4375 -0.0625 0.796875l-5.9375 0q0.078125 0.875 0.609375 1.375q0.546875 0.5 1.34375 0.5q1.140625 0 1.625 -0.984375l2.21875 0q-0.359375 1.171875 -1.359375 1.921875q-0.984375 0.75 -2.4375 0.75q-1.171875 0 -2.109375 -0.515625q-0.921875 -0.515625 -1.453125 -1.46875q-0.515625 -0.953125 -0.515625 -2.203125q0 -1.25 0.515625 -2.203125q0.515625 -0.953125 1.4375 -1.46875q0.921875 -0.515625 2.125 -0.515625q1.15625 0 2.0625 0.5q0.921875 0.5 1.421875 1.421875q0.515625 0.90625 0.515625 2.09375zm-2.125 -0.59375q-0.015625 -0.78125 -0.578125 -1.25q-0.546875 -0.484375 -1.359375 -0.484375q-0.765625 0 -1.28125 0.46875q-0.515625 0.453125 -0.640625 1.265625l3.859375 0zm8.121063 -3.40625q1.453125 0 2.34375 0.921875q0.890625 0.90625 0.890625 2.546875l0 4.765625l-2.046875 0l0 -4.484375q0 -0.96875 -0.484375 -1.484375q-0.484375 -0.53125 -1.328125 -0.53125q-0.84375 0 -1.34375 0.53125q-0.484375 0.515625 -0.484375 1.484375l0 4.484375l-2.046875 0l0 -8.125l2.046875 0l0 1.015625q0.40625 -0.53125 1.046875 -0.828125q0.640625 -0.296875 1.40625 -0.296875zm7.57843 1.796875l0 3.9375q0 0.40625 0.1875 0.59375q0.203125 0.171875 0.671875 0.171875l0.953125 0l0 1.734375l-1.296875 0q-2.59375 0 -2.59375 -2.515625l0 -3.921875l-0.96875 0l0 -1.6875l0.96875 0l0 -2.0l2.078125 0l0 2.0l1.8125 0l0 1.6875l-1.8125 0z" fill-rule="nonzero"/></g><g filter="url(#shadowFilter-g2defaaf4e68_0_47.4)"/><defs><filter id="shadowFilter-g2defaaf4e68_0_47.4" filterUnits="userSpaceOnUse"><feGaussianBlur in="SourceAlpha" stdDeviation="4.0" result="blur"/><feComponentTransfer in="blur" color-interpolation-filters="sRGB"><feFuncR type="linear"/><feFuncG type="linear"/><feFuncB type="linear"/><feFuncA type="linear"/></feComponentTransfer></filter></defs><g id="g2defaaf4e68_0_47.4"><path fill="#ffffff" d="m375.41464 215.3847l0 0c0 -5.3026123 4.2986145 -9.601242 9.601227 -9.601242l120.640045 0c2.5464172 0 4.9885254 1.0115662 6.789093 2.8121338c1.8005981 1.8005829 2.8121338 4.2427063 2.8121338 6.7891083l0 38.403824c0 5.3026276 -4.2986145 9.601242 -9.601227 9.601242l-120.640045 0c-5.3026123 0 -9.601227 -4.2986145 -9.601227 -9.601242z" fill-rule="evenodd"/><path stroke="#000000" stroke-width="2.0" stroke-linejoin="round" stroke-linecap="butt" d="m375.41464 215.3847l0 0c0 -5.3026123 4.2986145 -9.601242 9.601227 -9.601242l120.640045 0c2.5464172 0 4.9885254 1.0115662 6.789093 2.8121338c1.8005981 1.8005829 2.8121338 4.2427063 2.8121338 6.7891083l0 38.403824c0 5.3026276 -4.2986145 9.601242 -9.601227 9.601242l-120.640045 0c-5.3026123 0 -9.601227 -4.2986145 -9.601227 -9.601242z" fill-rule="evenodd"/><path fill="#000000" d="m440.87744 228.71349l-4.078125 0l-0.671875 1.953125l-2.15625 0l3.6875 -10.25l2.390625 0l3.671875 10.25l-2.171875 0l-0.671875 -1.953125zm-0.546875 -1.640625l-1.484375 -4.28125l-1.484375 4.28125l2.96875 0zm12.228302 -3.46875q0 0.8125 -0.390625 1.53125q-0.390625 0.71875 -1.21875 1.171875q-0.828125 0.4375 -2.078125 0.4375l-1.71875 0l0 3.921875l-2.046875 0l0 -10.234375l3.765625 0q1.1875 0 2.015625 0.421875q0.84375 0.40625 1.25 1.125q0.421875 0.71875 0.421875 1.625zm-3.78125 1.484375q0.859375 0 1.265625 -0.390625q0.40625 -0.390625 0.40625 -1.09375q0 -1.5 -1.671875 -1.5l-1.625 0l0 2.984375l1.625 0zm7.2860413 -4.65625l0 10.234375l-2.046875 0l0 -10.234375l2.046875 0z" fill-rule="nonzero"/><path fill="#000000" d="m407.82938 240.43224q1.5 0 2.40625 0.921875q0.921875 0.90625 0.921875 2.546875l0 4.765625l-2.046875 0l0 -4.484375q0 -0.953125 -0.484375 -1.453125q-0.484375 -0.515625 -1.328125 -0.515625q-0.828125 0 -1.328125 0.515625q-0.484375 0.5 -0.484375 1.453125l0 4.484375l-2.046875 0l0 -4.484375q0 -0.953125 -0.484375 -1.453125q-0.484375 -0.515625 -1.328125 -0.515625q-0.84375 0 -1.34375 0.515625q-0.484375 0.5 -0.484375 1.453125l0 4.484375l-2.046875 0l0 -8.125l2.046875 0l0 0.984375q0.390625 -0.515625 1.015625 -0.796875q0.625 -0.296875 1.375 -0.296875q0.953125 0 1.703125 0.40625q0.75 0.390625 1.15625 1.140625q0.390625 -0.703125 1.140625 -1.125q0.765625 -0.421875 1.640625 -0.421875zm6.3129272 -0.859375q-0.53125 0 -0.890625 -0.34375q-0.359375 -0.34375 -0.359375 -0.84375q0 -0.515625 0.359375 -0.859375q0.359375 -0.34375 0.890625 -0.34375q0.546875 0 0.90625 0.34375q0.359375 0.34375 0.359375 0.859375q0 0.5 -0.359375 0.84375q-0.359375 0.34375 -0.90625 0.34375zm1.015625 0.96875l0 8.125l-2.046875 0l0 -8.125l2.046875 0zm1.4963074 4.0625q0 -1.25 0.515625 -2.1875q0.515625 -0.953125 1.421875 -1.46875q0.90625 -0.53125 2.078125 -0.53125q1.515625 0 2.5 0.765625q0.984375 0.75 1.328125 2.109375l-2.21875 0q-0.171875 -0.53125 -0.59375 -0.828125q-0.421875 -0.296875 -1.03125 -0.296875q-0.875 0 -1.390625 0.640625q-0.515625 0.625 -0.515625 1.796875q0 1.15625 0.515625 1.796875q0.515625 0.640625 1.390625 0.640625q1.25 0 1.625 -1.109375l2.21875 0q-0.34375 1.3125 -1.34375 2.09375q-0.984375 0.765625 -2.484375 0.765625q-1.171875 0 -2.078125 -0.515625q-0.90625 -0.515625 -1.421875 -1.453125q-0.515625 -0.953125 -0.515625 -2.21875zm11.401215 -2.796875q0.390625 -0.640625 1.03125 -1.0q0.640625 -0.375 1.46875 -0.375l0 2.15625l-0.546875 0q-0.96875 0 -1.46875 0.453125q-0.484375 0.453125 -0.484375 1.578125l0 4.046875l-2.046875 0l0 -8.125l2.046875 0l0 1.265625zm7.4680176 6.984375q-1.171875 0 -2.109375 -0.515625q-0.9375 -0.515625 -1.46875 -1.46875q-0.53125 -0.953125 -0.53125 -2.203125q0 -1.25 0.546875 -2.1875q0.546875 -0.953125 1.5 -1.46875q0.953125 -0.53125 2.125 -0.53125q1.171875 0 2.125 0.53125q0.953125 0.515625 1.5 1.46875q0.5625 0.9375 0.5625 2.1875q0 1.25 -0.578125 2.203125q-0.5625 0.953125 -1.53125 1.46875q-0.953125 0.515625 -2.140625 0.515625zm0 -1.78125q0.5625 0 1.046875 -0.265625q0.5 -0.28125 0.78125 -0.8125q0.296875 -0.546875 0.296875 -1.328125q0 -1.15625 -0.609375 -1.78125q-0.59375 -0.625 -1.484375 -0.625q-0.875 0 -1.46875 0.625q-0.59375 0.625 -0.59375 1.78125q0 1.15625 0.578125 1.78125q0.578125 0.625 1.453125 0.625zm8.866364 1.78125q-1.0 0 -1.796875 -0.359375q-0.796875 -0.359375 -1.265625 -0.96875q-0.453125 -0.609375 -0.484375 -1.359375l2.0625 0q0.0625 0.46875 0.453125 0.78125q0.40625 0.296875 1.015625 0.296875q0.578125 0 0.90625 -0.234375q0.328125 -0.234375 0.328125 -0.59375q0 -0.40625 -0.40625 -0.59375q-0.390625 -0.203125 -1.265625 -0.4375q-0.921875 -0.21875 -1.5 -0.453125q-0.578125 -0.234375 -1.0 -0.71875q-0.40625 -0.484375 -0.40625 -1.296875q0 -0.6875 0.375 -1.234375q0.390625 -0.5625 1.109375 -0.875q0.734375 -0.328125 1.71875 -0.328125q1.453125 0 2.3125 0.734375q0.875 0.71875 0.953125 1.953125l-1.953125 0q-0.046875 -0.484375 -0.40625 -0.765625q-0.359375 -0.296875 -0.96875 -0.296875q-0.546875 0 -0.859375 0.203125q-0.296875 0.203125 -0.296875 0.578125q0 0.40625 0.40625 0.625q0.421875 0.203125 1.28125 0.421875q0.875 0.21875 1.453125 0.453125q0.578125 0.234375 0.984375 0.734375q0.421875 0.484375 0.4375 1.296875q0 0.703125 -0.390625 1.265625q-0.390625 0.546875 -1.125 0.859375q-0.71875 0.3125 -1.671875 0.3125zm12.425171 -4.359375q0 0.4375 -0.0625 0.796875l-5.9375 0q0.078125 0.875 0.609375 1.375q0.546875 0.5 1.34375 0.5q1.140625 0 1.625 -0.984375l2.21875 0q-0.359375 1.171875 -1.359375 1.921875q-0.984375 0.75 -2.4375 0.75q-1.171875 0 -2.109375 -0.515625q-0.921875 -0.515625 -1.453125 -1.46875q-0.515625 -0.953125 -0.515625 -2.203125q0 -1.25 0.515625 -2.203125q0.515625 -0.953125 1.4375 -1.46875q0.921875 -0.515625 2.125 -0.515625q1.15625 0 2.0625 0.5q0.921875 0.5 1.421875 1.421875q0.515625 0.90625 0.515625 2.09375zm-2.125 -0.59375q-0.015625 -0.78125 -0.578125 -1.25q-0.546875 -0.484375 -1.359375 -0.484375q-0.765625 0 -1.28125 0.46875q-0.515625 0.453125 -0.640625 1.265625l3.859375 0zm5.667938 -2.03125q0.390625 -0.640625 1.03125 -1.0q0.640625 -0.375 1.46875 -0.375l0 2.15625l-0.546875 0q-0.96875 0 -1.46875 0.453125q-0.484375 0.453125 -0.484375 1.578125l0 4.046875l-2.046875 0l0 -8.125l2.046875 0l0 1.265625zm7.2492676 4.96875l2.0625 -6.234375l2.171875 0l-3.0 8.125l-2.484375 0l-3.0 -8.125l2.203125 0l2.046875 6.234375zm6.4353943 -7.203125q-0.53125 0 -0.890625 -0.34375q-0.359375 -0.34375 -0.359375 -0.84375q0 -0.515625 0.359375 -0.859375q0.359375 -0.34375 0.890625 -0.34375q0.546875 0 0.90625 0.34375q0.359375 0.34375 0.359375 0.859375q0 0.5 -0.359375 0.84375q-0.359375 0.34375 -0.90625 0.34375zm1.015625 0.96875l0 8.125l-2.046875 0l0 -8.125l2.046875 0zm1.4963074 4.0625q0 -1.25 0.515625 -2.1875q0.515625 -0.953125 1.421875 -1.46875q0.90625 -0.53125 2.078125 -0.53125q1.515625 0 2.5 0.765625q0.984375 0.75 1.328125 2.109375l-2.21875 0q-0.171875 -0.53125 -0.59375 -0.828125q-0.421875 -0.296875 -1.03125 -0.296875q-0.875 0 -1.390625 0.640625q-0.515625 0.625 -0.515625 1.796875q0 1.15625 0.515625 1.796875q0.515625 0.640625 1.390625 0.640625q1.25 0 1.625 -1.109375l2.21875 0q-0.34375 1.3125 -1.34375 2.09375q-0.984375 0.765625 -2.484375 0.765625q-1.171875 0 -2.078125 -0.515625q-0.90625 -0.515625 -1.421875 -1.453125q-0.515625 -0.953125 -0.515625 -2.21875zm16.901215 -0.171875q0 0.4375 -0.0625 0.796875l-5.9375 0q0.078125 0.875 0.609375 1.375q0.546875 0.5 1.34375 0.5q1.140625 0 1.625 -0.984375l2.21875 0q-0.359375 1.171875 -1.359375 1.921875q-0.984375 0.75 -2.4375 0.75q-1.171875 0 -2.109375 -0.515625q-0.921875 -0.515625 -1.453125 -1.46875q-0.515625 -0.953125 -0.515625 -2.203125q0 -1.25 0.515625 -2.203125q0.515625 -0.953125 1.4375 -1.46875q0.921875 -0.515625 2.125 -0.515625q1.15625 0 2.0625 0.5q0.921875 0.5 1.421875 1.421875q0.515625 0.90625 0.515625 2.09375zm-2.125 -0.59375q-0.015625 -0.78125 -0.578125 -1.25q-0.546875 -0.484375 -1.359375 -0.484375q-0.765625 0 -1.28125 0.46875q-0.515625 0.453125 -0.640625 1.265625l3.859375 0z" fill-rule="nonzero"/></g><path fill="#000000" fill-opacity="0.0" d="m445.33588 161.07469l0 44.724396" fill-rule="evenodd"/><path stroke="#000000" stroke-width="2.0" stroke-linejoin="round" stroke-linecap="butt" d="m445.33588 161.07468l0 32.72441" fill-rule="evenodd"/><path fill="#000000" stroke="#000000" stroke-width="2.0" stroke-linecap="butt" d="m442.0324 193.79909l3.3034668 9.076202l3.3034668 -9.076202z" fill-rule="evenodd"/><g filter="url(#shadowFilter-g2defaaf4e68_0_47.5)"/><defs><filter id="shadowFilter-g2defaaf4e68_0_47.5" filterUnits="userSpaceOnUse"><feGaussianBlur in="SourceAlpha" stdDeviation="4.0" result="blur"/><feComponentTransfer in="blur" color-interpolation-filters="sRGB"><feFuncR type="linear"/><feFuncG type="linear"/><feFuncB type="linear"/><feFuncA type="linear"/></feComponentTransfer></filter></defs><g id="g2defaaf4e68_0_47.5"><path fill="#ffffff" d="m375.41464 349.3847l0 0c0 -5.3026123 4.2986145 -9.601227 9.601227 -9.601227l120.640045 0c2.5464172 0 4.9885254 1.0115356 6.789093 2.8121338c1.8005981 1.8005676 2.8121338 4.242676 2.8121338 6.789093l0 38.40381c0 5.302643 -4.2986145 9.601257 -9.601227 9.601257l-120.640045 0c-5.3026123 0 -9.601227 -4.2986145 -9.601227 -9.601257z" fill-rule="evenodd"/><path stroke="#000000" stroke-width="2.0" stroke-linejoin="round" stroke-linecap="butt" d="m375.41464 349.3847l0 0c0 -5.3026123 4.2986145 -9.601227 9.601227 -9.601227l120.640045 0c2.5464172 0 4.9885254 1.0115356 6.789093 2.8121338c1.8005981 1.8005676 2.8121338 4.242676 2.8121338 6.789093l0 38.40381c0 5.302643 -4.2986145 9.601257 -9.601227 9.601257l-120.640045 0c-5.3026123 0 -9.601227 -4.2986145 -9.601227 -9.601257z" fill-rule="evenodd"/><path fill="#000000" d="m418.32666 355.57288q-0.53125 0 -0.890625 -0.34375q-0.359375 -0.34375 -0.359375 -0.84375q0 -0.515625 0.359375 -0.859375q0.359375 -0.34375 0.890625 -0.34375q0.546875 0 0.90625 0.34375q0.359375 0.34375 0.359375 0.859375q0 0.5 -0.359375 0.84375q-0.359375 0.34375 -0.90625 0.34375zm1.015625 0.96875l0 8.125l-2.046875 0l0 -8.125l2.046875 0zm6.5275574 -0.109375q1.453125 0 2.34375 0.921875q0.890625 0.90625 0.890625 2.546875l0 4.765625l-2.046875 0l0 -4.484375q0 -0.96875 -0.484375 -1.484375q-0.484375 -0.53125 -1.328125 -0.53125q-0.84375 0 -1.34375 0.53125q-0.484375 0.515625 -0.484375 1.484375l0 4.484375l-2.046875 0l0 -8.125l2.046875 0l0 1.015625q0.40625 -0.53125 1.046875 -0.828125q0.640625 -0.296875 1.40625 -0.296875zm7.5784607 1.796875l0 3.9375q0 0.40625 0.1875 0.59375q0.203125 0.171875 0.671875 0.171875l0.953125 0l0 1.734375l-1.296875 0q-2.59375 0 -2.59375 -2.515625l0 -3.921875l-0.96875 0l0 -1.6875l0.96875 0l0 -2.0l2.078125 0l0 2.0l1.8125 0l0 1.6875l-1.8125 0zm10.8428955 2.203125q0 0.4375 -0.0625 0.796875l-5.9375 0q0.078125 0.875 0.609375 1.375q0.546875 0.5 1.34375 0.5q1.140625 0 1.625 -0.984375l2.21875 0q-0.359375 1.171875 -1.359375 1.921875q-0.984375 0.75 -2.4375 0.75q-1.171875 0 -2.109375 -0.515625q-0.921875 -0.515625 -1.453125 -1.46875q-0.515625 -0.953125 -0.515625 -2.203125q0 -1.25 0.515625 -2.203125q0.515625 -0.953125 1.4375 -1.46875q0.921875 -0.515625 2.125 -0.515625q1.15625 0 2.0625 0.5q0.921875 0.5 1.421875 1.421875q0.515625 0.90625 0.515625 2.09375zm-2.125 -0.59375q-0.015625 -0.78125 -0.578125 -1.25q-0.546875 -0.484375 -1.359375 -0.484375q-0.765625 0 -1.28125 0.46875q-0.515625 0.453125 -0.640625 1.265625l3.859375 0zm5.667938 -2.03125q0.390625 -0.640625 1.03125 -1.0q0.640625 -0.375 1.46875 -0.375l0 2.15625l-0.546875 0q-0.96875 0 -1.46875 0.453125q-0.484375 0.453125 -0.484375 1.578125l0 4.046875l-2.046875 0l0 -8.125l2.046875 0l0 1.265625zm8.374268 -1.375q1.453125 0 2.34375 0.921875q0.890625 0.90625 0.890625 2.546875l0 4.765625l-2.046875 0l0 -4.484375q0 -0.96875 -0.484375 -1.484375q-0.484375 -0.53125 -1.328125 -0.53125q-0.84375 0 -1.34375 0.53125q-0.484375 0.515625 -0.484375 1.484375l0 4.484375l-2.046875 0l0 -8.125l2.046875 0l0 1.015625q0.40625 -0.53125 1.046875 -0.828125q0.640625 -0.296875 1.40625 -0.296875zm4.656555 4.140625q0 -1.21875 0.484375 -2.171875q0.5 -0.953125 1.34375 -1.46875q0.84375 -0.515625 1.875 -0.515625q0.90625 0 1.59375 0.375q0.6875 0.359375 1.09375 0.90625l0 -1.15625l2.0625 0l0 8.125l-2.0625 0l0 -1.1875q-0.390625 0.578125 -1.09375 0.953125q-0.703125 0.359375 -1.609375 0.359375q-1.015625 0 -1.859375 -0.515625q-0.84375 -0.53125 -1.34375 -1.484375q-0.484375 -0.96875 -0.484375 -2.21875zm6.390625 0.03125q0 -0.75 -0.296875 -1.28125q-0.296875 -0.53125 -0.796875 -0.8125q-0.484375 -0.296875 -1.0625 -0.296875q-0.578125 0 -1.0625 0.28125q-0.46875 0.28125 -0.78125 0.8125q-0.296875 0.53125 -0.296875 1.265625q0 0.734375 0.296875 1.296875q0.3125 0.546875 0.796875 0.84375q0.484375 0.28125 1.046875 0.28125q0.578125 0 1.0625 -0.28125q0.5 -0.296875 0.796875 -0.828125q0.296875 -0.53125 0.296875 -1.28125zm6.124481 -6.78125l0 10.84375l-2.046875 0l0 -10.84375l2.046875 0z" fill-rule="nonzero"/><path fill="#000000" d="m403.8355 374.43225q1.5 0 2.40625 0.921875q0.921875 0.90625 0.921875 2.546875l0 4.765625l-2.046875 0l0 -4.484375q0 -0.953125 -0.484375 -1.453125q-0.484375 -0.515625 -1.328125 -0.515625q-0.828125 0 -1.328125 0.515625q-0.484375 0.5 -0.484375 1.453125l0 4.484375l-2.046875 0l0 -4.484375q0 -0.953125 -0.484375 -1.453125q-0.484375 -0.515625 -1.328125 -0.515625q-0.84375 0 -1.34375 0.515625q-0.484375 0.5 -0.484375 1.453125l0 4.484375l-2.046875 0l0 -8.125l2.046875 0l0 0.984375q0.390625 -0.515625 1.015625 -0.796875q0.625 -0.296875 1.375 -0.296875q0.953125 0 1.703125 0.40625q0.75 0.390625 1.15625 1.140625q0.390625 -0.703125 1.140625 -1.125q0.765625 -0.421875 1.640625 -0.421875zm6.3129272 -0.859375q-0.53125 0 -0.890625 -0.34375q-0.359375 -0.34375 -0.359375 -0.84375q0 -0.515625 0.359375 -0.859375q0.359375 -0.34375 0.890625 -0.34375q0.546875 0 0.90625 0.34375q0.359375 0.34375 0.359375 0.859375q0 0.5 -0.359375 0.84375q-0.359375 0.34375 -0.90625 0.34375zm1.015625 0.96875l0 8.125l-2.046875 0l0 -8.125l2.046875 0zm1.4963379 4.0625q0 -1.25 0.515625 -2.1875q0.515625 -0.953125 1.421875 -1.46875q0.90625 -0.53125 2.078125 -0.53125q1.515625 0 2.5 0.765625q0.984375 0.75 1.328125 2.109375l-2.21875 0q-0.171875 -0.53125 -0.59375 -0.828125q-0.421875 -0.296875 -1.03125 -0.296875q-0.875 0 -1.390625 0.640625q-0.515625 0.625 -0.515625 1.796875q0 1.15625 0.515625 1.796875q0.515625 0.640625 1.390625 0.640625q1.25 0 1.625 -1.109375l2.21875 0q-0.34375 1.3125 -1.34375 2.09375q-0.984375 0.765625 -2.484375 0.765625q-1.171875 0 -2.078125 -0.515625q-0.90625 -0.515625 -1.421875 -1.453125q-0.515625 -0.953125 -0.515625 -2.21875zm11.401215 -2.796875q0.390625 -0.640625 1.03125 -1.0q0.640625 -0.375 1.46875 -0.375l0 2.15625l-0.546875 0q-0.96875 0 -1.46875 0.453125q-0.484375 0.453125 -0.484375 1.578125l0 4.046875l-2.046875 0l0 -8.125l2.046875 0l0 1.265625zm7.4680176 6.984375q-1.171875 0 -2.109375 -0.515625q-0.9375 -0.515625 -1.46875 -1.46875q-0.53125 -0.953125 -0.53125 -2.203125q0 -1.25 0.546875 -2.1875q0.546875 -0.953125 1.5 -1.46875q0.953125 -0.53125 2.125 -0.53125q1.171875 0 2.125 0.53125q0.953125 0.515625 1.5 1.46875q0.5625 0.9375 0.5625 2.1875q0 1.25 -0.578125 2.203125q-0.5625 0.953125 -1.53125 1.46875q-0.953125 0.515625 -2.140625 0.515625zm0 -1.78125q0.5625 0 1.046875 -0.265625q0.5 -0.28125 0.78125 -0.8125q0.296875 -0.546875 0.296875 -1.328125q0 -1.15625 -0.609375 -1.78125q-0.59375 -0.625 -1.484375 -0.625q-0.875 0 -1.46875 0.625q-0.59375 0.625 -0.59375 1.78125q0 1.15625 0.578125 1.78125q0.578125 0.625 1.453125 0.625zm8.866333 1.78125q-1.0 0 -1.796875 -0.359375q-0.796875 -0.359375 -1.265625 -0.96875q-0.453125 -0.609375 -0.484375 -1.359375l2.0625 0q0.0625 0.46875 0.453125 0.78125q0.40625 0.296875 1.015625 0.296875q0.578125 0 0.90625 -0.234375q0.328125 -0.234375 0.328125 -0.59375q0 -0.40625 -0.40625 -0.59375q-0.390625 -0.203125 -1.265625 -0.4375q-0.921875 -0.21875 -1.5 -0.453125q-0.578125 -0.234375 -1.0 -0.71875q-0.40625 -0.484375 -0.40625 -1.296875q0 -0.6875 0.375 -1.234375q0.390625 -0.5625 1.109375 -0.875q0.734375 -0.328125 1.71875 -0.328125q1.453125 0 2.3125 0.734375q0.875 0.71875 0.953125 1.953125l-1.953125 0q-0.046875 -0.484375 -0.40625 -0.765625q-0.359375 -0.296875 -0.96875 -0.296875q-0.546875 0 -0.859375 0.203125q-0.296875 0.203125 -0.296875 0.578125q0 0.40625 0.40625 0.625q0.421875 0.203125 1.28125 0.421875q0.875 0.21875 1.453125 0.453125q0.578125 0.234375 0.984375 0.734375q0.421875 0.484375 0.4375 1.296875q0 0.703125 -0.390625 1.265625q-0.390625 0.546875 -1.125 0.859375q-0.71875 0.3125 -1.671875 0.3125zm12.425201 -4.359375q0 0.4375 -0.0625 0.796875l-5.9375 0q0.078125 0.875 0.609375 1.375q0.546875 0.5 1.34375 0.5q1.140625 0 1.625 -0.984375l2.21875 0q-0.359375 1.171875 -1.359375 1.921875q-0.984375 0.75 -2.4375 0.75q-1.171875 0 -2.109375 -0.515625q-0.921875 -0.515625 -1.453125 -1.46875q-0.515625 -0.953125 -0.515625 -2.203125q0 -1.25 0.515625 -2.203125q0.515625 -0.953125 1.4375 -1.46875q0.921875 -0.515625 2.125 -0.515625q1.15625 0 2.0625 0.5q0.921875 0.5 1.421875 1.421875q0.515625 0.90625 0.515625 2.09375zm-2.125 -0.59375q-0.015625 -0.78125 -0.578125 -1.25q-0.546875 -0.484375 -1.359375 -0.484375q-0.765625 0 -1.28125 0.46875q-0.515625 0.453125 -0.640625 1.265625l3.859375 0zm5.667938 -2.03125q0.390625 -0.640625 1.03125 -1.0q0.640625 -0.375 1.46875 -0.375l0 2.15625l-0.546875 0q-0.96875 0 -1.46875 0.453125q-0.484375 0.453125 -0.484375 1.578125l0 4.046875l-2.046875 0l0 -8.125l2.046875 0l0 1.265625zm7.2492676 4.96875l2.0625 -6.234375l2.171875 0l-3.0 8.125l-2.484375 0l-3.0 -8.125l2.203125 0l2.046875 6.234375zm6.435364 -7.203125q-0.53125 0 -0.890625 -0.34375q-0.359375 -0.34375 -0.359375 -0.84375q0 -0.515625 0.359375 -0.859375q0.359375 -0.34375 0.890625 -0.34375q0.546875 0 0.90625 0.34375q0.359375 0.34375 0.359375 0.859375q0 0.5 -0.359375 0.84375q-0.359375 0.34375 -0.90625 0.34375zm1.015625 0.96875l0 8.125l-2.046875 0l0 -8.125l2.046875 0zm1.4963379 4.0625q0 -1.25 0.515625 -2.1875q0.515625 -0.953125 1.421875 -1.46875q0.90625 -0.53125 2.078125 -0.53125q1.515625 0 2.5 0.765625q0.984375 0.75 1.328125 2.109375l-2.21875 0q-0.171875 -0.53125 -0.59375 -0.828125q-0.421875 -0.296875 -1.03125 -0.296875q-0.875 0 -1.390625 0.640625q-0.515625 0.625 -0.515625 1.796875q0 1.15625 0.515625 1.796875q0.515625 0.640625 1.390625 0.640625q1.25 0 1.625 -1.109375l2.21875 0q-0.34375 1.3125 -1.34375 2.09375q-0.984375 0.765625 -2.484375 0.765625q-1.171875 0 -2.078125 -0.515625q-0.90625 -0.515625 -1.421875 -1.453125q-0.515625 -0.953125 -0.515625 -2.21875zm16.901215 -0.171875q0 0.4375 -0.0625 0.796875l-5.9375 0q0.078125 0.875 0.609375 1.375q0.546875 0.5 1.34375 0.5q1.140625 0 1.625 -0.984375l2.21875 0q-0.359375 1.171875 -1.359375 1.921875q-0.984375 0.75 -2.4375 0.75q-1.171875 0 -2.109375 -0.515625q-0.921875 -0.515625 -1.453125 -1.46875q-0.515625 -0.953125 -0.515625 -2.203125q0 -1.25 0.515625 -2.203125q0.515625 -0.953125 1.4375 -1.46875q0.921875 -0.515625 2.125 -0.515625q1.15625 0 2.0625 0.5q0.921875 0.5 1.421875 1.421875q0.515625 0.90625 0.515625 2.09375zm-2.125 -0.59375q-0.015625 -0.78125 -0.578125 -1.25q-0.546875 -0.484375 -1.359375 -0.484375q-0.765625 0 -1.28125 0.46875q-0.515625 0.453125 -0.640625 1.265625l3.859375 0zm6.730438 4.953125q-1.0 0 -1.796875 -0.359375q-0.796875 -0.359375 -1.265625 -0.96875q-0.453125 -0.609375 -0.484375 -1.359375l2.0625 0q0.0625 0.46875 0.453125 0.78125q0.40625 0.296875 1.015625 0.296875q0.578125 0 0.90625 -0.234375q0.328125 -0.234375 0.328125 -0.59375q0 -0.40625 -0.40625 -0.59375q-0.390625 -0.203125 -1.265625 -0.4375q-0.921875 -0.21875 -1.5 -0.453125q-0.578125 -0.234375 -1.0 -0.71875q-0.40625 -0.484375 -0.40625 -1.296875q0 -0.6875 0.375 -1.234375q0.390625 -0.5625 1.109375 -0.875q0.734375 -0.328125 1.71875 -0.328125q1.453125 0 2.3125 0.734375q0.875 0.71875 0.953125 1.953125l-1.953125 0q-0.046875 -0.484375 -0.40625 -0.765625q-0.359375 -0.296875 -0.96875 -0.296875q-0.546875 0 -0.859375 0.203125q-0.296875 0.203125 -0.296875 0.578125q0 0.40625 0.40625 0.625q0.421875 0.203125 1.28125 0.421875q0.875 0.21875 1.453125 0.453125q0.578125 0.234375 0.984375 0.734375q0.421875 0.484375 0.4375 1.296875q0 0.703125 -0.390625 1.265625q-0.390625 0.546875 -1.125 0.859375q-0.71875 0.3125 -1.671875 0.3125z" fill-rule="nonzero"/></g><path fill="#000000" fill-opacity="0.0" d="m445.3359 263.38977l0 76.409454" fill-rule="evenodd"/><path stroke="#000000" stroke-width="2.0" stroke-linejoin="round" stroke-linecap="butt" d="m445.3359 263.38977l0 64.409454" fill-rule="evenodd"/><path fill="#000000" stroke="#000000" stroke-width="2.0" stroke-linecap="butt" d="m442.03244 327.79922l3.3034668 9.076172l3.3034668 -9.076172z" fill-rule="evenodd"/><path fill="#000000" fill-opacity="0.0" d="m456.36215 263.38977l19.968506 64.97638" fill-rule="evenodd"/><path stroke="#000000" stroke-width="2.0" stroke-linejoin="round" stroke-linecap="butt" d="m456.36215 263.38977l16.44339 53.50583" fill-rule="evenodd"/><path fill="#000000" stroke="#000000" stroke-width="2.0" stroke-linecap="butt" d="m469.64783 317.86603l5.823944 7.7053223l0.4914856 -9.646179z" fill-rule="evenodd"/><path fill="#000000" fill-opacity="0.0" d="m445.3359 397.38977c0 12.5 38.622345 26.978516 73.97928 25.00003c35.356873 -1.9784851 67.448364 -20.41391 73.97925 -39.838593c6.5308228 -19.424683 -12.498962 -39.838623 -24.997925 -39.838623" fill-rule="evenodd"/><path stroke="#595959" stroke-width="2.0" stroke-linejoin="round" stroke-linecap="butt" d="m452.3279 407.1423l0.39813232 0.28167725c0.27444458 0.19143677 0.5555725 0.3821106 0.8432617 0.572052c0.5753479 0.37982178 1.1769104 0.75650024 1.8034363 1.1294861c1.2530518 0.7460327 2.605774 1.4772949 4.048065 2.1892395c2.8845215 1.4239197 6.1271057 2.770752 9.645874 4.0044556c14.075226 4.9348145 32.570038 8.059814 50.248505 7.070587c35.356873 -1.9784546 67.448364 -20.41391 73.97925 -39.838623c6.530884 -19.424652 -12.498962 -39.838593 -24.997864 -39.838593" fill-rule="evenodd"/><path fill="#595959" stroke="#595959" stroke-width="2.0" stroke-linecap="butt" d="m455.01266 405.21747l-7.9731445 -5.4515076l2.6036377 9.301147z" fill-rule="evenodd"/><path fill="#000000" fill-opacity="0.0" d="m337.7638 408.84647l86.11023 0l0 41.35431l-86.11023 0z" fill-rule="evenodd"/><path fill="#595959" d="m357.54504 422.08145l-4.171875 11.125l-2.109375 0l-4.203125 -11.125l1.953125 0l3.296875 9.25l3.3125 -9.25l1.921875 0zm9.291504 3.3125q0 0.859375 -0.40625 1.609375q-0.390625 0.75 -1.265625 1.21875q-0.875 0.46875 -2.25 0.46875l-2.015625 0l0 4.515625l-1.828125 0l0 -11.125l3.84375 0q1.265625 0 2.15625 0.453125q0.890625 0.4375 1.328125 1.1875q0.4375 0.75 0.4375 1.671875zm-3.921875 1.8125q1.03125 0 1.546875 -0.46875q0.515625 -0.46875 0.515625 -1.34375q0 -1.8125 -2.0625 -1.8125l-2.015625 0l0 3.625l2.015625 0zm5.0668945 0.421875q0 -1.640625 0.75 -2.9375q0.765625 -1.296875 2.0625 -2.015625q1.3125 -0.734375 2.859375 -0.734375q1.78125 0 3.15625 0.875q1.390625 0.875 2.015625 2.46875l-2.1875 0q-0.4375 -0.875 -1.203125 -1.296875q-0.765625 -0.4375 -1.78125 -0.4375q-1.09375 0 -1.96875 0.5q-0.859375 0.484375 -1.34375 1.421875q-0.484375 0.921875 -0.484375 2.15625q0 1.21875 0.484375 2.15625q0.484375 0.921875 1.34375 1.4375q0.875 0.5 1.96875 0.5q1.015625 0 1.78125 -0.4375q0.765625 -0.4375 1.203125 -1.3125l2.1875 0q-0.625 1.609375 -2.015625 2.46875q-1.375 0.859375 -3.15625 0.859375q-1.5625 0 -2.859375 -0.71875q-1.296875 -0.734375 -2.0625 -2.03125q-0.75 -1.296875 -0.75 -2.921875z" fill-rule="nonzero"/></g></svg>