<svg xmlns="http://www.w3.org/2000/svg" xmlns:xlink="http://www.w3.org/1999/xlink" stroke-miterlimit="10" stroke-linecap="square" stroke="none" fill="none" viewBox="280.7649043869516 117.72 401.7097862767154 304.55999999999995" version="1.1" style="max-height: 500px" width="401.7097862767154" height="304.55999999999995"><clipPath id="g2defaaf4e68_0_29.0"><path clip-rule="nonzero" d="m0 0l960.0 0l0 540.0l-960.0 0l0 -540.0z"/></clipPath><g clip-path="url(#g2defaaf4e68_0_29.0)"><path fill-rule="evenodd" d="m0 0l960.0 0l0 540.0l-960.0 0z" fill="#ffffff"/><path fill-rule="evenodd" d="m286.31714 154.15266l43.77954 0.12599182" fill-opacity="0.0" fill="#000000"/><path fill-rule="evenodd" d="m286.31717 154.15268l31.779541 0.09144592" stroke-linecap="butt" stroke-linejoin="round" stroke-width="2.0" stroke="#000000"/><path fill-rule="evenodd" d="m318.08722 157.54758l9.085663 -3.2773285l-9.06665 -3.3295746z" stroke-linecap="butt" stroke-width="2.0" stroke="#000000" fill="#000000"/><g filter="url(#shadowFilter-g2defaaf4e68_0_29.1)"/><defs><filter filterUnits="userSpaceOnUse" id="shadowFilter-g2defaaf4e68_0_29.1"><feGaussianBlur result="blur" stdDeviation="4.0" in="SourceAlpha"/><feComponentTransfer color-interpolation-filters="sRGB" in="blur"><feFuncR type="linear"/><feFuncG type="linear"/><feFuncB type="linear"/><feFuncA type="linear"/></feComponentTransfer></filter></defs><g id="g2defaaf4e68_0_29.1"><path fill-rule="evenodd" d="m332.31412 240.37103l0 0c0 -5.3026276 4.2986145 -9.601242 9.601227 -9.601242l100.797516 0c2.5464172 0 4.9885254 1.0115509 6.7891235 2.8121338c1.8005676 1.8005829 2.8121338 4.242691 2.8121338 6.7891083l0 38.40381c0 5.3026123 -4.2986145 9.601257 -9.601257 9.601257l-100.797516 0c-5.3026123 0 -9.601227 -4.298645 -9.601227 -9.601257z" fill="#ffffff"/><path fill-rule="evenodd" d="m332.31412 240.37103l0 0c0 -5.3026276 4.2986145 -9.601242 9.601227 -9.601242l100.797516 0c2.5464172 0 4.9885254 1.0115509 6.7891235 2.8121338c1.8005676 1.8005829 2.8121338 4.242691 2.8121338 6.7891083l0 38.40381c0 5.3026123 -4.2986145 9.601257 -9.601257 9.601257l-100.797516 0c-5.3026123 0 -9.601227 -4.298645 -9.601227 -9.601257z" stroke-linecap="butt" stroke-linejoin="round" stroke-width="2.0" stroke="#000000"/><path fill-rule="nonzero" d="m366.3205 245.41856l0 10.234375l-2.046875 0l0 -10.234375l2.046875 0zm6.5275574 2.0q1.453125 0 2.34375 0.921875q0.890625 0.90625 0.890625 2.546875l0 4.765625l-2.046875 0l0 -4.484375q0 -0.96875 -0.484375 -1.484375q-0.484375 -0.53125 -1.328125 -0.53125q-0.84375 0 -1.34375 0.53125q-0.484375 0.515625 -0.484375 1.484375l0 4.484375l-2.046875 0l0 -8.125l2.046875 0l0 1.015625q0.40625 -0.53125 1.046875 -0.828125q0.640625 -0.296875 1.40625 -0.296875zm7.5784607 1.796875l0 3.9375q0 0.40625 0.1875 0.59375q0.203125 0.171875 0.671875 0.171875l0.953125 0l0 1.734375l-1.296875 0q-2.59375 0 -2.59375 -2.515625l0 -3.921875l-0.96875 0l0 -1.6875l0.96875 0l0 -2.0l2.078125 0l0 2.0l1.8125 0l0 1.6875l-1.8125 0zm10.8428955 2.203125q0 0.4375 -0.0625 0.796875l-5.9375 0q0.078125 0.875 0.609375 1.375q0.546875 0.5 1.34375 0.5q1.140625 0 1.625 -0.984375l2.21875 0q-0.359375 1.171875 -1.359375 1.921875q-0.984375 0.75 -2.4375 0.75q-1.171875 0 -2.109375 -0.515625q-0.921875 -0.515625 -1.453125 -1.46875q-0.515625 -0.953125 -0.515625 -2.203125q0 -1.25 0.515625 -2.203125q0.515625 -0.953125 1.4375 -1.46875q0.921875 -0.515625 2.125 -0.515625q1.15625 0 2.0625 0.5q0.921875 0.5 1.421875 1.421875q0.515625 0.90625 0.515625 2.09375zm-2.125 -0.59375q-0.015625 -0.78125 -0.578125 -1.25q-0.546875 -0.484375 -1.359375 -0.484375q-0.765625 0 -1.28125 0.46875q-0.515625 0.453125 -0.640625 1.265625l3.859375 0zm5.667938 -2.03125q0.390625 -0.640625 1.03125 -1.0q0.640625 -0.375 1.46875 -0.375l0 2.15625l-0.546875 0q-0.96875 0 -1.46875 0.453125q-0.484375 0.453125 -0.484375 1.578125l0 4.046875l-2.046875 0l0 -8.125l2.046875 0l0 1.265625zm8.374268 -1.375q1.453125 0 2.34375 0.921875q0.890625 0.90625 0.890625 2.546875l0 4.765625l-2.046875 0l0 -4.484375q0 -0.96875 -0.484375 -1.484375q-0.484375 -0.53125 -1.328125 -0.53125q-0.84375 0 -1.34375 0.53125q-0.484375 0.515625 -0.484375 1.484375l0 4.484375l-2.046875 0l0 -8.125l2.046875 0l0 1.015625q0.40625 -0.53125 1.046875 -0.828125q0.640625 -0.296875 1.40625 -0.296875zm4.6565857 4.140625q0 -1.21875 0.484375 -2.171875q0.5 -0.953125 1.34375 -1.46875q0.84375 -0.515625 1.875 -0.515625q0.90625 0 1.59375 0.375q0.6875 0.359375 1.09375 0.90625l0 -1.15625l2.0625 0l0 8.125l-2.0625 0l0 -1.1875q-0.390625 0.578125 -1.09375 0.953125q-0.703125 0.359375 -1.609375 0.359375q-1.015625 0 -1.859375 -0.515625q-0.84375 -0.53125 -1.34375 -1.484375q-0.484375 -0.96875 -0.484375 -2.21875zm6.390625 0.03125q0 -0.75 -0.296875 -1.28125q-0.296875 -0.53125 -0.796875 -0.8125q-0.484375 -0.296875 -1.0625 -0.296875q-0.578125 0 -1.0625 0.28125q-0.46875 0.28125 -0.78125 0.8125q-0.296875 0.53125 -0.296875 1.265625q0 0.734375 0.296875 1.296875q0.3125 0.546875 0.796875 0.84375q0.484375 0.28125 1.046875 0.28125q0.578125 0 1.0625 -0.28125q0.5 -0.296875 0.796875 -0.828125q0.296875 -0.53125 0.296875 -1.28125zm6.124481 -6.78125l0 10.84375l-2.046875 0l0 -10.84375l2.046875 0z" fill="#000000"/><path fill-rule="nonzero" d="m369.3537 265.52792l0 8.125l-2.078125 0l0 -1.25q-0.375 0.65625 -1.03125 1.015625q-0.65625 0.34375 -1.5 0.34375q-0.640625 0 -1.09375 -0.28125l0 4.046875l-2.046875 0l0 -12.0l2.046875 0l0 4.46875q0 0.953125 0.484375 1.46875q0.5 0.515625 1.328125 0.515625q0.84375 0 1.328125 -0.515625q0.484375 -0.515625 0.484375 -1.46875l0 -4.46875l2.078125 0zm5.218231 8.25q-1.0 0 -1.796875 -0.359375q-0.796875 -0.359375 -1.265625 -0.96875q-0.453125 -0.609375 -0.484375 -1.359375l2.0625 0q0.0625 0.46875 0.453125 0.78125q0.40625 0.296875 1.015625 0.296875q0.578125 0 0.90625 -0.234375q0.328125 -0.234375 0.328125 -0.59375q0 -0.40625 -0.40625 -0.59375q-0.390625 -0.203125 -1.265625 -0.4375q-0.921875 -0.21875 -1.5 -0.453125q-0.578125 -0.234375 -1.0 -0.71875q-0.40625 -0.484375 -0.40625 -1.296875q0 -0.6875 0.375 -1.234375q0.390625 -0.5625 1.109375 -0.875q0.734375 -0.328125 1.71875 -0.328125q1.453125 0 2.3125 0.734375q0.875 0.71875 0.953125 1.953125l-1.953125 0q-0.046875 -0.484375 -0.40625 -0.765625q-0.359375 -0.296875 -0.96875 -0.296875q-0.546875 0 -0.859375 0.203125q-0.296875 0.203125 -0.296875 0.578125q0 0.40625 0.40625 0.625q0.421875 0.203125 1.28125 0.421875q0.875 0.21875 1.453125 0.453125q0.578125 0.234375 0.984375 0.734375q0.421875 0.484375 0.4375 1.296875q0 0.703125 -0.390625 1.265625q-0.390625 0.546875 -1.125 0.859375q-0.71875 0.3125 -1.671875 0.3125zm12.425171 -4.359375q0 0.4375 -0.0625 0.796875l-5.9375 0q0.078125 0.875 0.609375 1.375q0.546875 0.5 1.34375 0.5q1.140625 0 1.625 -0.984375l2.21875 0q-0.359375 1.171875 -1.359375 1.921875q-0.984375 0.75 -2.4375 0.75q-1.171875 0 -2.109375 -0.515625q-0.921875 -0.515625 -1.453125 -1.46875q-0.515625 -0.953125 -0.515625 -2.203125q0 -1.25 0.515625 -2.203125q0.515625 -0.953125 1.4375 -1.46875q0.921875 -0.515625 2.125 -0.515625q1.15625 0 2.0625 0.5q0.921875 0.5 1.421875 1.421875q0.515625 0.90625 0.515625 2.09375zm-2.125 -0.59375q-0.015625 -0.78125 -0.578125 -1.25q-0.546875 -0.484375 -1.359375 -0.484375q-0.765625 0 -1.28125 0.46875q-0.515625 0.453125 -0.640625 1.265625l3.859375 0zm5.667938 -2.03125q0.390625 -0.640625 1.03125 -1.0q0.640625 -0.375 1.46875 -0.375l0 2.15625l-0.546875 0q-0.96875 0 -1.46875 0.453125q-0.484375 0.453125 -0.484375 1.578125l0 4.046875l-2.046875 0l0 -8.125l2.046875 0l0 1.265625zm7.2492676 4.96875l2.0625 -6.234375l2.171875 0l-3.0 8.125l-2.484375 0l-3.0 -8.125l2.203125 0l2.046875 6.234375zm6.4353943 -7.203125q-0.53125 0 -0.890625 -0.34375q-0.359375 -0.34375 -0.359375 -0.84375q0 -0.515625 0.359375 -0.859375q0.359375 -0.34375 0.890625 -0.34375q0.546875 0 0.90625 0.34375q0.359375 0.34375 0.359375 0.859375q0 0.5 -0.359375 0.84375q-0.359375 0.34375 -0.90625 0.34375zm1.015625 0.96875l0 8.125l-2.046875 0l0 -8.125l2.046875 0zm1.4963074 4.0625q0 -1.25 0.515625 -2.1875q0.515625 -0.953125 1.421875 -1.46875q0.90625 -0.53125 2.078125 -0.53125q1.515625 0 2.5 0.765625q0.984375 0.75 1.328125 2.109375l-2.21875 0q-0.171875 -0.53125 -0.59375 -0.828125q-0.421875 -0.296875 -1.03125 -0.296875q-0.875 0 -1.390625 0.640625q-0.515625 0.625 -0.515625 1.796875q0 1.15625 0.515625 1.796875q0.515625 0.640625 1.390625 0.640625q1.25 0 1.625 -1.109375l2.21875 0q-0.34375 1.3125 -1.34375 2.09375q-0.984375 0.765625 -2.484375 0.765625q-1.171875 0 -2.078125 -0.515625q-0.90625 -0.515625 -1.421875 -1.453125q-0.515625 -0.953125 -0.515625 -2.21875zm16.901215 -0.171875q0 0.4375 -0.0625 0.796875l-5.9375 0q0.078125 0.875 0.609375 1.375q0.546875 0.5 1.34375 0.5q1.140625 0 1.625 -0.984375l2.21875 0q-0.359375 1.171875 -1.359375 1.921875q-0.984375 0.75 -2.4375 0.75q-1.171875 0 -2.109375 -0.515625q-0.921875 -0.515625 -1.453125 -1.46875q-0.515625 -0.953125 -0.515625 -2.203125q0 -1.25 0.515625 -2.203125q0.515625 -0.953125 1.4375 -1.46875q0.921875 -0.515625 2.125 -0.515625q1.15625 0 2.0625 0.5q0.921875 0.5 1.421875 1.421875q0.515625 0.90625 0.515625 2.09375zm-2.125 -0.59375q-0.015625 -0.78125 -0.578125 -1.25q-0.546875 -0.484375 -1.359375 -0.484375q-0.765625 0 -1.28125 0.46875q-0.515625 0.453125 -0.640625 1.265625l3.859375 0z" fill="#000000"/></g><g filter="url(#shadowFilter-g2defaaf4e68_0_29.2)"/><defs><filter filterUnits="userSpaceOnUse" id="shadowFilter-g2defaaf4e68_0_29.2"><feGaussianBlur result="blur" stdDeviation="4.0" in="SourceAlpha"/><feComponentTransfer color-interpolation-filters="sRGB" in="blur"><feFuncR type="linear"/><feFuncG type="linear"/><feFuncB type="linear"/><feFuncA type="linear"/></feComponentTransfer></filter></defs><g id="g2defaaf4e68_0_29.2"><path fill-rule="evenodd" d="m332.31412 366.75375l0 0c0 -5.3026123 4.2986145 -9.601257 9.601227 -9.601257l100.797516 0c2.5464172 0 4.9885254 1.0115662 6.7891235 2.8121643c1.8005676 1.8005676 2.8121338 4.242676 2.8121338 6.789093l0 38.40381c0 5.3026123 -4.2986145 9.601257 -9.601257 9.601257l-100.797516 0c-5.3026123 0 -9.601227 -4.298645 -9.601227 -9.601257z" fill="#ffffff"/><path fill-rule="evenodd" d="m332.31412 366.75375l0 0c0 -5.3026123 4.2986145 -9.601257 9.601227 -9.601257l100.797516 0c2.5464172 0 4.9885254 1.0115662 6.7891235 2.8121643c1.8005676 1.8005676 2.8121338 4.242676 2.8121338 6.789093l0 38.40381c0 5.3026123 -4.2986145 9.601257 -9.601257 9.601257l-100.797516 0c-5.3026123 0 -9.601227 -4.298645 -9.601227 -9.601257z" stroke-linecap="butt" stroke-linejoin="round" stroke-width="2.0" stroke="#000000"/><path fill-rule="nonzero" d="m366.3205 371.80127l0 10.234375l-2.046875 0l0 -10.234375l2.046875 0zm6.5275574 2.0q1.453125 0 2.34375 0.921875q0.890625 0.90625 0.890625 2.546875l0 4.765625l-2.046875 0l0 -4.484375q0 -0.96875 -0.484375 -1.484375q-0.484375 -0.53125 -1.328125 -0.53125q-0.84375 0 -1.34375 0.53125q-0.484375 0.515625 -0.484375 1.484375l0 4.484375l-2.046875 0l0 -8.125l2.046875 0l0 1.015625q0.40625 -0.53125 1.046875 -0.828125q0.640625 -0.296875 1.40625 -0.296875zm7.5784607 1.796875l0 3.9375q0 0.40625 0.1875 0.59375q0.203125 0.171875 0.671875 0.171875l0.953125 0l0 1.734375l-1.296875 0q-2.59375 0 -2.59375 -2.515625l0 -3.921875l-0.96875 0l0 -1.6875l0.96875 0l0 -2.0l2.078125 0l0 2.0l1.8125 0l0 1.6875l-1.8125 0zm10.8428955 2.203125q0 0.4375 -0.0625 0.796875l-5.9375 0q0.078125 0.875 0.609375 1.375q0.546875 0.5 1.34375 0.5q1.140625 0 1.625 -0.984375l2.21875 0q-0.359375 1.171875 -1.359375 1.921875q-0.984375 0.75 -2.4375 0.75q-1.171875 0 -2.109375 -0.515625q-0.921875 -0.515625 -1.453125 -1.46875q-0.515625 -0.953125 -0.515625 -2.203125q0 -1.25 0.515625 -2.203125q0.515625 -0.953125 1.4375 -1.46875q0.921875 -0.515625 2.125 -0.515625q1.15625 0 2.0625 0.5q0.921875 0.5 1.421875 1.421875q0.515625 0.90625 0.515625 2.09375zm-2.125 -0.59375q-0.015625 -0.78125 -0.578125 -1.25q-0.546875 -0.484375 -1.359375 -0.484375q-0.765625 0 -1.28125 0.46875q-0.515625 0.453125 -0.640625 1.265625l3.859375 0zm5.667938 -2.03125q0.390625 -0.640625 1.03125 -1.0q0.640625 -0.375 1.46875 -0.375l0 2.15625l-0.546875 0q-0.96875 0 -1.46875 0.453125q-0.484375 0.453125 -0.484375 1.578125l0 4.046875l-2.046875 0l0 -8.125l2.046875 0l0 1.265625zm8.374268 -1.375q1.453125 0 2.34375 0.921875q0.890625 0.90625 0.890625 2.546875l0 4.765625l-2.046875 0l0 -4.484375q0 -0.96875 -0.484375 -1.484375q-0.484375 -0.53125 -1.328125 -0.53125q-0.84375 0 -1.34375 0.53125q-0.484375 0.515625 -0.484375 1.484375l0 4.484375l-2.046875 0l0 -8.125l2.046875 0l0 1.015625q0.40625 -0.53125 1.046875 -0.828125q0.640625 -0.296875 1.40625 -0.296875zm4.6565857 4.140625q0 -1.21875 0.484375 -2.171875q0.5 -0.953125 1.34375 -1.46875q0.84375 -0.515625 1.875 -0.515625q0.90625 0 1.59375 0.375q0.6875 0.359375 1.09375 0.90625l0 -1.15625l2.0625 0l0 8.125l-2.0625 0l0 -1.1875q-0.390625 0.578125 -1.09375 0.953125q-0.703125 0.359375 -1.609375 0.359375q-1.015625 0 -1.859375 -0.515625q-0.84375 -0.53125 -1.34375 -1.484375q-0.484375 -0.96875 -0.484375 -2.21875zm6.390625 0.03125q0 -0.75 -0.296875 -1.28125q-0.296875 -0.53125 -0.796875 -0.8125q-0.484375 -0.296875 -1.0625 -0.296875q-0.578125 0 -1.0625 0.28125q-0.46875 0.28125 -0.78125 0.8125q-0.296875 0.53125 -0.296875 1.265625q0 0.734375 0.296875 1.296875q0.3125 0.546875 0.796875 0.84375q0.484375 0.28125 1.046875 0.28125q0.578125 0 1.0625 -0.28125q0.5 -0.296875 0.796875 -0.828125q0.296875 -0.53125 0.296875 -1.28125zm6.124481 -6.78125l0 10.84375l-2.046875 0l0 -10.84375l2.046875 0z" fill="#000000"/><path fill-rule="nonzero" d="m369.3537 391.91064l0 8.125l-2.078125 0l0 -1.25q-0.375 0.65625 -1.03125 1.015625q-0.65625 0.34375 -1.5 0.34375q-0.640625 0 -1.09375 -0.28125l0 4.046875l-2.046875 0l0 -12.0l2.046875 0l0 4.46875q0 0.953125 0.484375 1.46875q0.5 0.515625 1.328125 0.515625q0.84375 0 1.328125 -0.515625q0.484375 -0.515625 0.484375 -1.46875l0 -4.46875l2.078125 0zm5.218231 8.25q-1.0 0 -1.796875 -0.359375q-0.796875 -0.359375 -1.265625 -0.96875q-0.453125 -0.609375 -0.484375 -1.359375l2.0625 0q0.0625 0.46875 0.453125 0.78125q0.40625 0.296875 1.015625 0.296875q0.578125 0 0.90625 -0.234375q0.328125 -0.234375 0.328125 -0.59375q0 -0.40625 -0.40625 -0.59375q-0.390625 -0.203125 -1.265625 -0.4375q-0.921875 -0.21875 -1.5 -0.453125q-0.578125 -0.234375 -1.0 -0.71875q-0.40625 -0.484375 -0.40625 -1.296875q0 -0.6875 0.375 -1.234375q0.390625 -0.5625 1.109375 -0.875q0.734375 -0.328125 1.71875 -0.328125q1.453125 0 2.3125 0.734375q0.875 0.71875 0.953125 1.953125l-1.953125 0q-0.046875 -0.484375 -0.40625 -0.765625q-0.359375 -0.296875 -0.96875 -0.296875q-0.546875 0 -0.859375 0.203125q-0.296875 0.203125 -0.296875 0.578125q0 0.40625 0.40625 0.625q0.421875 0.203125 1.28125 0.421875q0.875 0.21875 1.453125 0.453125q0.578125 0.234375 0.984375 0.734375q0.421875 0.484375 0.4375 1.296875q0 0.703125 -0.390625 1.265625q-0.390625 0.546875 -1.125 0.859375q-0.71875 0.3125 -1.671875 0.3125zm12.425171 -4.359375q0 0.4375 -0.0625 0.796875l-5.9375 0q0.078125 0.875 0.609375 1.375q0.546875 0.5 1.34375 0.5q1.140625 0 1.625 -0.984375l2.21875 0q-0.359375 1.171875 -1.359375 1.921875q-0.984375 0.75 -2.4375 0.75q-1.171875 0 -2.109375 -0.515625q-0.921875 -0.515625 -1.453125 -1.46875q-0.515625 -0.953125 -0.515625 -2.203125q0 -1.25 0.515625 -2.203125q0.515625 -0.953125 1.4375 -1.46875q0.921875 -0.515625 2.125 -0.515625q1.15625 0 2.0625 0.5q0.921875 0.5 1.421875 1.421875q0.515625 0.90625 0.515625 2.09375zm-2.125 -0.59375q-0.015625 -0.78125 -0.578125 -1.25q-0.546875 -0.484375 -1.359375 -0.484375q-0.765625 0 -1.28125 0.46875q-0.515625 0.453125 -0.640625 1.265625l3.859375 0zm5.667938 -2.03125q0.390625 -0.640625 1.03125 -1.0q0.640625 -0.375 1.46875 -0.375l0 2.15625l-0.546875 0q-0.96875 0 -1.46875 0.453125q-0.484375 0.453125 -0.484375 1.578125l0 4.046875l-2.046875 0l0 -8.125l2.046875 0l0 1.265625zm7.2492676 4.96875l2.0625 -6.234375l2.171875 0l-3.0 8.125l-2.484375 0l-3.0 -8.125l2.203125 0l2.046875 6.234375zm6.4353943 -7.203125q-0.53125 0 -0.890625 -0.34375q-0.359375 -0.34375 -0.359375 -0.84375q0 -0.515625 0.359375 -0.859375q0.359375 -0.34375 0.890625 -0.34375q0.546875 0 0.90625 0.34375q0.359375 0.34375 0.359375 0.859375q0 0.5 -0.359375 0.84375q-0.359375 0.34375 -0.90625 0.34375zm1.015625 0.96875l0 8.125l-2.046875 0l0 -8.125l2.046875 0zm1.4963074 4.0625q0 -1.25 0.515625 -2.1875q0.515625 -0.953125 1.421875 -1.46875q0.90625 -0.53125 2.078125 -0.53125q1.515625 0 2.5 0.765625q0.984375 0.75 1.328125 2.109375l-2.21875 0q-0.171875 -0.53125 -0.59375 -0.828125q-0.421875 -0.296875 -1.03125 -0.296875q-0.875 0 -1.390625 0.640625q-0.515625 0.625 -0.515625 1.796875q0 1.15625 0.515625 1.796875q0.515625 0.640625 1.390625 0.640625q1.25 0 1.625 -1.109375l2.21875 0q-0.34375 1.3125 -1.34375 2.09375q-0.984375 0.765625 -2.484375 0.765625q-1.171875 0 -2.078125 -0.515625q-0.90625 -0.515625 -1.421875 -1.453125q-0.515625 -0.953125 -0.515625 -2.21875zm16.901215 -0.171875q0 0.4375 -0.0625 0.796875l-5.9375 0q0.078125 0.875 0.609375 1.375q0.546875 0.5 1.34375 0.5q1.140625 0 1.625 -0.984375l2.21875 0q-0.359375 1.171875 -1.359375 1.921875q-0.984375 0.75 -2.4375 0.75q-1.171875 0 -2.109375 -0.515625q-0.921875 -0.515625 -1.453125 -1.46875q-0.515625 -0.953125 -0.515625 -2.203125q0 -1.25 0.515625 -2.203125q0.515625 -0.953125 1.4375 -1.46875q0.921875 -0.515625 2.125 -0.515625q1.15625 0 2.0625 0.5q0.921875 0.5 1.421875 1.421875q0.515625 0.90625 0.515625 2.09375zm-2.125 -0.59375q-0.015625 -0.78125 -0.578125 -1.25q-0.546875 -0.484375 -1.359375 -0.484375q-0.765625 0 -1.28125 0.46875q-0.515625 0.453125 -0.640625 1.265625l3.859375 0z" fill="#000000"/></g><path fill-rule="evenodd" d="m474.4002 230.51512l0 0c5.0913086 0 9.974121 2.0225067 13.574219 5.6226196c3.6000977 3.600113 5.6226196 8.482895 5.6226196 13.574219l0 53.76378c0 10.602142 8.594727 19.196869 19.196838 19.196869l0 0c-10.602112 0 -19.196838 8.594696 -19.196838 19.196838l0 53.763763c0 10.602142 -8.594727 19.196869 -19.196838 19.196869z" fill-opacity="0.0" fill="#000000"/><path fill-rule="evenodd" d="m474.4002 230.51512l0 0c5.0913086 0 9.974121 2.0225067 13.574219 5.6226196c3.6000977 3.600113 5.6226196 8.482895 5.6226196 13.574219l0 53.76378c0 10.602142 8.594727 19.196869 19.196838 19.196869l0 0c-10.602112 0 -19.196838 8.594696 -19.196838 19.196838l0 53.763763c0 10.602142 -8.594727 19.196869 -19.196838 19.196869" fill-opacity="0.0" fill="#000000"/><path fill-rule="evenodd" d="m474.4002 230.51512l0 0c5.0913086 0 9.974121 2.0225067 13.574219 5.6226196c3.6000977 3.600113 5.6226196 8.482895 5.6226196 13.574219l0 53.76378c0 10.602142 8.594727 19.196869 19.196838 19.196869l0 0c-10.602112 0 -19.196838 8.594696 -19.196838 19.196838l0 53.763763c0 10.602142 -8.594727 19.196869 -19.196838 19.196869" stroke-linecap="butt" stroke-linejoin="round" stroke-width="4.0" stroke="#000000"/><path fill-rule="evenodd" d="m392.31412 182.7761l0.4409485 48.0" fill-opacity="0.0" fill="#000000"/><path fill-rule="evenodd" d="m392.3141 182.77608l0.330719 36.00052" stroke-linecap="butt" stroke-linejoin="round" stroke-width="2.0" stroke="#000000"/><path fill-rule="evenodd" d="m389.3415 218.80693l3.3866882 9.045471l3.2199707 -9.106155z" stroke-linecap="butt" stroke-width="2.0" stroke="#000000" fill="#000000"/><path fill-rule="evenodd" d="m514.2296 293.37622l119.49603 0l0 60.126007l-119.49603 0z" fill-opacity="0.0" fill="#000000"/><path fill-rule="nonzero" d="m523.74524 323.59424q0 -1.515625 0.671875 -2.703125q0.6875 -1.203125 1.859375 -1.859375q1.1875 -0.671875 2.65625 -0.671875q1.71875 0 3.0 0.875q1.296875 0.875 1.8125 2.4375l-2.359375 0q-0.359375 -0.734375 -1.0 -1.09375q-0.640625 -0.375 -1.46875 -0.375q-0.890625 0 -1.59375 0.421875q-0.6875 0.40625 -1.078125 1.171875q-0.390625 0.765625 -0.390625 1.796875q0 1.0 0.390625 1.78125q0.390625 0.765625 1.078125 1.1875q0.703125 0.40625 1.59375 0.40625q0.828125 0 1.46875 -0.359375q0.640625 -0.375 1.0 -1.109375l2.359375 0q-0.515625 1.5625 -1.796875 2.4375q-1.28125 0.875 -3.015625 0.875q-1.46875 0 -2.65625 -0.671875q-1.171875 -0.671875 -1.859375 -1.859375q-0.671875 -1.1875 -0.671875 -2.6875zm11.2247925 1.03125q0 -1.21875 0.484375 -2.171875q0.5 -0.953125 1.34375 -1.46875q0.84375 -0.515625 1.875 -0.515625q0.90625 0 1.59375 0.375q0.6875 0.359375 1.09375 0.90625l0 -1.15625l2.0625 0l0 8.125l-2.0625 0l0 -1.1875q-0.390625 0.578125 -1.09375 0.953125q-0.703125 0.359375 -1.609375 0.359375q-1.015625 0 -1.859375 -0.515625q-0.84375 -0.53125 -1.34375 -1.484375q-0.484375 -0.96875 -0.484375 -2.21875zm6.390625 0.03125q0 -0.75 -0.296875 -1.28125q-0.296875 -0.53125 -0.796875 -0.8125q-0.484375 -0.296875 -1.0625 -0.296875q-0.578125 0 -1.0625 0.28125q-0.46875 0.28125 -0.78125 0.8125q-0.296875 0.53125 -0.296875 1.265625q0 0.734375 0.296875 1.296875q0.3125 0.546875 0.796875 0.84375q0.484375 0.28125 1.046875 0.28125q0.578125 0 1.0625 -0.28125q0.5 -0.296875 0.796875 -0.828125q0.296875 -0.53125 0.296875 -1.28125zm6.1244507 -6.78125l0 10.84375l-2.046875 0l0 -10.84375l2.046875 0zm4.074463 0l0 10.84375l-2.046875 0l0 -10.84375l2.046875 0zm4.984558 6.78125q0 -1.25 0.515625 -2.1875q0.515625 -0.953125 1.421875 -1.46875q0.90625 -0.53125 2.078125 -0.53125q1.515625 0 2.5 0.765625q0.984375 0.75 1.328125 2.109375l-2.21875 0q-0.171875 -0.53125 -0.59375 -0.828125q-0.421875 -0.296875 -1.03125 -0.296875q-0.875 0 -1.390625 0.640625q-0.515625 0.625 -0.515625 1.796875q0 1.15625 0.515625 1.796875q0.515625 0.640625 1.390625 0.640625q1.25 0 1.625 -1.109375l2.21875 0q-0.34375 1.3125 -1.34375 2.09375q-0.984375 0.765625 -2.484375 0.765625q-1.171875 0 -2.078125 -0.515625q-0.90625 -0.515625 -1.421875 -1.453125q-0.515625 -0.953125 -0.515625 -2.21875zm13.916809 -4.171875q0.921875 0 1.640625 0.40625q0.71875 0.390625 1.125 1.1875q0.40625 0.78125 0.40625 1.875l0 4.765625l-2.046875 0l0 -4.484375q0 -0.96875 -0.484375 -1.484375q-0.484375 -0.53125 -1.328125 -0.53125q-0.84375 0 -1.34375 0.53125q-0.484375 0.515625 -0.484375 1.484375l0 4.484375l-2.046875 0l0 -10.84375l2.046875 0l0 3.734375q0.390625 -0.53125 1.046875 -0.828125q0.671875 -0.296875 1.46875 -0.296875zm4.594055 4.140625q0 -1.21875 0.484375 -2.171875q0.5 -0.953125 1.34375 -1.46875q0.84375 -0.515625 1.875 -0.515625q0.90625 0 1.59375 0.375q0.6875 0.359375 1.09375 0.90625l0 -1.15625l2.0625 0l0 8.125l-2.0625 0l0 -1.1875q-0.390625 0.578125 -1.09375 0.953125q-0.703125 0.359375 -1.609375 0.359375q-1.015625 0 -1.859375 -0.515625q-0.84375 -0.53125 -1.34375 -1.484375q-0.484375 -0.96875 -0.484375 -2.21875zm6.390625 0.03125q0 -0.75 -0.296875 -1.28125q-0.296875 -0.53125 -0.796875 -0.8125q-0.484375 -0.296875 -1.0625 -0.296875q-0.578125 0 -1.0625 0.28125q-0.46875 0.28125 -0.78125 0.8125q-0.296875 0.53125 -0.296875 1.265625q0 0.734375 0.296875 1.296875q0.3125 0.546875 0.796875 0.84375q0.484375 0.28125 1.046875 0.28125q0.578125 0 1.0625 -0.28125q0.5 -0.296875 0.796875 -0.828125q0.296875 -0.53125 0.296875 -1.28125zm5.1088867 -5.03125q-0.53125 0 -0.890625 -0.34375q-0.359375 -0.34375 -0.359375 -0.84375q0 -0.515625 0.359375 -0.859375q0.359375 -0.34375 0.890625 -0.34375q0.546875 0 0.90625 0.34375q0.359375 0.34375 0.359375 0.859375q0 0.5 -0.359375 0.84375q-0.359375 0.34375 -0.90625 0.34375zm1.015625 0.96875l0 8.125l-2.046875 0l0 -8.125l2.046875 0zm6.527588 -0.109375q1.453125 0 2.34375 0.921875q0.890625 0.90625 0.890625 2.546875l0 4.765625l-2.046875 0l0 -4.484375q0 -0.96875 -0.484375 -1.484375q-0.484375 -0.53125 -1.328125 -0.53125q-0.84375 0 -1.34375 0.53125q-0.484375 0.515625 -0.484375 1.484375l0 4.484375l-2.046875 0l0 -8.125l2.046875 0l0 1.015625q0.40625 -0.53125 1.046875 -0.828125q0.640625 -0.296875 1.40625 -0.296875z" fill="#000000"/><g filter="url(#shadowFilter-g2defaaf4e68_0_29.3)"/><defs><filter filterUnits="userSpaceOnUse" id="shadowFilter-g2defaaf4e68_0_29.3"><feGaussianBlur result="blur" stdDeviation="4.0" in="SourceAlpha"/><feComponentTransfer color-interpolation-filters="sRGB" in="blur"><feFuncR type="linear"/><feFuncG type="linear"/><feFuncB type="linear"/><feFuncA type="linear"/></feComponentTransfer></filter></defs><g id="g2defaaf4e68_0_29.3"><path fill-rule="evenodd" d="m332.31412 134.77103l0 0c0 -5.3026123 4.2986145 -9.601234 9.601227 -9.601234l100.797516 0c2.5464172 0 4.9885254 1.0115509 6.7891235 2.8121338c1.8005676 1.8005905 2.8121338 4.2426987 2.8121338 6.7891006l0 38.403824c0 5.3026123 -4.2986145 9.601242 -9.601257 9.601242l-100.797516 0c-5.3026123 0 -9.601227 -4.2986298 -9.601227 -9.601242z" fill="#ffffff"/><path fill-rule="evenodd" d="m332.31412 134.77103l0 0c0 -5.3026123 4.2986145 -9.601234 9.601227 -9.601234l100.797516 0c2.5464172 0 4.9885254 1.0115509 6.7891235 2.8121338c1.8005676 1.8005905 2.8121338 4.2426987 2.8121338 6.7891006l0 38.403824c0 5.3026123 -4.2986145 9.601242 -9.601257 9.601242l-100.797516 0c-5.3026123 0 -9.601227 -4.2986298 -9.601227 -9.601242z" stroke-linecap="butt" stroke-linejoin="round" stroke-width="2.0" stroke="#000000"/><path fill-rule="nonzero" d="m387.85565 148.09981l-4.078125 0l-0.671875 1.953125l-2.15625 0l3.6875 -10.25l2.390625 0l3.671875 10.25l-2.171875 0l-0.671875 -1.953125zm-0.546875 -1.640625l-1.484375 -4.28125l-1.484375 4.28125l2.96875 0zm12.228302 -3.46875q0 0.8125 -0.390625 1.53125q-0.390625 0.71875 -1.21875 1.171875q-0.828125 0.4375 -2.078125 0.4375l-1.71875 0l0 3.921875l-2.046875 0l0 -10.234375l3.765625 0q1.1875 0 2.015625 0.421875q0.84375 0.40625 1.25 1.125q0.421875 0.71875 0.421875 1.625zm-3.78125 1.484375q0.859375 0 1.265625 -0.390625q0.40625 -0.390625 0.40625 -1.09375q0 -1.5 -1.671875 -1.5l-1.625 0l0 2.984375l1.625 0zm7.2860413 -4.65625l0 10.234375l-2.046875 0l0 -10.234375l2.046875 0z" fill="#000000"/><path fill-rule="nonzero" d="m369.3537 159.92793l0 8.125l-2.078125 0l0 -1.25q-0.375 0.65625 -1.03125 1.015625q-0.65625 0.34375 -1.5 0.34375q-0.640625 0 -1.09375 -0.28125l0 4.046875l-2.046875 0l0 -12.0l2.046875 0l0 4.46875q0 0.953125 0.484375 1.46875q0.5 0.515625 1.328125 0.515625q0.84375 0 1.328125 -0.515625q0.484375 -0.515625 0.484375 -1.46875l0 -4.46875l2.078125 0zm5.218231 8.25q-1.0 0 -1.796875 -0.359375q-0.796875 -0.359375 -1.265625 -0.96875q-0.453125 -0.609375 -0.484375 -1.359375l2.0625 0q0.0625 0.46875 0.453125 0.78125q0.40625 0.296875 1.015625 0.296875q0.578125 0 0.90625 -0.234375q0.328125 -0.234375 0.328125 -0.59375q0 -0.40625 -0.40625 -0.59375q-0.390625 -0.203125 -1.265625 -0.4375q-0.921875 -0.21875 -1.5 -0.453125q-0.578125 -0.234375 -1.0 -0.71875q-0.40625 -0.484375 -0.40625 -1.296875q0 -0.6875 0.375 -1.234375q0.390625 -0.5625 1.109375 -0.875q0.734375 -0.328125 1.71875 -0.328125q1.453125 0 2.3125 0.734375q0.875 0.71875 0.953125 1.953125l-1.953125 0q-0.046875 -0.484375 -0.40625 -0.765625q-0.359375 -0.296875 -0.96875 -0.296875q-0.546875 0 -0.859375 0.203125q-0.296875 0.203125 -0.296875 0.578125q0 0.40625 0.40625 0.625q0.421875 0.203125 1.28125 0.421875q0.875 0.21875 1.453125 0.453125q0.578125 0.234375 0.984375 0.734375q0.421875 0.484375 0.4375 1.296875q0 0.703125 -0.390625 1.265625q-0.390625 0.546875 -1.125 0.859375q-0.71875 0.3125 -1.671875 0.3125zm12.425171 -4.359375q0 0.4375 -0.0625 0.796875l-5.9375 0q0.078125 0.875 0.609375 1.375q0.546875 0.5 1.34375 0.5q1.140625 0 1.625 -0.984375l2.21875 0q-0.359375 1.171875 -1.359375 1.921875q-0.984375 0.75 -2.4375 0.75q-1.171875 0 -2.109375 -0.515625q-0.921875 -0.515625 -1.453125 -1.46875q-0.515625 -0.953125 -0.515625 -2.203125q0 -1.25 0.515625 -2.203125q0.515625 -0.953125 1.4375 -1.46875q0.921875 -0.515625 2.125 -0.515625q1.15625 0 2.0625 0.5q0.921875 0.5 1.421875 1.421875q0.515625 0.90625 0.515625 2.09375zm-2.125 -0.59375q-0.015625 -0.78125 -0.578125 -1.25q-0.546875 -0.484375 -1.359375 -0.484375q-0.765625 0 -1.28125 0.46875q-0.515625 0.453125 -0.640625 1.265625l3.859375 0zm5.667938 -2.03125q0.390625 -0.640625 1.03125 -1.0q0.640625 -0.375 1.46875 -0.375l0 2.15625l-0.546875 0q-0.96875 0 -1.46875 0.453125q-0.484375 0.453125 -0.484375 1.578125l0 4.046875l-2.046875 0l0 -8.125l2.046875 0l0 1.265625zm7.2492676 4.96875l2.0625 -6.234375l2.171875 0l-3.0 8.125l-2.484375 0l-3.0 -8.125l2.203125 0l2.046875 6.234375zm6.4353943 -7.203125q-0.53125 0 -0.890625 -0.34375q-0.359375 -0.34375 -0.359375 -0.84375q0 -0.515625 0.359375 -0.859375q0.359375 -0.34375 0.890625 -0.34375q0.546875 0 0.90625 0.34375q0.359375 0.34375 0.359375 0.859375q0 0.5 -0.359375 0.84375q-0.359375 0.34375 -0.90625 0.34375zm1.015625 0.96875l0 8.125l-2.046875 0l0 -8.125l2.046875 0zm1.4963074 4.0625q0 -1.25 0.515625 -2.1875q0.515625 -0.953125 1.421875 -1.46875q0.90625 -0.53125 2.078125 -0.53125q1.515625 0 2.5 0.765625q0.984375 0.75 1.328125 2.109375l-2.21875 0q-0.171875 -0.53125 -0.59375 -0.828125q-0.421875 -0.296875 -1.03125 -0.296875q-0.875 0 -1.390625 0.640625q-0.515625 0.625 -0.515625 1.796875q0 1.15625 0.515625 1.796875q0.515625 0.640625 1.390625 0.640625q1.25 0 1.625 -1.109375l2.21875 0q-0.34375 1.3125 -1.34375 2.09375q-0.984375 0.765625 -2.484375 0.765625q-1.171875 0 -2.078125 -0.515625q-0.90625 -0.515625 -1.421875 -1.453125q-0.515625 -0.953125 -0.515625 -2.21875zm16.901215 -0.171875q0 0.4375 -0.0625 0.796875l-5.9375 0q0.078125 0.875 0.609375 1.375q0.546875 0.5 1.34375 0.5q1.140625 0 1.625 -0.984375l2.21875 0q-0.359375 1.171875 -1.359375 1.921875q-0.984375 0.75 -2.4375 0.75q-1.171875 0 -2.109375 -0.515625q-0.921875 -0.515625 -1.453125 -1.46875q-0.515625 -0.953125 -0.515625 -2.203125q0 -1.25 0.515625 -2.203125q0.515625 -0.953125 1.4375 -1.46875q0.921875 -0.515625 2.125 -0.515625q1.15625 0 2.0625 0.5q0.921875 0.5 1.421875 1.421875q0.515625 0.90625 0.515625 2.09375zm-2.125 -0.59375q-0.015625 -0.78125 -0.578125 -1.25q-0.546875 -0.484375 -1.359375 -0.484375q-0.765625 0 -1.28125 0.46875q-0.515625 0.453125 -0.640625 1.265625l3.859375 0z" fill="#000000"/></g><path fill-rule="evenodd" d="m388.63385 306.05124l0 0c0 -1.8525696 1.5018005 -3.3543396 3.3543396 -3.3543396l0 0c0.8896179 0 1.7427979 0.35339355 2.3718567 0.9824524c0.62905884 0.62905884 0.9824829 1.4822388 0.9824829 2.3718872l0 0c0 1.8525391 -1.5018005 3.354309 -3.3543396 3.354309l0 0c-1.8525391 0 -3.3543396 -1.50177 -3.3543396 -3.354309z" fill-opacity="0.0" fill="#000000"/><path fill-rule="evenodd" d="m388.63385 306.05124l0 0c0 -1.8525696 1.5018005 -3.3543396 3.3543396 -3.3543396l0 0c0.8896179 0 1.7427979 0.35339355 2.3718567 0.9824524c0.62905884 0.62905884 0.9824829 1.4822388 0.9824829 2.3718872l0 0c0 1.8525391 -1.5018005 3.354309 -3.3543396 3.354309l0 0c-1.8525391 0 -3.3543396 -1.50177 -3.3543396 -3.354309z" stroke-linecap="butt" stroke-linejoin="round" stroke-width="1.0" stroke="#000000"/><path fill-rule="evenodd" d="m388.63385 317.87692l0 0c0 -1.8525391 1.5018005 -3.3543396 3.3543396 -3.3543396l0 0c0.8896179 0 1.7427979 0.35342407 2.3718567 0.9824829c0.62905884 0.62905884 0.9824829 1.4822388 0.9824829 2.3718567l0 0c0 1.8525391 -1.5018005 3.3543396 -3.3543396 3.3543396l0 0c-1.8525391 0 -3.3543396 -1.5018005 -3.3543396 -3.3543396z" fill-opacity="0.0" fill="#000000"/><path fill-rule="evenodd" d="m388.63385 317.87692l0 0c0 -1.8525391 1.5018005 -3.3543396 3.3543396 -3.3543396l0 0c0.8896179 0 1.7427979 0.35342407 2.3718567 0.9824829c0.62905884 0.62905884 0.9824829 1.4822388 0.9824829 2.3718567l0 0c0 1.8525391 -1.5018005 3.3543396 -3.3543396 3.3543396l0 0c-1.8525391 0 -3.3543396 -1.5018005 -3.3543396 -3.3543396z" stroke-linecap="butt" stroke-linejoin="round" stroke-width="1.0" stroke="#000000"/><path fill-rule="evenodd" d="m388.63385 329.47296l0 0c0 -1.8525391 1.5018005 -3.3543396 3.3543396 -3.3543396l0 0c0.8896179 0 1.7427979 0.35342407 2.3718567 0.9824829c0.62905884 0.62905884 0.9824829 1.4822388 0.9824829 2.3718567l0 0c0 1.8525391 -1.5018005 3.3543396 -3.3543396 3.3543396l0 0c-1.8525391 0 -3.3543396 -1.5018005 -3.3543396 -3.3543396z" fill-opacity="0.0" fill="#000000"/><path fill-rule="evenodd" d="m388.63385 329.47296l0 0c0 -1.8525391 1.5018005 -3.3543396 3.3543396 -3.3543396l0 0c0.8896179 0 1.7427979 0.35342407 2.3718567 0.9824829c0.62905884 0.62905884 0.9824829 1.4822388 0.9824829 2.3718567l0 0c0 1.8525391 -1.5018005 3.3543396 -3.3543396 3.3543396l0 0c-1.8525391 0 -3.3543396 -1.5018005 -3.3543396 -3.3543396z" stroke-linecap="butt" stroke-linejoin="round" stroke-width="1.0" stroke="#000000"/><path fill-rule="evenodd" d="m392.31412 288.3761l-0.09448242 14.141724" fill-opacity="0.0" fill="#000000"/><path fill-rule="evenodd" d="m392.31412 288.3761l-0.09448242 14.141724" stroke-linecap="butt" stroke-linejoin="round" stroke-width="2.0" stroke="#000000"/><path fill-rule="evenodd" d="m391.9882 332.8273l0.31497192 24.0" fill-opacity="0.0" fill="#000000"/><path fill-rule="evenodd" d="m391.9882 332.82727l0.1574707 12.001068" stroke-linecap="butt" stroke-linejoin="round" stroke-width="2.0" stroke="#000000"/><path fill-rule="evenodd" d="m388.8425 344.87167l3.4222717 9.032074l3.184082 -9.118744z" stroke-linecap="butt" stroke-width="2.0" stroke="#000000" fill="#000000"/><g filter="url(#shadowFilter-g2defaaf4e68_0_29.4)"/><defs><filter filterUnits="userSpaceOnUse" id="shadowFilter-g2defaaf4e68_0_29.4"><feGaussianBlur result="blur" stdDeviation="4.0" in="SourceAlpha"/><feComponentTransfer color-interpolation-filters="sRGB" in="blur"><feFuncR type="linear"/><feFuncG type="linear"/><feFuncB type="linear"/><feFuncA type="linear"/></feComponentTransfer></filter></defs><g id="g2defaaf4e68_0_29.4"><path fill-rule="evenodd" d="m544.07745 134.77054l0 0c0 -5.3026276 4.298584 -9.60125 9.601196 -9.60125l110.40381 0c2.5464478 0 4.9885254 1.0115585 6.7891235 2.8121414c1.8005981 1.8005829 2.8121338 4.242691 2.8121338 6.7891083l0 38.40381c0 5.3026276 -4.298584 9.601242 -9.601257 9.601242l-110.40381 0c-5.3026123 0 -9.601196 -4.2986145 -9.601196 -9.601242z" fill="#b6d7a8"/><path fill-rule="evenodd" d="m544.07745 134.77054l0 0c0 -5.3026276 4.298584 -9.60125 9.601196 -9.60125l110.40381 0c2.5464478 0 4.9885254 1.0115585 6.7891235 2.8121414c1.8005981 1.8005829 2.8121338 4.242691 2.8121338 6.7891083l0 38.40381c0 5.3026276 -4.298584 9.601242 -9.601257 9.601242l-110.40381 0c-5.3026123 0 -9.601196 -4.2986145 -9.601196 -9.601242z" stroke-linecap="butt" stroke-linejoin="round" stroke-width="2.0" stroke="#000000"/><path fill-rule="nonzero" d="m584.5175 148.81807l0 1.65625l-2.71875 0l0 8.578125l-2.0625 0l0 -8.578125l-2.71875 0l0 -1.65625l7.5 0zm3.550476 3.375q0.390625 -0.640625 1.03125 -1.0q0.640625 -0.375 1.46875 -0.375l0 2.15625l-0.546875 0q-0.96875 0 -1.46875 0.453125q-0.484375 0.453125 -0.484375 1.578125l0 4.046875l-2.046875 0l0 -8.125l2.046875 0l0 1.265625zm3.3430176 2.765625q0 -1.21875 0.484375 -2.171875q0.5 -0.953125 1.34375 -1.46875q0.84375 -0.515625 1.875 -0.515625q0.90625 0 1.59375 0.375q0.6875 0.359375 1.09375 0.90625l0 -1.15625l2.0625 0l0 8.125l-2.0625 0l0 -1.1875q-0.390625 0.578125 -1.09375 0.953125q-0.703125 0.359375 -1.609375 0.359375q-1.015625 0 -1.859375 -0.515625q-0.84375 -0.53125 -1.34375 -1.484375q-0.484375 -0.96875 -0.484375 -2.21875zm6.390625 0.03125q0 -0.75 -0.296875 -1.28125q-0.296875 -0.53125 -0.796875 -0.8125q-0.484375 -0.296875 -1.0625 -0.296875q-0.578125 0 -1.0625 0.28125q-0.46875 0.28125 -0.78125 0.8125q-0.296875 0.53125 -0.296875 1.265625q0 0.734375 0.296875 1.296875q0.3125 0.546875 0.796875 0.84375q0.484375 0.28125 1.046875 0.28125q0.578125 0 1.0625 -0.28125q0.5 -0.296875 0.796875 -0.828125q0.296875 -0.53125 0.296875 -1.28125zm6.4682007 -2.375l0 3.9375q0 0.40625 0.1875 0.59375q0.203125 0.171875 0.671875 0.171875l0.953125 0l0 1.734375l-1.296875 0q-2.59375 0 -2.59375 -2.515625l0 -3.921875l-0.96875 0l0 -1.6875l0.96875 0l0 -2.0l2.078125 0l0 2.0l1.8125 0l0 1.6875l-1.8125 0zm5.6866455 0l0 3.9375q0 0.40625 0.1875 0.59375q0.203125 0.171875 0.671875 0.171875l0.953125 0l0 1.734375l-1.296875 0q-2.59375 0 -2.59375 -2.515625l0 -3.921875l-0.96875 0l0 -1.6875l0.96875 0l0 -2.0l2.078125 0l0 2.0l1.8125 0l0 1.6875l-1.8125 0zm10.8428955 2.203125q0 0.4375 -0.0625 0.796875l-5.9375 0q0.078125 0.875 0.609375 1.375q0.546875 0.5 1.34375 0.5q1.140625 0 1.625 -0.984375l2.21875 0q-0.359375 1.171875 -1.359375 1.921875q-0.984375 0.75 -2.4375 0.75q-1.171875 0 -2.109375 -0.515625q-0.921875 -0.515625 -1.453125 -1.46875q-0.515625 -0.953125 -0.515625 -2.203125q0 -1.25 0.515625 -2.203125q0.515625 -0.953125 1.4375 -1.46875q0.921875 -0.515625 2.125 -0.515625q1.15625 0 2.0625 0.5q0.921875 0.5 1.421875 1.421875q0.515625 0.90625 0.515625 2.09375zm-2.125 -0.59375q-0.015625 -0.78125 -0.578125 -1.25q-0.546875 -0.484375 -1.359375 -0.484375q-0.765625 0 -1.28125 0.46875q-0.515625 0.453125 -0.640625 1.265625l3.859375 0zm5.6679688 -2.03125q0.390625 -0.640625 1.03125 -1.0q0.640625 -0.375 1.46875 -0.375l0 2.15625l-0.546875 0q-0.96875 0 -1.46875 0.453125q-0.484375 0.453125 -0.484375 1.578125l0 4.046875l-2.046875 0l0 -8.125l2.046875 0l0 1.265625zm4.9055176 -2.234375q-0.53125 0 -0.890625 -0.34375q-0.359375 -0.34375 -0.359375 -0.84375q0 -0.515625 0.359375 -0.859375q0.359375 -0.34375 0.890625 -0.34375q0.546875 0 0.90625 0.34375q0.359375 0.34375 0.359375 0.859375q0 0.5 -0.359375 0.84375q-0.359375 0.34375 -0.90625 0.34375zm1.015625 0.96875l0 8.125l-2.046875 0l0 -8.125l2.046875 0zm1.4962769 4.03125q0 -1.21875 0.484375 -2.171875q0.5 -0.953125 1.34375 -1.46875q0.84375 -0.515625 1.875 -0.515625q0.90625 0 1.59375 0.375q0.6875 0.359375 1.09375 0.90625l0 -1.15625l2.0625 0l0 8.125l-2.0625 0l0 -1.1875q-0.390625 0.578125 -1.09375 0.953125q-0.703125 0.359375 -1.609375 0.359375q-1.015625 0 -1.859375 -0.515625q-0.84375 -0.53125 -1.34375 -1.484375q-0.484375 -0.96875 -0.484375 -2.21875zm6.390625 0.03125q0 -0.75 -0.296875 -1.28125q-0.296875 -0.53125 -0.796875 -0.8125q-0.484375 -0.296875 -1.0625 -0.296875q-0.578125 0 -1.0625 0.28125q-0.46875 0.28125 -0.78125 0.8125q-0.296875 0.53125 -0.296875 1.265625q0 0.734375 0.296875 1.296875q0.3125 0.546875 0.796875 0.84375q0.484375 0.28125 1.046875 0.28125q0.578125 0 1.0625 -0.28125q0.5 -0.296875 0.796875 -0.828125q0.296875 -0.53125 0.296875 -1.28125z" fill="#000000"/></g><path fill-rule="evenodd" d="m453.1973 142.5799l91.653534 -0.31495667" fill-opacity="0.0" fill="#000000"/><path fill-rule="evenodd" d="m453.1973 142.5799l79.653656 -0.27372742" stroke-linecap="butt" stroke-linejoin="round" stroke-width="2.0" stroke="#000000"/><path fill-rule="evenodd" d="m532.86224 145.60962l9.064819 -3.3346405l-9.087524 -3.2722473z" stroke-linecap="butt" stroke-width="2.0" stroke="#000000" fill="#000000"/><path fill-rule="evenodd" d="m454.3084 166.5799l90.55115 0.69291687" fill-opacity="0.0" fill="#000000"/><path fill-rule="evenodd" d="m466.30804 166.67172l78.55151 0.6010895" stroke-linecap="butt" stroke-linejoin="round" stroke-width="2.0" stroke="#000000"/><path fill-rule="evenodd" d="m466.3333 163.36835l-9.101196 3.2339172l9.050659 3.3728333z" stroke-linecap="butt" stroke-width="2.0" stroke="#000000" fill="#000000"/></g></svg>