<svg xmlns:xlink="http://www.w3.org/1999/xlink" xmlns="http://www.w3.org/2000/svg" version="1.1" fill="none" stroke="none" stroke-linecap="square" stroke-miterlimit="10" viewBox="-2.31 0 962.31 540"><clipPath id="p.0"><path d="m0 0l960.0 0l0 540.0l-960.0 0l0 -540.0z" clip-rule="nonzero"/></clipPath><g clip-path="url(#p.0)"><path fill="#ffffff" d="m0 0l960.0 0l0 540.0l-960.0 0z" fill-rule="evenodd"/><path fill="#000000" fill-opacity="0.0" d="m-1.3097113 68.644325l75.149605 0.22047424" fill-rule="evenodd"/><path stroke="#000000" stroke-width="2.0" stroke-linejoin="round" stroke-linecap="butt" d="m-1.3097113 68.644325l63.14966 0.18526459" fill-rule="evenodd"/><path fill="#000000" stroke="#000000" stroke-width="2.0" stroke-linecap="butt" d="m61.830257 72.13304l9.085842 -3.2768173l-9.06646 -3.3300781z" fill-rule="evenodd"/><g filter="url(#shadowFilter-p.1)"><use xlink:href="#p.1" transform="matrix(1.0 0.0 0.0 1.0 0.0 2.0)"/></g><defs><filter id="shadowFilter-p.1" filterUnits="userSpaceOnUse"><feGaussianBlur in="SourceAlpha" stdDeviation="4.0" result="blur"/><feComponentTransfer in="blur" color-interpolation-filters="sRGB"><feFuncR type="linear" slope="0" intercept="0.0"/><feFuncG type="linear" slope="0" intercept="0.0"/><feFuncB type="linear" slope="0" intercept="0.0"/><feFuncA type="linear" slope="0.2" intercept="0"/></feComponentTransfer></filter></defs><g id="p.1"><path fill="#ffffff" d="m77.644554 188.14778l0 0c0 -12.417236 10.066162 -22.483398 22.48339 -22.483398l177.48991 0c5.9629517 0 11.681702 2.3687897 15.898163 6.5852356c4.216461 4.216461 6.5852356 9.935196 6.5852356 15.898163l0 89.93086c0 12.417236 -10.066162 22.483398 -22.483398 22.483398l-177.48991 0c-12.417229 0 -22.48339 -10.066162 -22.48339 -22.483398z" fill-rule="evenodd"/><path stroke="#000000" stroke-width="2.0" stroke-linejoin="round" stroke-linecap="butt" d="m77.644554 188.14778l0 0c0 -12.417236 10.066162 -22.483398 22.48339 -22.483398l177.48991 0c5.9629517 0 11.681702 2.3687897 15.898163 6.5852356c4.216461 4.216461 6.5852356 9.935196 6.5852356 15.898163l0 89.93086c0 12.417236 -10.066162 22.483398 -22.483398 22.483398l-177.48991 0c-12.417229 0 -22.48339 -10.066162 -22.48339 -22.483398z" fill-rule="evenodd"/></g><path fill="#000000" fill-opacity="0.0" d="m321.537 200.59354l0 0c8.737518 0 17.117157 3.4709625 23.295532 9.649338c6.1783752 6.17836 9.6493225 14.558014 9.6493225 23.295547l0 93.35434c0 18.194946 14.749939 32.944855 32.944885 32.944855l0 0c-18.194946 0 -32.944885 14.749939 -32.944885 32.944885l0 93.35434c0 18.194946 -14.749908 32.944885 -32.944855 32.944885z" fill-rule="evenodd"/><path fill="#000000" fill-opacity="0.0" d="m321.537 200.59354l0 0c8.737518 0 17.117157 3.4709625 23.295532 9.649338c6.1783752 6.17836 9.6493225 14.558014 9.6493225 23.295547l0 93.35434c0 18.194946 14.749939 32.944855 32.944885 32.944855l0 0c-18.194946 0 -32.944885 14.749939 -32.944885 32.944885l0 93.35434c0 18.194946 -14.749908 32.944885 -32.944855 32.944885" fill-rule="evenodd"/><path stroke="#000000" stroke-width="4.0" stroke-linejoin="round" stroke-linecap="butt" d="m321.537 200.59354l0 0c8.737518 0 17.117157 3.4709625 23.295532 9.649338c6.1783752 6.17836 9.6493225 14.558014 9.6493225 23.295547l0 93.35434c0 18.194946 14.749939 32.944855 32.944885 32.944855l0 0c-18.194946 0 -32.944885 14.749939 -32.944885 32.944885l0 93.35434c0 18.194946 -14.749908 32.944885 -32.944855 32.944885" fill-rule="evenodd"/><path fill="#000000" fill-opacity="0.0" d="m180.50778 120.29753l0.25196838 43.181107" fill-rule="evenodd"/><path stroke="#000000" stroke-width="2.0" stroke-linejoin="round" stroke-linecap="butt" d="m180.50777 120.29753l0.1819458 31.181305" fill-rule="evenodd"/><path fill="#000000" stroke="#000000" stroke-width="2.0" stroke-linecap="butt" d="m177.3863 151.49811l3.356369 9.056778l3.2504578 -9.095322z" fill-rule="evenodd"/><path fill="#000000" fill-opacity="0.0" d="m389.90457 309.21335l205.13388 0l0 103.90552l-205.13388 0z" fill-rule="evenodd"/><path fill="#000000" d="m399.4202 361.3211q0 -1.515625 0.671875 -2.703125q0.6875 -1.203125 1.859375 -1.859375q1.1875 -0.671875 2.65625 -0.671875q1.71875 0 3.0 0.875q1.296875 0.875 1.8125 2.4375l-2.359375 0q-0.359375 -0.734375 -1.0 -1.09375q-0.640625 -0.375 -1.46875 -0.375q-0.890625 0 -1.59375 0.421875q-0.6875 0.40625 -1.078125 1.171875q-0.390625 0.765625 -0.390625 1.796875q0 1.0 0.390625 1.78125q0.390625 0.765625 1.078125 1.1875q0.703125 0.40625 1.59375 0.40625q0.828125 0 1.46875 -0.359375q0.640625 -0.375 1.0 -1.109375l2.359375 0q-0.515625 1.5625 -1.796875 2.4375q-1.28125 0.875 -3.015625 0.875q-1.46875 0 -2.65625 -0.671875q-1.171875 -0.671875 -1.859375 -1.859375q-0.671875 -1.1875 -0.671875 -2.6875zm11.2247925 1.03125q0 -1.21875 0.484375 -2.171875q0.5 -0.953125 1.34375 -1.46875q0.84375 -0.515625 1.875 -0.515625q0.90625 0 1.59375 0.375q0.6875 0.359375 1.09375 0.90625l0 -1.15625l2.0625 0l0 8.125l-2.0625 0l0 -1.1875q-0.390625 0.578125 -1.09375 0.953125q-0.703125 0.359375 -1.609375 0.359375q-1.015625 0 -1.859375 -0.515625q-0.84375 -0.53125 -1.34375 -1.484375q-0.484375 -0.96875 -0.484375 -2.21875zm6.390625 0.03125q0 -0.75 -0.296875 -1.28125q-0.296875 -0.53125 -0.796875 -0.8125q-0.484375 -0.296875 -1.0625 -0.296875q-0.578125 0 -1.0625 0.28125q-0.46875 0.28125 -0.78125 0.8125q-0.296875 0.53125 -0.296875 1.265625q0 0.734375 0.296875 1.296875q0.3125 0.546875 0.796875 0.84375q0.484375 0.28125 1.046875 0.28125q0.578125 0 1.0625 -0.28125q0.5 -0.296875 0.796875 -0.828125q0.296875 -0.53125 0.296875 -1.28125zm6.124481 -6.78125l0 10.84375l-2.046875 0l0 -10.84375l2.046875 0zm4.074463 0l0 10.84375l-2.046875 0l0 -10.84375l2.046875 0zm4.9845276 6.78125q0 -1.25 0.515625 -2.1875q0.515625 -0.953125 1.421875 -1.46875q0.90625 -0.53125 2.078125 -0.53125q1.515625 0 2.5 0.765625q0.984375 0.75 1.328125 2.109375l-2.21875 0q-0.171875 -0.53125 -0.59375 -0.828125q-0.421875 -0.296875 -1.03125 -0.296875q-0.875 0 -1.390625 0.640625q-0.515625 0.625 -0.515625 1.796875q0 1.15625 0.515625 1.796875q0.515625 0.640625 1.390625 0.640625q1.25 0 1.625 -1.109375l2.21875 0q-0.34375 1.3125 -1.34375 2.09375q-0.984375 0.765625 -2.484375 0.765625q-1.171875 0 -2.078125 -0.515625q-0.90625 -0.515625 -1.421875 -1.453125q-0.515625 -0.953125 -0.515625 -2.21875zm13.91684 -4.171875q0.921875 0 1.640625 0.40625q0.71875 0.390625 1.125 1.1875q0.40625 0.78125 0.40625 1.875l0 4.765625l-2.046875 0l0 -4.484375q0 -0.96875 -0.484375 -1.484375q-0.484375 -0.53125 -1.328125 -0.53125q-0.84375 0 -1.34375 0.53125q-0.484375 0.515625 -0.484375 1.484375l0 4.484375l-2.046875 0l0 -10.84375l2.046875 0l0 3.734375q0.390625 -0.53125 1.046875 -0.828125q0.671875 -0.296875 1.46875 -0.296875zm4.594055 4.140625q0 -1.21875 0.484375 -2.171875q0.5 -0.953125 1.34375 -1.46875q0.84375 -0.515625 1.875 -0.515625q0.90625 0 1.59375 0.375q0.6875 0.359375 1.09375 0.90625l0 -1.15625l2.0625 0l0 8.125l-2.0625 0l0 -1.1875q-0.390625 0.578125 -1.09375 0.953125q-0.703125 0.359375 -1.609375 0.359375q-1.015625 0 -1.859375 -0.515625q-0.84375 -0.53125 -1.34375 -1.484375q-0.484375 -0.96875 -0.484375 -2.21875zm6.390625 0.03125q0 -0.75 -0.296875 -1.28125q-0.296875 -0.53125 -0.796875 -0.8125q-0.484375 -0.296875 -1.0625 -0.296875q-0.578125 0 -1.0625 0.28125q-0.46875 0.28125 -0.78125 0.8125q-0.296875 0.53125 -0.296875 1.265625q0 0.734375 0.296875 1.296875q0.3125 0.546875 0.796875 0.84375q0.484375 0.28125 1.046875 0.28125q0.578125 0 1.0625 -0.28125q0.5 -0.296875 0.796875 -0.828125q0.296875 -0.53125 0.296875 -1.28125zm5.108856 -5.03125q-0.53125 0 -0.890625 -0.34375q-0.359375 -0.34375 -0.359375 -0.84375q0 -0.515625 0.359375 -0.859375q0.359375 -0.34375 0.890625 -0.34375q0.546875 0 0.90625 0.34375q0.359375 0.34375 0.359375 0.859375q0 0.5 -0.359375 0.84375q-0.359375 0.34375 -0.90625 0.34375zm1.015625 0.96875l0 8.125l-2.046875 0l0 -8.125l2.046875 0zm6.527588 -0.109375q1.453125 0 2.34375 0.921875q0.890625 0.90625 0.890625 2.546875l0 4.765625l-2.046875 0l0 -4.484375q0 -0.96875 -0.484375 -1.484375q-0.484375 -0.53125 -1.328125 -0.53125q-0.84375 0 -1.34375 0.53125q-0.484375 0.515625 -0.484375 1.484375l0 4.484375l-2.046875 0l0 -8.125l2.046875 0l0 1.015625q0.40625 -0.53125 1.046875 -0.828125q0.640625 -0.296875 1.40625 -0.296875z" fill-rule="nonzero"/><g filter="url(#shadowFilter-p.2)"><use xlink:href="#p.2" transform="matrix(1.0 0.0 0.0 1.0 0.0 2.0)"/></g><defs><filter id="shadowFilter-p.2" filterUnits="userSpaceOnUse"><feGaussianBlur in="SourceAlpha" stdDeviation="4.0" result="blur"/><feComponentTransfer in="blur" color-interpolation-filters="sRGB"><feFuncR type="linear" slope="0" intercept="0.0"/><feFuncG type="linear" slope="0" intercept="0.0"/><feFuncB type="linear" slope="0" intercept="0.0"/><feFuncA type="linear" slope="0.2" intercept="0"/></feComponentTransfer></filter></defs><g id="p.2"><path fill="#ffffff" d="m77.6446 35.15735l0 0c0 -9.164341 7.4291687 -16.593508 16.593506 -16.593508l172.79724 0c4.400879 0 8.6214905 1.7482395 11.733398 4.8601265c3.1118774 3.111885 4.8601074 7.33251 4.8601074 11.733381l0 66.37204c0 9.164345 -7.4291687 16.593506 -16.593506 16.593506l-172.79724 0c-9.164337 0 -16.593506 -7.429161 -16.593506 -16.593506z" fill-rule="evenodd"/><path stroke="#000000" stroke-width="2.0" stroke-linejoin="round" stroke-linecap="butt" d="m77.6446 35.15735l0 0c0 -9.164341 7.4291687 -16.593508 16.593506 -16.593508l172.79724 0c4.400879 0 8.6214905 1.7482395 11.733398 4.8601265c3.1118774 3.111885 4.8601074 7.33251 4.8601074 11.733381l0 66.37204c0 9.164345 -7.4291687 16.593506 -16.593506 16.593506l-172.79724 0c-9.164337 0 -16.593506 -7.429161 -16.593506 -16.593506z" fill-rule="evenodd"/><path fill="#000000" d="m176.17828 62.47024l-4.078125 0l-0.671875 1.9531288l-2.15625 0l3.6875 -10.250004l2.390625 0l3.671875 10.250004l-2.171875 0l-0.671875 -1.9531288zm-0.546875 -1.640625l-1.484375 -4.28125l-1.484375 4.28125l2.96875 0zm12.228287 -3.46875q0 0.8125 -0.390625 1.53125q-0.390625 0.71875 -1.21875 1.171875q-0.828125 0.4375 -2.078125 0.4375l-1.71875 0l0 3.9218788l-2.046875 0l0 -10.234379l3.765625 0q1.1875 0 2.015625 0.421875q0.84375 0.40625 1.25 1.125q0.421875 0.71875 0.421875 1.625zm-3.78125 1.484375q0.859375 0 1.265625 -0.390625q0.40625 -0.390625 0.40625 -1.09375q0 -1.5 -1.671875 -1.5l-1.625 0l0 2.984375l1.625 0zm7.2860413 -4.65625l0 10.234379l-2.046875 0l0 -10.234379l2.046875 0z" fill-rule="nonzero"/><path fill="#000000" d="m157.6763 74.29837l0 8.125l-2.078125 0l0 -1.25q-0.375 0.65625 -1.03125 1.015625q-0.65625 0.34375 -1.5 0.34375q-0.640625 0 -1.09375 -0.28125l0 4.046875l-2.046875 0l0 -12.0l2.046875 0l0 4.46875q0 0.953125 0.484375 1.46875q0.5 0.515625 1.328125 0.515625q0.84375 0 1.328125 -0.515625q0.484375 -0.515625 0.484375 -1.46875l0 -4.46875l2.078125 0zm5.218231 8.25q-1.0 0 -1.796875 -0.359375q-0.796875 -0.359375 -1.265625 -0.96875q-0.453125 -0.609375 -0.484375 -1.359375l2.0625 0q0.0625 0.46875 0.453125 0.78125q0.40625 0.296875 1.015625 0.296875q0.578125 0 0.90625 -0.234375q0.328125 -0.234375 0.328125 -0.59375q0 -0.40625 -0.40625 -0.59375q-0.390625 -0.203125 -1.265625 -0.4375q-0.921875 -0.21875 -1.5 -0.453125q-0.578125 -0.234375 -1.0 -0.71875q-0.40625 -0.484375 -0.40625 -1.296875q0 -0.6875 0.375 -1.234375q0.390625 -0.5625 1.109375 -0.875q0.734375 -0.328125 1.71875 -0.328125q1.453125 0 2.3125 0.734375q0.875 0.71875 0.953125 1.953125l-1.953125 0q-0.046875 -0.484375 -0.40625 -0.765625q-0.359375 -0.296875 -0.96875 -0.296875q-0.546875 0 -0.859375 0.203125q-0.296875 0.203125 -0.296875 0.578125q0 0.40625 0.40625 0.625q0.421875 0.203125 1.28125 0.421875q0.875 0.21875 1.453125 0.453125q0.578125 0.234375 0.984375 0.734375q0.421875 0.484375 0.4375 1.296875q0 0.703125 -0.390625 1.265625q-0.390625 0.546875 -1.125 0.859375q-0.71875 0.3125 -1.671875 0.3125zm12.425186 -4.359375q0 0.4375 -0.0625 0.796875l-5.9375 0q0.078125 0.875 0.609375 1.375q0.546875 0.5 1.34375 0.5q1.140625 0 1.625 -0.984375l2.21875 0q-0.359375 1.171875 -1.359375 1.921875q-0.984375 0.75 -2.4375 0.75q-1.171875 0 -2.109375 -0.515625q-0.921875 -0.515625 -1.453125 -1.46875q-0.515625 -0.953125 -0.515625 -2.203125q0 -1.25 0.515625 -2.203125q0.515625 -0.953125 1.4375 -1.46875q0.921875 -0.515625 2.125 -0.515625q1.15625 0 2.0625 0.5q0.921875 0.5 1.421875 1.421875q0.515625 0.90625 0.515625 2.09375zm-2.125 -0.59375q-0.015625 -0.78125 -0.578125 -1.25q-0.546875 -0.484375 -1.359375 -0.484375q-0.765625 0 -1.28125 0.46875q-0.515625 0.453125 -0.640625 1.265625l3.859375 0zm5.667938 -2.03125q0.390625 -0.640625 1.03125 -1.0q0.640625 -0.375 1.46875 -0.375l0 2.15625l-0.546875 0q-0.96875 0 -1.46875 0.453125q-0.484375 0.453125 -0.484375 1.578125l0 4.046875l-2.046875 0l0 -8.125l2.046875 0l0 1.265625zm7.2492676 4.96875l2.0625 -6.234375l2.171875 0l-3.0 8.125l-2.484375 0l-3.0 -8.125l2.203125 0l2.046875 6.234375zm6.435379 -7.203125q-0.53125 0 -0.890625 -0.34375q-0.359375 -0.34375 -0.359375 -0.84375q0 -0.515625 0.359375 -0.859375q0.359375 -0.34375 0.890625 -0.34375q0.546875 0 0.90625 0.34375q0.359375 0.34375 0.359375 0.859375q0 0.5 -0.359375 0.84375q-0.359375 0.34375 -0.90625 0.34375zm1.015625 0.96875l0 8.125l-2.046875 0l0 -8.125l2.046875 0zm1.4963226 4.0625q0 -1.25 0.515625 -2.1875q0.515625 -0.953125 1.421875 -1.46875q0.90625 -0.53125 2.078125 -0.53125q1.515625 0 2.5 0.765625q0.984375 0.75 1.328125 2.109375l-2.21875 0q-0.171875 -0.53125 -0.59375 -0.828125q-0.421875 -0.296875 -1.03125 -0.296875q-0.875 0 -1.390625 0.640625q-0.515625 0.625 -0.515625 1.796875q0 1.15625 0.515625 1.796875q0.515625 0.640625 1.390625 0.640625q1.25 0 1.625 -1.109375l2.21875 0q-0.34375 1.3125 -1.34375 2.09375q-0.984375 0.765625 -2.484375 0.765625q-1.171875 0 -2.078125 -0.515625q-0.90625 -0.515625 -1.421875 -1.453125q-0.515625 -0.953125 -0.515625 -2.21875zm16.901215 -0.171875q0 0.4375 -0.0625 0.796875l-5.9375 0q0.078125 0.875 0.609375 1.375q0.546875 0.5 1.34375 0.5q1.140625 0 1.625 -0.984375l2.21875 0q-0.359375 1.171875 -1.359375 1.921875q-0.984375 0.75 -2.4375 0.75q-1.171875 0 -2.109375 -0.515625q-0.921875 -0.515625 -1.453125 -1.46875q-0.515625 -0.953125 -0.515625 -2.203125q0 -1.25 0.515625 -2.203125q0.515625 -0.953125 1.4375 -1.46875q0.921875 -0.515625 2.125 -0.515625q1.15625 0 2.0625 0.5q0.921875 0.5 1.421875 1.421875q0.515625 0.90625 0.515625 2.09375zm-2.125 -0.59375q-0.015625 -0.78125 -0.578125 -1.25q-0.546875 -0.484375 -1.359375 -0.484375q-0.765625 0 -1.28125 0.46875q-0.515625 0.453125 -0.640625 1.265625l3.859375 0z" fill-rule="nonzero"/></g><path fill="#000000" fill-opacity="0.0" d="m174.31807 321.8667l0 0c0 -3.200653 2.580536 -5.795288 5.763794 -5.795288l0 0c1.5286407 0 2.9946747 0.6105652 4.0756073 1.6973877c1.0809174 1.0868225 1.6881714 2.5608826 1.6881714 4.0979004l0 0c0 3.2006226 -2.580536 5.7952576 -5.7637787 5.7952576l0 0c-3.183258 0 -5.763794 -2.594635 -5.763794 -5.7952576z" fill-rule="evenodd"/><path stroke="#000000" stroke-width="1.0" stroke-linejoin="round" stroke-linecap="butt" d="m174.31807 321.8667l0 0c0 -3.200653 2.580536 -5.795288 5.763794 -5.795288l0 0c1.5286407 0 2.9946747 0.6105652 4.0756073 1.6973877c1.0809174 1.0868225 1.6881714 2.5608826 1.6881714 4.0979004l0 0c0 3.2006226 -2.580536 5.7952576 -5.7637787 5.7952576l0 0c-3.183258 0 -5.763794 -2.594635 -5.763794 -5.7952576z" fill-rule="evenodd"/><path fill="#000000" fill-opacity="0.0" d="m174.31807 336.33466l0 0c0 -3.200653 2.580536 -5.795288 5.763794 -5.795288l0 0c1.5286407 0 2.9946747 0.6105957 4.0756073 1.6974182c1.0809174 1.0868225 1.6881714 2.560852 1.6881714 4.09787l0 0c0 3.200653 -2.580536 5.795288 -5.7637787 5.795288l0 0c-3.183258 0 -5.763794 -2.594635 -5.763794 -5.795288z" fill-rule="evenodd"/><path stroke="#000000" stroke-width="1.0" stroke-linejoin="round" stroke-linecap="butt" d="m174.31807 336.33466l0 0c0 -3.200653 2.580536 -5.795288 5.763794 -5.795288l0 0c1.5286407 0 2.9946747 0.6105957 4.0756073 1.6974182c1.0809174 1.0868225 1.6881714 2.560852 1.6881714 4.09787l0 0c0 3.200653 -2.580536 5.795288 -5.7637787 5.795288l0 0c-3.183258 0 -5.763794 -2.594635 -5.763794 -5.795288z" fill-rule="evenodd"/><path fill="#000000" fill-opacity="0.0" d="m174.31807 351.94482l0 0c0 -3.200653 2.580536 -5.795288 5.763794 -5.795288l0 0c1.5286407 0 2.9946747 0.6105652 4.0756073 1.6973877c1.0809174 1.086853 1.6881714 2.5608826 1.6881714 4.0979004l0 0c0 3.2006226 -2.580536 5.7952576 -5.7637787 5.7952576l0 0c-3.183258 0 -5.763794 -2.594635 -5.763794 -5.7952576z" fill-rule="evenodd"/><path stroke="#000000" stroke-width="1.0" stroke-linejoin="round" stroke-linecap="butt" d="m174.31807 351.94482l0 0c0 -3.200653 2.580536 -5.795288 5.763794 -5.795288l0 0c1.5286407 0 2.9946747 0.6105652 4.0756073 1.6973877c1.0809174 1.086853 1.6881714 2.5608826 1.6881714 4.0979004l0 0c0 3.2006226 -2.580536 5.7952576 -5.7637787 5.7952576l0 0c-3.183258 0 -5.763794 -2.594635 -5.763794 -5.7952576z" fill-rule="evenodd"/><path fill="#000000" fill-opacity="0.0" d="m180.64403 300.56592l-0.1889801 15.055115" fill-rule="evenodd"/><path stroke="#000000" stroke-width="2.0" stroke-linejoin="round" stroke-linecap="butt" d="m180.64403 300.56592l-0.1889801 15.055115" fill-rule="evenodd"/><path fill="#000000" fill-opacity="0.0" d="m180.08186 357.74008l-0.22047424 29.858276" fill-rule="evenodd"/><path stroke="#000000" stroke-width="2.0" stroke-linejoin="round" stroke-linecap="butt" d="m180.08186 357.74008l-0.13188171 17.858582" fill-rule="evenodd"/><path fill="#000000" stroke="#000000" stroke-width="2.0" stroke-linecap="butt" d="m176.64662 375.57428l3.2363586 9.100342l3.3703766 -9.051544z" fill-rule="evenodd"/><g filter="url(#shadowFilter-p.3)"><use xlink:href="#p.3" transform="matrix(1.0 0.0 0.0 1.0 0.0 2.0)"/></g><defs><filter id="shadowFilter-p.3" filterUnits="userSpaceOnUse"><feGaussianBlur in="SourceAlpha" stdDeviation="4.0" result="blur"/><feComponentTransfer in="blur" color-interpolation-filters="sRGB"><feFuncR type="linear" slope="0" intercept="0.0"/><feFuncG type="linear" slope="0" intercept="0.0"/><feFuncB type="linear" slope="0" intercept="0.0"/><feFuncA type="linear" slope="0.2" intercept="0"/></feComponentTransfer></filter></defs><g id="p.3"><path fill="#b6d7a8" d="m441.1387 35.15649l0 0c0 -9.164341 7.4291687 -16.593508 16.593536 -16.593508l189.26965 0c4.400879 0 8.621521 1.7482395 11.733398 4.8601246c3.1118774 3.111887 4.8601074 7.33251 4.8601074 11.733383l0 66.37204c0 9.164345 -7.429138 16.593513 -16.593506 16.593513l-189.26965 0c-9.164368 0 -16.593536 -7.4291687 -16.593536 -16.593513z" fill-rule="evenodd"/><path stroke="#000000" stroke-width="2.0" stroke-linejoin="round" stroke-linecap="butt" d="m441.1387 35.15649l0 0c0 -9.164341 7.4291687 -16.593508 16.593536 -16.593508l189.26965 0c4.400879 0 8.621521 1.7482395 11.733398 4.8601246c3.1118774 3.111887 4.8601074 7.33251 4.8601074 11.733383l0 66.37204c0 9.164345 -7.429138 16.593513 -16.593506 16.593513l-189.26965 0c-9.164368 0 -16.593536 -7.4291687 -16.593536 -16.593513z" fill-rule="evenodd"/><path fill="#000000" d="m498.9552 63.188137l0 1.6562538l-2.71875 0l0 8.578125l-2.0625 0l0 -8.578125l-2.71875 0l0 -1.6562538l7.5 0zm3.5504456 3.3750038q0.390625 -0.640625 1.03125 -1.0q0.640625 -0.375 1.46875 -0.375l0 2.15625l-0.546875 0q-0.96875 0 -1.46875 0.453125q-0.484375 0.453125 -0.484375 1.578125l0 4.046875l-2.046875 0l0 -8.125l2.046875 0l0 1.265625zm3.3430176 2.765625q0 -1.21875 0.484375 -2.171875q0.5 -0.953125 1.34375 -1.46875q0.84375 -0.515625 1.875 -0.515625q0.90625 0 1.59375 0.375q0.6875 0.359375 1.0937805 0.90625l0 -1.15625l2.0625 0l0 8.125l-2.0625 0l0 -1.1875q-0.39065552 0.578125 -1.0937805 0.953125q-0.703125 0.359375 -1.609375 0.359375q-1.015625 0 -1.859375 -0.515625q-0.84375 -0.53125 -1.34375 -1.484375q-0.484375 -0.96875 -0.484375 -2.21875zm6.3906555 0.03125q0 -0.75 -0.29690552 -1.28125q-0.296875 -0.53125 -0.796875 -0.8125q-0.484375 -0.296875 -1.0625 -0.296875q-0.578125 0 -1.0625 0.28125q-0.46875 0.28125 -0.78125 0.8125q-0.296875 0.53125 -0.296875 1.265625q0 0.734375 0.296875 1.296875q0.3125 0.546875 0.796875 0.84375q0.484375 0.28125 1.046875 0.28125q0.578125 0 1.0625 -0.28125q0.5 -0.296875 0.796875 -0.828125q0.29690552 -0.53125 0.29690552 -1.28125zm6.4682007 -2.375l0 3.9375q0 0.40625 0.1875 0.59375q0.203125 0.171875 0.671875 0.171875l0.953125 0l0 1.734375l-1.296875 0q-2.59375 0 -2.59375 -2.515625l0 -3.921875l-0.96875 0l0 -1.6875l0.96875 0l0 -2.0000038l2.078125 0l0 2.0000038l1.8125 0l0 1.6875l-1.8125 0zm5.6866455 0l0 3.9375q0 0.40625 0.1875 0.59375q0.203125 0.171875 0.671875 0.171875l0.953125 0l0 1.734375l-1.296875 0q-2.59375 0 -2.59375 -2.515625l0 -3.921875l-0.96875 0l0 -1.6875l0.96875 0l0 -2.0000038l2.078125 0l0 2.0000038l1.8125 0l0 1.6875l-1.8125 0zm10.8428955 2.203125q0 0.4375 -0.0625 0.796875l-5.9375 0q0.078125 0.875 0.609375 1.375q0.546875 0.5 1.34375 0.5q1.140625 0 1.625 -0.984375l2.21875 0q-0.359375 1.171875 -1.359375 1.921875q-0.984375 0.75 -2.4375 0.75q-1.171875 0 -2.109375 -0.515625q-0.921875 -0.515625 -1.453125 -1.46875q-0.515625 -0.953125 -0.515625 -2.203125q0 -1.25 0.515625 -2.203125q0.515625 -0.953125 1.4375 -1.46875q0.921875 -0.515625 2.125 -0.515625q1.15625 0 2.0625 0.5q0.921875 0.5 1.421875 1.421875q0.515625 0.90625 0.515625 2.09375zm-2.125 -0.59375q-0.015625 -0.78125 -0.578125 -1.25q-0.546875 -0.484375 -1.359375 -0.484375q-0.765625 0 -1.28125 0.46875q-0.515625 0.453125 -0.640625 1.265625l3.859375 0zm5.6679688 -2.03125q0.390625 -0.640625 1.03125 -1.0q0.640625 -0.375 1.46875 -0.375l0 2.15625l-0.546875 0q-0.96875 0 -1.46875 0.453125q-0.484375 0.453125 -0.484375 1.578125l0 4.046875l-2.046875 0l0 -8.125l2.046875 0l0 1.265625zm4.9055176 -2.234375q-0.53125 0 -0.890625 -0.3437538q-0.359375 -0.34375 -0.359375 -0.84375q0 -0.515625 0.359375 -0.859375q0.359375 -0.34375 0.890625 -0.34375q0.546875 0 0.90625 0.34375q0.359375 0.34375 0.359375 0.859375q0 0.5 -0.359375 0.84375q-0.359375 0.3437538 -0.90625 0.3437538zm1.015625 0.96875l0 8.125l-2.046875 0l0 -8.125l2.046875 0zm1.4962769 4.03125q0 -1.21875 0.484375 -2.171875q0.5 -0.953125 1.34375 -1.46875q0.84375 -0.515625 1.875 -0.515625q0.90625 0 1.59375 0.375q0.6875 0.359375 1.09375 0.90625l0 -1.15625l2.0625 0l0 8.125l-2.0625 0l0 -1.1875q-0.390625 0.578125 -1.09375 0.953125q-0.703125 0.359375 -1.609375 0.359375q-1.015625 0 -1.859375 -0.515625q-0.84375 -0.53125 -1.34375 -1.484375q-0.484375 -0.96875 -0.484375 -2.21875zm6.390625 0.03125q0 -0.75 -0.296875 -1.28125q-0.296875 -0.53125 -0.796875 -0.8125q-0.484375 -0.296875 -1.0625 -0.296875q-0.578125 0 -1.0625 0.28125q-0.46875 0.28125 -0.78125 0.8125q-0.296875 0.53125 -0.296875 1.265625q0 0.734375 0.296875 1.296875q0.3125 0.546875 0.796875 0.84375q0.484375 0.28125 1.046875 0.28125q0.578125 0 1.0625 -0.28125q0.5 -0.296875 0.796875 -0.828125q0.296875 -0.53125 0.296875 -1.28125zm11.097107 4.171875q-1.078125 0 -1.9375 -0.359375q-0.84375 -0.375 -1.34375 -1.0625q-0.5 -0.703125 -0.515625 -1.640625l2.203125 0q0.03125 0.640625 0.4375 1.015625q0.40625 0.359375 1.109375 0.359375q0.71875 0 1.125 -0.34375q0.40625 -0.34375 0.40625 -0.90625q0 -0.453125 -0.28125 -0.75q-0.265625 -0.296875 -0.6875 -0.453125q-0.421875 -0.171875 -1.15625 -0.375q-0.984375 -0.296875 -1.609375 -0.578125q-0.625 -0.296875 -1.078125 -0.875q-0.4375 -0.578125 -0.4375 -1.546875q0 -0.90625 0.453125 -1.578125q0.453125 -0.6718788 1.265625 -1.0312538q0.828125 -0.359375 1.875 -0.359375q1.59375 0 2.578125 0.765625q0.984375 0.7656288 1.09375 2.1562538l-2.25 0q-0.03125 -0.53125 -0.453125 -0.875q-0.421875 -0.34375 -1.109375 -0.34375q-0.59375 0 -0.953125 0.3125q-0.359375 0.296875 -0.359375 0.890625q0 0.40625 0.265625 0.6875q0.265625 0.265625 0.671875 0.4375q0.40625 0.15625 1.140625 0.375q1.0 0.296875 1.625 0.59375q0.625 0.296875 1.078125 0.890625q0.453125 0.578125 0.453125 1.53125q0 0.8125 -0.421875 1.515625q-0.421875 0.703125 -1.25 1.125q-0.8125 0.421875 -1.9375 0.421875zm12.941284 -4.34375q0 0.4375 -0.0625 0.796875l-5.9375 0q0.078125 0.875 0.609375 1.375q0.546875 0.5 1.34375 0.5q1.140625 0 1.625 -0.984375l2.21875 0q-0.359375 1.171875 -1.359375 1.921875q-0.984375 0.75 -2.4375 0.75q-1.171875 0 -2.109375 -0.515625q-0.921875 -0.515625 -1.453125 -1.46875q-0.515625 -0.953125 -0.515625 -2.203125q0 -1.25 0.515625 -2.203125q0.515625 -0.953125 1.4375 -1.46875q0.921875 -0.515625 2.125 -0.515625q1.15625 0 2.0625 0.5q0.921875 0.5 1.421875 1.421875q0.515625 0.90625 0.515625 2.09375zm-2.125 -0.59375q-0.015625 -0.78125 -0.578125 -1.25q-0.546875 -0.484375 -1.359375 -0.484375q-0.765625 0 -1.28125 0.46875q-0.515625 0.453125 -0.640625 1.265625l3.859375 0zm5.6679688 -2.03125q0.390625 -0.640625 1.03125 -1.0q0.640625 -0.375 1.46875 -0.375l0 2.15625l-0.546875 0q-0.96875 0 -1.46875 0.453125q-0.484375 0.453125 -0.484375 1.578125l0 4.046875l-2.046875 0l0 -8.125l2.046875 0l0 1.265625zm7.2492676 4.96875l2.0625 -6.234375l2.171875 0l-3.0 8.125l-2.484375 0l-3.0 -8.125l2.203125 0l2.046875 6.234375zm6.435364 -7.203125q-0.53125 0 -0.890625 -0.3437538q-0.359375 -0.34375 -0.359375 -0.84375q0 -0.515625 0.359375 -0.859375q0.359375 -0.34375 0.890625 -0.34375q0.546875 0 0.90625 0.34375q0.359375 0.34375 0.359375 0.859375q0 0.5 -0.359375 0.84375q-0.359375 0.3437538 -0.90625 0.3437538zm1.015625 0.96875l0 8.125l-2.046875 0l0 -8.125l2.046875 0zm1.4963379 4.0625q0 -1.25 0.515625 -2.1875q0.515625 -0.953125 1.421875 -1.46875q0.90625 -0.53125 2.078125 -0.53125q1.515625 0 2.5 0.765625q0.984375 0.75 1.328125 2.109375l-2.21875 0q-0.171875 -0.53125 -0.59375 -0.828125q-0.421875 -0.296875 -1.03125 -0.296875q-0.875 0 -1.390625 0.640625q-0.515625 0.625 -0.515625 1.796875q0 1.15625 0.515625 1.796875q0.515625 0.640625 1.390625 0.640625q1.25 0 1.625 -1.109375l2.21875 0q-0.34375 1.3125 -1.34375 2.09375q-0.984375 0.765625 -2.484375 0.765625q-1.171875 0 -2.078125 -0.515625q-0.90625 -0.515625 -1.421875 -1.453125q-0.515625 -0.953125 -0.515625 -2.21875zm16.901184 -0.171875q0 0.4375 -0.0625 0.796875l-5.9375 0q0.078125 0.875 0.609375 1.375q0.546875 0.5 1.34375 0.5q1.140625 0 1.625 -0.984375l2.21875 0q-0.359375 1.171875 -1.359375 1.921875q-0.984375 0.75 -2.4375 0.75q-1.171875 0 -2.109375 -0.515625q-0.921875 -0.515625 -1.453125 -1.46875q-0.515625 -0.953125 -0.515625 -2.203125q0 -1.25 0.515625 -2.203125q0.515625 -0.953125 1.4375 -1.46875q0.921875 -0.515625 2.125 -0.515625q1.15625 0 2.0625 0.5q0.921875 0.5 1.421875 1.421875q0.515625 0.90625 0.515625 2.09375zm-2.125 -0.59375q-0.015625 -0.78125 -0.578125 -1.25q-0.546875 -0.484375 -1.359375 -0.484375q-0.765625 0 -1.28125 0.46875q-0.515625 0.453125 -0.640625 1.265625l3.859375 0z" fill-rule="nonzero"/></g><path fill="#000000" fill-opacity="0.0" d="m285.14194 48.647346l157.32281 -0.56692886" fill-rule="evenodd"/><path stroke="#000000" stroke-width="2.0" stroke-linejoin="round" stroke-linecap="butt" d="m285.1419 48.647346l145.32294 -0.52368927" fill-rule="evenodd"/><path fill="#000000" stroke="#000000" stroke-width="2.0" stroke-linecap="butt" d="m430.47675 51.4271l9.0642395 -3.3361473l-9.088043 -3.2707367z" fill-rule="evenodd"/><path fill="#000000" fill-opacity="0.0" d="m287.04916 90.117744l155.40158 1.196846" fill-rule="evenodd"/><path stroke="#000000" stroke-width="2.0" stroke-linejoin="round" stroke-linecap="butt" d="m299.04883 90.21016l143.40192 1.1044312" fill-rule="evenodd"/><path fill="#000000" stroke="#000000" stroke-width="2.0" stroke-linecap="butt" d="m299.07425 86.90679l-9.101349 3.233467l9.050476 3.3732681z" fill-rule="evenodd"/><g filter="url(#shadowFilter-p.4)"><use xlink:href="#p.4" transform="matrix(1.0 0.0 0.0 1.0 0.0 2.0)"/></g><defs><filter id="shadowFilter-p.4" filterUnits="userSpaceOnUse"><feGaussianBlur in="SourceAlpha" stdDeviation="4.0" result="blur"/><feComponentTransfer in="blur" color-interpolation-filters="sRGB"><feFuncR type="linear" slope="0" intercept="0.0"/><feFuncG type="linear" slope="0" intercept="0.0"/><feFuncB type="linear" slope="0" intercept="0.0"/><feFuncA type="linear" slope="0.2" intercept="0"/></feComponentTransfer></filter></defs><g id="p.4"><path fill="#b6d7a8" d="m118.63317 181.29282l0 0c0 -4.2444153 3.4407806 -7.685196 7.685196 -7.685196l120.251656 0c2.0382385 0 3.9929962 0.8096924 5.43425 2.250946c1.4412537 1.4412537 2.250946 3.3960114 2.250946 5.43425l0 30.739853c0 4.2444153 -3.4407806 7.685196 -7.685196 7.685196l-120.251656 0c-4.2444153 0 -7.685196 -3.4407806 -7.685196 -7.685196z" fill-rule="evenodd"/><path stroke="#000000" stroke-width="2.0" stroke-linejoin="round" stroke-linecap="butt" d="m118.63317 181.29282l0 0c0 -4.2444153 3.4407806 -7.685196 7.685196 -7.685196l120.251656 0c2.0382385 0 3.9929962 0.8096924 5.43425 2.250946c1.4412537 1.4412537 2.250946 3.3960114 2.250946 5.43425l0 30.739853c0 4.2444153 -3.4407806 7.685196 -7.685196 7.685196l-120.251656 0c-4.2444153 0 -7.685196 -3.4407806 -7.685196 -7.685196z" fill-rule="evenodd"/><path fill="#000000" d="m137.91289 191.50836l0 1.65625l-2.71875 0l0 8.578125l-2.0625 0l0 -8.578125l-2.71875 0l0 -1.65625l7.5 0zm3.5504456 3.375q0.390625 -0.640625 1.03125 -1.0q0.640625 -0.375 1.46875 -0.375l0 2.15625l-0.546875 0q-0.96875 0 -1.46875 0.453125q-0.484375 0.453125 -0.484375 1.578125l0 4.046875l-2.046875 0l0 -8.125l2.046875 0l0 1.265625zm3.3430176 2.765625q0 -1.21875 0.484375 -2.171875q0.5 -0.953125 1.34375 -1.46875q0.84375 -0.515625 1.875 -0.515625q0.90625 0 1.59375 0.375q0.6875 0.359375 1.09375 0.90625l0 -1.15625l2.0625 0l0 8.125l-2.0625 0l0 -1.1875q-0.390625 0.578125 -1.09375 0.953125q-0.703125 0.359375 -1.609375 0.359375q-1.015625 0 -1.859375 -0.515625q-0.84375 -0.53125 -1.34375 -1.484375q-0.484375 -0.96875 -0.484375 -2.21875zm6.390625 0.03125q0 -0.75 -0.296875 -1.28125q-0.296875 -0.53125 -0.796875 -0.8125q-0.484375 -0.296875 -1.0625 -0.296875q-0.578125 0 -1.0625 0.28125q-0.46875 0.28125 -0.78125 0.8125q-0.296875 0.53125 -0.296875 1.265625q0 0.734375 0.296875 1.296875q0.3125 0.546875 0.796875 0.84375q0.484375 0.28125 1.046875 0.28125q0.578125 0 1.0625 -0.28125q0.5 -0.296875 0.796875 -0.828125q0.296875 -0.53125 0.296875 -1.28125zm6.468231 -2.375l0 3.9375q0 0.40625 0.1875 0.59375q0.203125 0.171875 0.671875 0.171875l0.953125 0l0 1.734375l-1.296875 0q-2.59375 0 -2.59375 -2.515625l0 -3.921875l-0.96875 0l0 -1.6875l0.96875 0l0 -2.0l2.078125 0l0 2.0l1.8125 0l0 1.6875l-1.8125 0zm5.6866455 0l0 3.9375q0 0.40625 0.1875 0.59375q0.203125 0.171875 0.671875 0.171875l0.953125 0l0 1.734375l-1.296875 0q-2.59375 0 -2.59375 -2.515625l0 -3.921875l-0.96875 0l0 -1.6875l0.96875 0l0 -2.0l2.078125 0l0 2.0l1.8125 0l0 1.6875l-1.8125 0zm10.8428955 2.203125q0 0.4375 -0.0625 0.796875l-5.9375 0q0.078125 0.875 0.609375 1.375q0.546875 0.5 1.34375 0.5q1.140625 0 1.625 -0.984375l2.21875 0q-0.359375 1.171875 -1.359375 1.921875q-0.984375 0.75 -2.4375 0.75q-1.171875 0 -2.109375 -0.515625q-0.921875 -0.515625 -1.453125 -1.46875q-0.515625 -0.953125 -0.515625 -2.203125q0 -1.25 0.515625 -2.203125q0.515625 -0.953125 1.4375 -1.46875q0.921875 -0.515625 2.125 -0.515625q1.15625 0 2.0625 0.5q0.921875 0.5 1.421875 1.421875q0.515625 0.90625 0.515625 2.09375zm-2.125 -0.59375q-0.015625 -0.78125 -0.578125 -1.25q-0.546875 -0.484375 -1.359375 -0.484375q-0.765625 0 -1.28125 0.46875q-0.515625 0.453125 -0.640625 1.265625l3.859375 0zm5.667938 -2.03125q0.390625 -0.640625 1.03125 -1.0q0.640625 -0.375 1.46875 -0.375l0 2.15625l-0.546875 0q-0.96875 0 -1.46875 0.453125q-0.484375 0.453125 -0.484375 1.578125l0 4.046875l-2.046875 0l0 -8.125l2.046875 0l0 1.265625zm4.9055176 -2.234375q-0.53125 0 -0.890625 -0.34375q-0.359375 -0.34375 -0.359375 -0.84375q0 -0.515625 0.359375 -0.859375q0.359375 -0.34375 0.890625 -0.34375q0.546875 0 0.90625 0.34375q0.359375 0.34375 0.359375 0.859375q0 0.5 -0.359375 0.84375q-0.359375 0.34375 -0.90625 0.34375zm1.015625 0.96875l0 8.125l-2.046875 0l0 -8.125l2.046875 0zm1.4963226 4.03125q0 -1.21875 0.484375 -2.171875q0.5 -0.953125 1.34375 -1.46875q0.84375 -0.515625 1.875 -0.515625q0.90625 0 1.59375 0.375q0.6875 0.359375 1.09375 0.90625l0 -1.15625l2.0625 0l0 8.125l-2.0625 0l0 -1.1875q-0.390625 0.578125 -1.09375 0.953125q-0.703125 0.359375 -1.609375 0.359375q-1.015625 0 -1.859375 -0.515625q-0.84375 -0.53125 -1.34375 -1.484375q-0.484375 -0.96875 -0.484375 -2.21875zm6.390625 0.03125q0 -0.75 -0.296875 -1.28125q-0.296875 -0.53125 -0.796875 -0.8125q-0.484375 -0.296875 -1.0625 -0.296875q-0.578125 0 -1.0625 0.28125q-0.46875 0.28125 -0.78125 0.8125q-0.296875 0.53125 -0.296875 1.265625q0 0.734375 0.296875 1.296875q0.3125 0.546875 0.796875 0.84375q0.484375 0.28125 1.046875 0.28125q0.578125 0 1.0625 -0.28125q0.5 -0.296875 0.796875 -0.828125q0.296875 -0.53125 0.296875 -1.28125zm13.831436 2.109375l-4.078125 0l-0.671875 1.953125l-2.15625 0l3.6875 -10.25l2.390625 0l3.671875 10.25l-2.171875 0l-0.671875 -1.953125zm-0.546875 -1.640625l-1.484375 -4.28125l-1.484375 4.28125l2.96875 0zm7.9470367 -4.65625q0.90625 0 1.59375 0.359375q0.703125 0.359375 1.09375 0.921875l0 -1.15625l2.0625 0l0 8.1875q0 1.125 -0.453125 2.0q-0.453125 0.890625 -1.359375 1.40625q-0.90625 0.53125 -2.203125 0.53125q-1.734375 0 -2.84375 -0.8125q-1.09375 -0.796875 -1.25 -2.1875l2.046875 0q0.15625 0.546875 0.6875 0.875q0.546875 0.34375 1.296875 0.34375q0.90625 0 1.453125 -0.546875q0.5625 -0.53125 0.5625 -1.609375l0 -1.265625q-0.390625 0.578125 -1.09375 0.953125q-0.703125 0.375 -1.59375 0.375q-1.015625 0 -1.875 -0.515625q-0.84375 -0.53125 -1.34375 -1.484375q-0.484375 -0.96875 -0.484375 -2.21875q0 -1.21875 0.484375 -2.171875q0.5 -0.953125 1.34375 -1.46875q0.84375 -0.515625 1.875 -0.515625zm2.6875 4.1875q0 -0.75 -0.296875 -1.28125q-0.296875 -0.53125 -0.796875 -0.8125q-0.484375 -0.296875 -1.0625 -0.296875q-0.578125 0 -1.0625 0.28125q-0.46875 0.28125 -0.78125 0.8125q-0.296875 0.53125 -0.296875 1.265625q0 0.734375 0.296875 1.296875q0.3125 0.546875 0.796875 0.84375q0.484375 0.28125 1.046875 0.28125q0.578125 0 1.0625 -0.28125q0.5 -0.296875 0.796875 -0.828125q0.296875 -0.53125 0.296875 -1.28125zm11.624481 -0.171875q0 0.4375 -0.0625 0.796875l-5.9375 0q0.078125 0.875 0.609375 1.375q0.546875 0.5 1.34375 0.5q1.140625 0 1.625 -0.984375l2.21875 0q-0.359375 1.171875 -1.359375 1.921875q-0.984375 0.75 -2.4375 0.75q-1.171875 0 -2.109375 -0.515625q-0.921875 -0.515625 -1.453125 -1.46875q-0.515625 -0.953125 -0.515625 -2.203125q0 -1.25 0.515625 -2.203125q0.515625 -0.953125 1.4375 -1.46875q0.921875 -0.515625 2.125 -0.515625q1.15625 0 2.0625 0.5q0.921875 0.5 1.421875 1.421875q0.515625 0.90625 0.515625 2.09375zm-2.125 -0.59375q-0.015625 -0.78125 -0.578125 -1.25q-0.546875 -0.484375 -1.359375 -0.484375q-0.765625 0 -1.28125 0.46875q-0.515625 0.453125 -0.640625 1.265625l3.859375 0zm8.121063 -3.40625q1.453125 0 2.34375 0.921875q0.890625 0.90625 0.890625 2.546875l0 4.765625l-2.046875 0l0 -4.484375q0 -0.96875 -0.484375 -1.484375q-0.484375 -0.53125 -1.328125 -0.53125q-0.84375 0 -1.34375 0.53125q-0.484375 0.515625 -0.484375 1.484375l0 4.484375l-2.046875 0l0 -8.125l2.046875 0l0 1.015625q0.40625 -0.53125 1.046875 -0.828125q0.640625 -0.296875 1.40625 -0.296875zm7.5784454 1.796875l0 3.9375q0 0.40625 0.1875 0.59375q0.203125 0.171875 0.671875 0.171875l0.953125 0l0 1.734375l-1.296875 0q-2.59375 0 -2.59375 -2.515625l0 -3.921875l-0.96875 0l0 -1.6875l0.96875 0l0 -2.0l2.078125 0l0 2.0l1.8125 0l0 1.6875l-1.8125 0z" fill-rule="nonzero"/></g><g filter="url(#shadowFilter-p.5)"><use xlink:href="#p.5" transform="matrix(1.0 0.0 0.0 1.0 0.0 2.0)"/></g><defs><filter id="shadowFilter-p.5" filterUnits="userSpaceOnUse"><feGaussianBlur in="SourceAlpha" stdDeviation="4.0" result="blur"/><feComponentTransfer in="blur" color-interpolation-filters="sRGB"><feFuncR type="linear" slope="0" intercept="0.0"/><feFuncG type="linear" slope="0" intercept="0.0"/><feFuncB type="linear" slope="0" intercept="0.0"/><feFuncA type="linear" slope="0.2" intercept="0"/></feComponentTransfer></filter></defs><g id="p.5"><path fill="#ffffff" d="m123.24986 241.72202l0 0c0 -5.928833 4.8062744 -10.735123 10.735123 -10.735123l109.26991 0c2.8471375 0 5.577652 1.1310272 7.5908813 3.1442566c2.0132294 2.013214 3.1442413 4.743744 3.1442413 7.590866l0 42.93921c0 5.928833 -4.8062744 10.735107 -10.735123 10.735107l-109.26991 0c-5.9288483 0 -10.735123 -4.8062744 -10.735123 -10.735107z" fill-rule="evenodd"/><path stroke="#000000" stroke-width="2.0" stroke-linejoin="round" stroke-linecap="butt" d="m123.24986 241.72202l0 0c0 -5.928833 4.8062744 -10.735123 10.735123 -10.735123l109.26991 0c2.8471375 0 5.577652 1.1310272 7.5908813 3.1442566c2.0132294 2.013214 3.1442413 4.743744 3.1442413 7.590866l0 42.93921c0 5.928833 -4.8062744 10.735107 -10.735123 10.735107l-109.26991 0c-5.9288483 0 -10.735123 -4.8062744 -10.735123 -10.735107z" fill-rule="evenodd"/><path fill="#000000" d="m162.62633 249.03725l0 10.23439l-2.046875 0l0 -10.23439l2.046875 0zm6.5275726 2.0q1.453125 0 2.34375 0.921875q0.890625 0.90625 0.890625 2.546875l0 4.7656403l-2.046875 0l0 -4.4843903q0 -0.96875 -0.484375 -1.484375q-0.484375 -0.53125 -1.328125 -0.53125q-0.84375 0 -1.34375 0.53125q-0.484375 0.515625 -0.484375 1.484375l0 4.4843903l-2.046875 0l0 -8.125015l2.046875 0l0 1.015625q0.40625 -0.53125 1.046875 -0.828125q0.640625 -0.296875 1.40625 -0.296875zm7.5784454 1.796875l0 3.9375153q0 0.40625 0.1875 0.59375q0.203125 0.171875 0.671875 0.171875l0.953125 0l0 1.734375l-1.296875 0q-2.59375 0 -2.59375 -2.515625l0 -3.9218903l-0.96875 0l0 -1.6875l0.96875 0l0 -2.0l2.078125 0l0 2.0l1.8125 0l0 1.6875l-1.8125 0zm10.8428955 2.203125q0 0.4375 -0.0625 0.796875l-5.9375 0q0.078125 0.87501526 0.609375 1.3750153q0.546875 0.5 1.34375 0.5q1.140625 0 1.625 -0.984375l2.21875 0q-0.359375 1.171875 -1.359375 1.921875q-0.984375 0.75 -2.4375 0.75q-1.171875 0 -2.109375 -0.515625q-0.921875 -0.515625 -1.453125 -1.46875q-0.515625 -0.953125 -0.515625 -2.2031403q0 -1.25 0.515625 -2.203125q0.515625 -0.953125 1.4375 -1.46875q0.921875 -0.515625 2.125 -0.515625q1.15625 0 2.0625 0.5q0.921875 0.5 1.421875 1.421875q0.515625 0.90625 0.515625 2.09375zm-2.125 -0.59375q-0.015625 -0.78125 -0.578125 -1.25q-0.546875 -0.484375 -1.359375 -0.484375q-0.765625 0 -1.28125 0.46875q-0.515625 0.453125 -0.640625 1.265625l3.859375 0zm5.667938 -2.03125q0.390625 -0.640625 1.03125 -1.0q0.640625 -0.375 1.46875 -0.375l0 2.15625l-0.546875 0q-0.96875 0 -1.46875 0.453125q-0.484375 0.453125 -0.484375 1.578125l0 4.0468903l-2.046875 0l0 -8.125015l2.046875 0l0 1.265625zm8.374268 -1.375q1.453125 0 2.34375 0.921875q0.890625 0.90625 0.890625 2.546875l0 4.7656403l-2.046875 0l0 -4.4843903q0 -0.96875 -0.484375 -1.484375q-0.484375 -0.53125 -1.328125 -0.53125q-0.84375 0 -1.34375 0.53125q-0.484375 0.515625 -0.484375 1.484375l0 4.4843903l-2.046875 0l0 -8.125015l2.046875 0l0 1.015625q0.40625 -0.53125 1.046875 -0.828125q0.640625 -0.296875 1.40625 -0.296875zm4.6565704 4.140625q0 -1.21875 0.484375 -2.171875q0.5 -0.953125 1.34375 -1.46875q0.84375 -0.515625 1.875 -0.515625q0.90625 0 1.59375 0.375q0.6875 0.359375 1.09375 0.90625l0 -1.15625l2.0625 0l0 8.125015l-2.0625 0l0 -1.1875q-0.390625 0.578125 -1.09375 0.953125q-0.703125 0.359375 -1.609375 0.359375q-1.015625 0 -1.859375 -0.515625q-0.84375 -0.53125 -1.34375 -1.484375q-0.484375 -0.96875 -0.484375 -2.2187653zm6.390625 0.03125q0 -0.75 -0.296875 -1.28125q-0.296875 -0.53125 -0.796875 -0.8125q-0.484375 -0.296875 -1.0625 -0.296875q-0.578125 0 -1.0625 0.28125q-0.46875 0.28125 -0.78125 0.8125q-0.296875 0.53125 -0.296875 1.265625q0 0.734375 0.296875 1.2968903q0.3125 0.546875 0.796875 0.84375q0.484375 0.28125 1.046875 0.28125q0.578125 0 1.0625 -0.28125q0.5 -0.296875 0.796875 -0.828125q0.296875 -0.53126526 0.296875 -1.2812653zm6.124481 -6.78125l0 10.843765l-2.046875 0l0 -10.843765l2.046875 0z" fill-rule="nonzero"/><path fill="#000000" d="m165.65952 269.14664l0 8.125l-2.078125 0l0 -1.25q-0.375 0.65625 -1.03125 1.015625q-0.65625 0.34375 -1.5 0.34375q-0.640625 0 -1.09375 -0.28125l0 4.046875l-2.046875 0l0 -12.0l2.046875 0l0 4.46875q0 0.953125 0.484375 1.46875q0.5 0.515625 1.328125 0.515625q0.84375 0 1.328125 -0.515625q0.484375 -0.515625 0.484375 -1.46875l0 -4.46875l2.078125 0zm5.218231 8.25q-1.0 0 -1.796875 -0.359375q-0.796875 -0.359375 -1.265625 -0.96875q-0.453125 -0.609375 -0.484375 -1.359375l2.0625 0q0.0625 0.46875 0.453125 0.78125q0.40625 0.296875 1.015625 0.296875q0.578125 0 0.90625 -0.234375q0.328125 -0.234375 0.328125 -0.59375q0 -0.40625 -0.40625 -0.59375q-0.390625 -0.203125 -1.265625 -0.4375q-0.921875 -0.21875 -1.5 -0.453125q-0.578125 -0.234375 -1.0 -0.71875q-0.40625 -0.484375 -0.40625 -1.296875q0 -0.6875 0.375 -1.234375q0.390625 -0.5625 1.109375 -0.875q0.734375 -0.328125 1.71875 -0.328125q1.453125 0 2.3125 0.734375q0.875 0.71875 0.953125 1.953125l-1.953125 0q-0.046875 -0.484375 -0.40625 -0.765625q-0.359375 -0.296875 -0.96875 -0.296875q-0.546875 0 -0.859375 0.203125q-0.296875 0.203125 -0.296875 0.578125q0 0.40625 0.40625 0.625q0.421875 0.203125 1.28125 0.421875q0.875 0.21875 1.453125 0.453125q0.578125 0.234375 0.984375 0.734375q0.421875 0.484375 0.4375 1.296875q0 0.703125 -0.390625 1.265625q-0.390625 0.546875 -1.125 0.859375q-0.71875 0.3125 -1.671875 0.3125zm12.425186 -4.359375q0 0.4375 -0.0625 0.796875l-5.9375 0q0.078125 0.875 0.609375 1.375q0.546875 0.5 1.34375 0.5q1.140625 0 1.625 -0.984375l2.21875 0q-0.359375 1.171875 -1.359375 1.921875q-0.984375 0.75 -2.4375 0.75q-1.171875 0 -2.109375 -0.515625q-0.921875 -0.515625 -1.453125 -1.46875q-0.515625 -0.953125 -0.515625 -2.203125q0 -1.25 0.515625 -2.203125q0.515625 -0.953125 1.4375 -1.46875q0.921875 -0.515625 2.125 -0.515625q1.15625 0 2.0625 0.5q0.921875 0.5 1.421875 1.421875q0.515625 0.90625 0.515625 2.09375zm-2.125 -0.59375q-0.015625 -0.78125 -0.578125 -1.25q-0.546875 -0.484375 -1.359375 -0.484375q-0.765625 0 -1.28125 0.46875q-0.515625 0.453125 -0.640625 1.265625l3.859375 0zm5.667938 -2.03125q0.390625 -0.640625 1.03125 -1.0q0.640625 -0.375 1.46875 -0.375l0 2.15625l-0.546875 0q-0.96875 0 -1.46875 0.453125q-0.484375 0.453125 -0.484375 1.578125l0 4.046875l-2.046875 0l0 -8.125l2.046875 0l0 1.265625zm7.2492676 4.96875l2.0625 -6.234375l2.171875 0l-3.0 8.125l-2.484375 0l-3.0 -8.125l2.203125 0l2.046875 6.234375zm6.435379 -7.203125q-0.53125 0 -0.890625 -0.34375q-0.359375 -0.34375 -0.359375 -0.84375q0 -0.515625 0.359375 -0.859375q0.359375 -0.34375 0.890625 -0.34375q0.546875 0 0.90625 0.34375q0.359375 0.34375 0.359375 0.859375q0 0.5 -0.359375 0.84375q-0.359375 0.34375 -0.90625 0.34375zm1.015625 0.96875l0 8.125l-2.046875 0l0 -8.125l2.046875 0zm1.4963226 4.0625q0 -1.25 0.515625 -2.1875q0.515625 -0.953125 1.421875 -1.46875q0.90625 -0.53125 2.078125 -0.53125q1.515625 0 2.5 0.765625q0.984375 0.75 1.328125 2.109375l-2.21875 0q-0.171875 -0.53125 -0.59375 -0.828125q-0.421875 -0.296875 -1.03125 -0.296875q-0.875 0 -1.390625 0.640625q-0.515625 0.625 -0.515625 1.796875q0 1.15625 0.515625 1.796875q0.515625 0.640625 1.390625 0.640625q1.25 0 1.625 -1.109375l2.21875 0q-0.34375 1.3125 -1.34375 2.09375q-0.984375 0.765625 -2.484375 0.765625q-1.171875 0 -2.078125 -0.515625q-0.90625 -0.515625 -1.421875 -1.453125q-0.515625 -0.953125 -0.515625 -2.21875zm16.901215 -0.171875q0 0.4375 -0.0625 0.796875l-5.9375 0q0.078125 0.875 0.609375 1.375q0.546875 0.5 1.34375 0.5q1.140625 0 1.625 -0.984375l2.21875 0q-0.359375 1.171875 -1.359375 1.921875q-0.984375 0.75 -2.4375 0.75q-1.171875 0 -2.109375 -0.515625q-0.921875 -0.515625 -1.453125 -1.46875q-0.515625 -0.953125 -0.515625 -2.203125q0 -1.25 0.515625 -2.203125q0.515625 -0.953125 1.4375 -1.46875q0.921875 -0.515625 2.125 -0.515625q1.15625 0 2.0625 0.5q0.921875 0.5 1.421875 1.421875q0.515625 0.90625 0.515625 2.09375zm-2.125 -0.59375q-0.015625 -0.78125 -0.578125 -1.25q-0.546875 -0.484375 -1.359375 -0.484375q-0.765625 0 -1.28125 0.46875q-0.515625 0.453125 -0.640625 1.265625l3.859375 0z" fill-rule="nonzero"/></g><g filter="url(#shadowFilter-p.6)"><use xlink:href="#p.6" transform="matrix(1.0 0.0 0.0 1.0 0.0 2.0)"/></g><defs><filter id="shadowFilter-p.6" filterUnits="userSpaceOnUse"><feGaussianBlur in="SourceAlpha" stdDeviation="4.0" result="blur"/><feComponentTransfer in="blur" color-interpolation-filters="sRGB"><feFuncR type="linear" slope="0" intercept="0.0"/><feFuncG type="linear" slope="0" intercept="0.0"/><feFuncB type="linear" slope="0" intercept="0.0"/><feFuncA type="linear" slope="0.2" intercept="0"/></feComponentTransfer></filter></defs><g id="p.6"><path fill="#ffffff" d="m77.644554 409.02368l0 0c0 -12.417206 10.066162 -22.483368 22.48339 -22.483368l177.48991 0c5.9629517 0 11.681702 2.3687744 15.898163 6.5852356c4.216461 4.2164307 6.5852356 9.935181 6.5852356 15.898132l0 89.93088c0 12.417236 -10.066162 22.483368 -22.483398 22.483368l-177.48991 0c-12.417229 0 -22.48339 -10.066132 -22.48339 -22.483368z" fill-rule="evenodd"/><path stroke="#000000" stroke-width="2.0" stroke-linejoin="round" stroke-linecap="butt" d="m77.644554 409.02368l0 0c0 -12.417206 10.066162 -22.483368 22.48339 -22.483368l177.48991 0c5.9629517 0 11.681702 2.3687744 15.898163 6.5852356c4.216461 4.2164307 6.5852356 9.935181 6.5852356 15.898132l0 89.93088c0 12.417236 -10.066162 22.483368 -22.483398 22.483368l-177.48991 0c-12.417229 0 -22.48339 -10.066132 -22.48339 -22.483368z" fill-rule="evenodd"/></g><g filter="url(#shadowFilter-p.7)"><use xlink:href="#p.7" transform="matrix(1.0 0.0 0.0 1.0 0.0 2.0)"/></g><defs><filter id="shadowFilter-p.7" filterUnits="userSpaceOnUse"><feGaussianBlur in="SourceAlpha" stdDeviation="4.0" result="blur"/><feComponentTransfer in="blur" color-interpolation-filters="sRGB"><feFuncR type="linear" slope="0" intercept="0.0"/><feFuncG type="linear" slope="0" intercept="0.0"/><feFuncB type="linear" slope="0" intercept="0.0"/><feFuncA type="linear" slope="0.2" intercept="0"/></feComponentTransfer></filter></defs><g id="p.7"><path fill="#b6d7a8" d="m118.63317 402.16873l0 0c0 -4.2444153 3.4407806 -7.6851807 7.685196 -7.6851807l120.251656 0c2.0382385 0 3.9929962 0.80966187 5.43425 2.2509155c1.4412537 1.4412537 2.250946 3.3960266 2.250946 5.434265l0 30.739838c0 4.2444153 -3.4407806 7.685211 -7.685196 7.685211l-120.251656 0c-4.2444153 0 -7.685196 -3.440796 -7.685196 -7.685211z" fill-rule="evenodd"/><path stroke="#000000" stroke-width="2.0" stroke-linejoin="round" stroke-linecap="butt" d="m118.63317 402.16873l0 0c0 -4.2444153 3.4407806 -7.6851807 7.685196 -7.6851807l120.251656 0c2.0382385 0 3.9929962 0.80966187 5.43425 2.2509155c1.4412537 1.4412537 2.250946 3.3960266 2.250946 5.434265l0 30.739838c0 4.2444153 -3.4407806 7.685211 -7.685196 7.685211l-120.251656 0c-4.2444153 0 -7.685196 -3.440796 -7.685196 -7.685211z" fill-rule="evenodd"/><path fill="#000000" d="m137.91289 412.38428l0 1.65625l-2.71875 0l0 8.578125l-2.0625 0l0 -8.578125l-2.71875 0l0 -1.65625l7.5 0zm3.5504456 3.375q0.390625 -0.640625 1.03125 -1.0q0.640625 -0.375 1.46875 -0.375l0 2.15625l-0.546875 0q-0.96875 0 -1.46875 0.453125q-0.484375 0.453125 -0.484375 1.578125l0 4.046875l-2.046875 0l0 -8.125l2.046875 0l0 1.265625zm3.3430176 2.765625q0 -1.21875 0.484375 -2.171875q0.5 -0.953125 1.34375 -1.46875q0.84375 -0.515625 1.875 -0.515625q0.90625 0 1.59375 0.375q0.6875 0.359375 1.09375 0.90625l0 -1.15625l2.0625 0l0 8.125l-2.0625 0l0 -1.1875q-0.390625 0.578125 -1.09375 0.953125q-0.703125 0.359375 -1.609375 0.359375q-1.015625 0 -1.859375 -0.515625q-0.84375 -0.53125 -1.34375 -1.484375q-0.484375 -0.96875 -0.484375 -2.21875zm6.390625 0.03125q0 -0.75 -0.296875 -1.28125q-0.296875 -0.53125 -0.796875 -0.8125q-0.484375 -0.296875 -1.0625 -0.296875q-0.578125 0 -1.0625 0.28125q-0.46875 0.28125 -0.78125 0.8125q-0.296875 0.53125 -0.296875 1.265625q0 0.734375 0.296875 1.296875q0.3125 0.546875 0.796875 0.84375q0.484375 0.28125 1.046875 0.28125q0.578125 0 1.0625 -0.28125q0.5 -0.296875 0.796875 -0.828125q0.296875 -0.53125 0.296875 -1.28125zm6.468231 -2.375l0 3.9375q0 0.40625 0.1875 0.59375q0.203125 0.171875 0.671875 0.171875l0.953125 0l0 1.734375l-1.296875 0q-2.59375 0 -2.59375 -2.515625l0 -3.921875l-0.96875 0l0 -1.6875l0.96875 0l0 -2.0l2.078125 0l0 2.0l1.8125 0l0 1.6875l-1.8125 0zm5.6866455 0l0 3.9375q0 0.40625 0.1875 0.59375q0.203125 0.171875 0.671875 0.171875l0.953125 0l0 1.734375l-1.296875 0q-2.59375 0 -2.59375 -2.515625l0 -3.921875l-0.96875 0l0 -1.6875l0.96875 0l0 -2.0l2.078125 0l0 2.0l1.8125 0l0 1.6875l-1.8125 0zm10.8428955 2.203125q0 0.4375 -0.0625 0.796875l-5.9375 0q0.078125 0.875 0.609375 1.375q0.546875 0.5 1.34375 0.5q1.140625 0 1.625 -0.984375l2.21875 0q-0.359375 1.171875 -1.359375 1.921875q-0.984375 0.75 -2.4375 0.75q-1.171875 0 -2.109375 -0.515625q-0.921875 -0.515625 -1.453125 -1.46875q-0.515625 -0.953125 -0.515625 -2.203125q0 -1.25 0.515625 -2.203125q0.515625 -0.953125 1.4375 -1.46875q0.921875 -0.515625 2.125 -0.515625q1.15625 0 2.0625 0.5q0.921875 0.5 1.421875 1.421875q0.515625 0.90625 0.515625 2.09375zm-2.125 -0.59375q-0.015625 -0.78125 -0.578125 -1.25q-0.546875 -0.484375 -1.359375 -0.484375q-0.765625 0 -1.28125 0.46875q-0.515625 0.453125 -0.640625 1.265625l3.859375 0zm5.667938 -2.03125q0.390625 -0.640625 1.03125 -1.0q0.640625 -0.375 1.46875 -0.375l0 2.15625l-0.546875 0q-0.96875 0 -1.46875 0.453125q-0.484375 0.453125 -0.484375 1.578125l0 4.046875l-2.046875 0l0 -8.125l2.046875 0l0 1.265625zm4.9055176 -2.234375q-0.53125 0 -0.890625 -0.34375q-0.359375 -0.34375 -0.359375 -0.84375q0 -0.515625 0.359375 -0.859375q0.359375 -0.34375 0.890625 -0.34375q0.546875 0 0.90625 0.34375q0.359375 0.34375 0.359375 0.859375q0 0.5 -0.359375 0.84375q-0.359375 0.34375 -0.90625 0.34375zm1.015625 0.96875l0 8.125l-2.046875 0l0 -8.125l2.046875 0zm1.4963226 4.03125q0 -1.21875 0.484375 -2.171875q0.5 -0.953125 1.34375 -1.46875q0.84375 -0.515625 1.875 -0.515625q0.90625 0 1.59375 0.375q0.6875 0.359375 1.09375 0.90625l0 -1.15625l2.0625 0l0 8.125l-2.0625 0l0 -1.1875q-0.390625 0.578125 -1.09375 0.953125q-0.703125 0.359375 -1.609375 0.359375q-1.015625 0 -1.859375 -0.515625q-0.84375 -0.53125 -1.34375 -1.484375q-0.484375 -0.96875 -0.484375 -2.21875zm6.390625 0.03125q0 -0.75 -0.296875 -1.28125q-0.296875 -0.53125 -0.796875 -0.8125q-0.484375 -0.296875 -1.0625 -0.296875q-0.578125 0 -1.0625 0.28125q-0.46875 0.28125 -0.78125 0.8125q-0.296875 0.53125 -0.296875 1.265625q0 0.734375 0.296875 1.296875q0.3125 0.546875 0.796875 0.84375q0.484375 0.28125 1.046875 0.28125q0.578125 0 1.0625 -0.28125q0.5 -0.296875 0.796875 -0.828125q0.296875 -0.53125 0.296875 -1.28125zm13.831436 2.109375l-4.078125 0l-0.671875 1.953125l-2.15625 0l3.6875 -10.25l2.390625 0l3.671875 10.25l-2.171875 0l-0.671875 -1.953125zm-0.546875 -1.640625l-1.484375 -4.28125l-1.484375 4.28125l2.96875 0zm7.9470367 -4.65625q0.90625 0 1.59375 0.359375q0.703125 0.359375 1.09375 0.921875l0 -1.15625l2.0625 0l0 8.1875q0 1.125 -0.453125 2.0q-0.453125 0.890625 -1.359375 1.40625q-0.90625 0.53125 -2.203125 0.53125q-1.734375 0 -2.84375 -0.8125q-1.09375 -0.796875 -1.25 -2.1875l2.046875 0q0.15625 0.546875 0.6875 0.875q0.546875 0.34375 1.296875 0.34375q0.90625 0 1.453125 -0.546875q0.5625 -0.53125 0.5625 -1.609375l0 -1.265625q-0.390625 0.578125 -1.09375 0.953125q-0.703125 0.375 -1.59375 0.375q-1.015625 0 -1.875 -0.515625q-0.84375 -0.53125 -1.34375 -1.484375q-0.484375 -0.96875 -0.484375 -2.21875q0 -1.21875 0.484375 -2.171875q0.5 -0.953125 1.34375 -1.46875q0.84375 -0.515625 1.875 -0.515625zm2.6875 4.1875q0 -0.75 -0.296875 -1.28125q-0.296875 -0.53125 -0.796875 -0.8125q-0.484375 -0.296875 -1.0625 -0.296875q-0.578125 0 -1.0625 0.28125q-0.46875 0.28125 -0.78125 0.8125q-0.296875 0.53125 -0.296875 1.265625q0 0.734375 0.296875 1.296875q0.3125 0.546875 0.796875 0.84375q0.484375 0.28125 1.046875 0.28125q0.578125 0 1.0625 -0.28125q0.5 -0.296875 0.796875 -0.828125q0.296875 -0.53125 0.296875 -1.28125zm11.624481 -0.171875q0 0.4375 -0.0625 0.796875l-5.9375 0q0.078125 0.875 0.609375 1.375q0.546875 0.5 1.34375 0.5q1.140625 0 1.625 -0.984375l2.21875 0q-0.359375 1.171875 -1.359375 1.921875q-0.984375 0.75 -2.4375 0.75q-1.171875 0 -2.109375 -0.515625q-0.921875 -0.515625 -1.453125 -1.46875q-0.515625 -0.953125 -0.515625 -2.203125q0 -1.25 0.515625 -2.203125q0.515625 -0.953125 1.4375 -1.46875q0.921875 -0.515625 2.125 -0.515625q1.15625 0 2.0625 0.5q0.921875 0.5 1.421875 1.421875q0.515625 0.90625 0.515625 2.09375zm-2.125 -0.59375q-0.015625 -0.78125 -0.578125 -1.25q-0.546875 -0.484375 -1.359375 -0.484375q-0.765625 0 -1.28125 0.46875q-0.515625 0.453125 -0.640625 1.265625l3.859375 0zm8.121063 -3.40625q1.453125 0 2.34375 0.921875q0.890625 0.90625 0.890625 2.546875l0 4.765625l-2.046875 0l0 -4.484375q0 -0.96875 -0.484375 -1.484375q-0.484375 -0.53125 -1.328125 -0.53125q-0.84375 0 -1.34375 0.53125q-0.484375 0.515625 -0.484375 1.484375l0 4.484375l-2.046875 0l0 -8.125l2.046875 0l0 1.015625q0.40625 -0.53125 1.046875 -0.828125q0.640625 -0.296875 1.40625 -0.296875zm7.5784454 1.796875l0 3.9375q0 0.40625 0.1875 0.59375q0.203125 0.171875 0.671875 0.171875l0.953125 0l0 1.734375l-1.296875 0q-2.59375 0 -2.59375 -2.515625l0 -3.921875l-0.96875 0l0 -1.6875l0.96875 0l0 -2.0l2.078125 0l0 2.0l1.8125 0l0 1.6875l-1.8125 0z" fill-rule="nonzero"/></g><g filter="url(#shadowFilter-p.8)"><use xlink:href="#p.8" transform="matrix(1.0 0.0 0.0 1.0 0.0 2.0)"/></g><defs><filter id="shadowFilter-p.8" filterUnits="userSpaceOnUse"><feGaussianBlur in="SourceAlpha" stdDeviation="4.0" result="blur"/><feComponentTransfer in="blur" color-interpolation-filters="sRGB"><feFuncR type="linear" slope="0" intercept="0.0"/><feFuncG type="linear" slope="0" intercept="0.0"/><feFuncB type="linear" slope="0" intercept="0.0"/><feFuncA type="linear" slope="0.2" intercept="0"/></feComponentTransfer></filter></defs><g id="p.8"><path fill="#ffffff" d="m123.24986 462.59793l0 0c0 -5.928833 4.8062744 -10.735107 10.735123 -10.735107l109.26991 0c2.8471375 0 5.577652 1.131012 7.5908813 3.144226c2.0132294 2.0132446 3.1442413 4.743744 3.1442413 7.5908813l0 42.93921c0 5.928833 -4.8062744 10.735138 -10.735123 10.735138l-109.26991 0c-5.9288483 0 -10.735123 -4.806305 -10.735123 -10.735138z" fill-rule="evenodd"/><path stroke="#000000" stroke-width="2.0" stroke-linejoin="round" stroke-linecap="butt" d="m123.24986 462.59793l0 0c0 -5.928833 4.8062744 -10.735107 10.735123 -10.735107l109.26991 0c2.8471375 0 5.577652 1.131012 7.5908813 3.144226c2.0132294 2.0132446 3.1442413 4.743744 3.1442413 7.5908813l0 42.93921c0 5.928833 -4.8062744 10.735138 -10.735123 10.735138l-109.26991 0c-5.9288483 0 -10.735123 -4.806305 -10.735123 -10.735138z" fill-rule="evenodd"/><path fill="#000000" d="m162.62633 469.91318l0 10.234375l-2.046875 0l0 -10.234375l2.046875 0zm6.5275726 2.0q1.453125 0 2.34375 0.921875q0.890625 0.90625 0.890625 2.546875l0 4.765625l-2.046875 0l0 -4.484375q0 -0.96875 -0.484375 -1.484375q-0.484375 -0.53125 -1.328125 -0.53125q-0.84375 0 -1.34375 0.53125q-0.484375 0.515625 -0.484375 1.484375l0 4.484375l-2.046875 0l0 -8.125l2.046875 0l0 1.015625q0.40625 -0.53125 1.046875 -0.828125q0.640625 -0.296875 1.40625 -0.296875zm7.5784454 1.796875l0 3.9375q0 0.40625 0.1875 0.59375q0.203125 0.171875 0.671875 0.171875l0.953125 0l0 1.734375l-1.296875 0q-2.59375 0 -2.59375 -2.515625l0 -3.921875l-0.96875 0l0 -1.6875l0.96875 0l0 -2.0l2.078125 0l0 2.0l1.8125 0l0 1.6875l-1.8125 0zm10.8428955 2.203125q0 0.4375 -0.0625 0.796875l-5.9375 0q0.078125 0.875 0.609375 1.375q0.546875 0.5 1.34375 0.5q1.140625 0 1.625 -0.984375l2.21875 0q-0.359375 1.171875 -1.359375 1.921875q-0.984375 0.75 -2.4375 0.75q-1.171875 0 -2.109375 -0.515625q-0.921875 -0.515625 -1.453125 -1.46875q-0.515625 -0.953125 -0.515625 -2.203125q0 -1.25 0.515625 -2.203125q0.515625 -0.953125 1.4375 -1.46875q0.921875 -0.515625 2.125 -0.515625q1.15625 0 2.0625 0.5q0.921875 0.5 1.421875 1.421875q0.515625 0.90625 0.515625 2.09375zm-2.125 -0.59375q-0.015625 -0.78125 -0.578125 -1.25q-0.546875 -0.484375 -1.359375 -0.484375q-0.765625 0 -1.28125 0.46875q-0.515625 0.453125 -0.640625 1.265625l3.859375 0zm5.667938 -2.03125q0.390625 -0.640625 1.03125 -1.0q0.640625 -0.375 1.46875 -0.375l0 2.15625l-0.546875 0q-0.96875 0 -1.46875 0.453125q-0.484375 0.453125 -0.484375 1.578125l0 4.046875l-2.046875 0l0 -8.125l2.046875 0l0 1.265625zm8.374268 -1.375q1.453125 0 2.34375 0.921875q0.890625 0.90625 0.890625 2.546875l0 4.765625l-2.046875 0l0 -4.484375q0 -0.96875 -0.484375 -1.484375q-0.484375 -0.53125 -1.328125 -0.53125q-0.84375 0 -1.34375 0.53125q-0.484375 0.515625 -0.484375 1.484375l0 4.484375l-2.046875 0l0 -8.125l2.046875 0l0 1.015625q0.40625 -0.53125 1.046875 -0.828125q0.640625 -0.296875 1.40625 -0.296875zm4.6565704 4.140625q0 -1.21875 0.484375 -2.171875q0.5 -0.953125 1.34375 -1.46875q0.84375 -0.515625 1.875 -0.515625q0.90625 0 1.59375 0.375q0.6875 0.359375 1.09375 0.90625l0 -1.15625l2.0625 0l0 8.125l-2.0625 0l0 -1.1875q-0.390625 0.578125 -1.09375 0.953125q-0.703125 0.359375 -1.609375 0.359375q-1.015625 0 -1.859375 -0.515625q-0.84375 -0.53125 -1.34375 -1.484375q-0.484375 -0.96875 -0.484375 -2.21875zm6.390625 0.03125q0 -0.75 -0.296875 -1.28125q-0.296875 -0.53125 -0.796875 -0.8125q-0.484375 -0.296875 -1.0625 -0.296875q-0.578125 0 -1.0625 0.28125q-0.46875 0.28125 -0.78125 0.8125q-0.296875 0.53125 -0.296875 1.265625q0 0.734375 0.296875 1.296875q0.3125 0.546875 0.796875 0.84375q0.484375 0.28125 1.046875 0.28125q0.578125 0 1.0625 -0.28125q0.5 -0.296875 0.796875 -0.828125q0.296875 -0.53125 0.296875 -1.28125zm6.124481 -6.78125l0 10.84375l-2.046875 0l0 -10.84375l2.046875 0z" fill-rule="nonzero"/><path fill="#000000" d="m165.65952 490.02255l0 8.125l-2.078125 0l0 -1.25q-0.375 0.65625 -1.03125 1.015625q-0.65625 0.34375 -1.5 0.34375q-0.640625 0 -1.09375 -0.28125l0 4.046875l-2.046875 0l0 -12.0l2.046875 0l0 4.46875q0 0.953125 0.484375 1.46875q0.5 0.515625 1.328125 0.515625q0.84375 0 1.328125 -0.515625q0.484375 -0.515625 0.484375 -1.46875l0 -4.46875l2.078125 0zm5.218231 8.25q-1.0 0 -1.796875 -0.359375q-0.796875 -0.359375 -1.265625 -0.96875q-0.453125 -0.609375 -0.484375 -1.359375l2.0625 0q0.0625 0.46875 0.453125 0.78125q0.40625 0.296875 1.015625 0.296875q0.578125 0 0.90625 -0.234375q0.328125 -0.234375 0.328125 -0.59375q0 -0.40625 -0.40625 -0.59375q-0.390625 -0.203125 -1.265625 -0.4375q-0.921875 -0.21875 -1.5 -0.453125q-0.578125 -0.234375 -1.0 -0.71875q-0.40625 -0.484375 -0.40625 -1.296875q0 -0.6875 0.375 -1.234375q0.390625 -0.5625 1.109375 -0.875q0.734375 -0.328125 1.71875 -0.328125q1.453125 0 2.3125 0.734375q0.875 0.71875 0.953125 1.953125l-1.953125 0q-0.046875 -0.484375 -0.40625 -0.765625q-0.359375 -0.296875 -0.96875 -0.296875q-0.546875 0 -0.859375 0.203125q-0.296875 0.203125 -0.296875 0.578125q0 0.40625 0.40625 0.625q0.421875 0.203125 1.28125 0.421875q0.875 0.21875 1.453125 0.453125q0.578125 0.234375 0.984375 0.734375q0.421875 0.484375 0.4375 1.296875q0 0.703125 -0.390625 1.265625q-0.390625 0.546875 -1.125 0.859375q-0.71875 0.3125 -1.671875 0.3125zm12.425186 -4.359375q0 0.4375 -0.0625 0.796875l-5.9375 0q0.078125 0.875 0.609375 1.375q0.546875 0.5 1.34375 0.5q1.140625 0 1.625 -0.984375l2.21875 0q-0.359375 1.171875 -1.359375 1.921875q-0.984375 0.75 -2.4375 0.75q-1.171875 0 -2.109375 -0.515625q-0.921875 -0.515625 -1.453125 -1.46875q-0.515625 -0.953125 -0.515625 -2.203125q0 -1.25 0.515625 -2.203125q0.515625 -0.953125 1.4375 -1.46875q0.921875 -0.515625 2.125 -0.515625q1.15625 0 2.0625 0.5q0.921875 0.5 1.421875 1.421875q0.515625 0.90625 0.515625 2.09375zm-2.125 -0.59375q-0.015625 -0.78125 -0.578125 -1.25q-0.546875 -0.484375 -1.359375 -0.484375q-0.765625 0 -1.28125 0.46875q-0.515625 0.453125 -0.640625 1.265625l3.859375 0zm5.667938 -2.03125q0.390625 -0.640625 1.03125 -1.0q0.640625 -0.375 1.46875 -0.375l0 2.15625l-0.546875 0q-0.96875 0 -1.46875 0.453125q-0.484375 0.453125 -0.484375 1.578125l0 4.046875l-2.046875 0l0 -8.125l2.046875 0l0 1.265625zm7.2492676 4.96875l2.0625 -6.234375l2.171875 0l-3.0 8.125l-2.484375 0l-3.0 -8.125l2.203125 0l2.046875 6.234375zm6.435379 -7.203125q-0.53125 0 -0.890625 -0.34375q-0.359375 -0.34375 -0.359375 -0.84375q0 -0.515625 0.359375 -0.859375q0.359375 -0.34375 0.890625 -0.34375q0.546875 0 0.90625 0.34375q0.359375 0.34375 0.359375 0.859375q0 0.5 -0.359375 0.84375q-0.359375 0.34375 -0.90625 0.34375zm1.015625 0.96875l0 8.125l-2.046875 0l0 -8.125l2.046875 0zm1.4963226 4.0625q0 -1.25 0.515625 -2.1875q0.515625 -0.953125 1.421875 -1.46875q0.90625 -0.53125 2.078125 -0.53125q1.515625 0 2.5 0.765625q0.984375 0.75 1.328125 2.109375l-2.21875 0q-0.171875 -0.53125 -0.59375 -0.828125q-0.421875 -0.296875 -1.03125 -0.296875q-0.875 0 -1.390625 0.640625q-0.515625 0.625 -0.515625 1.796875q0 1.15625 0.515625 1.796875q0.515625 0.640625 1.390625 0.640625q1.25 0 1.625 -1.109375l2.21875 0q-0.34375 1.3125 -1.34375 2.09375q-0.984375 0.765625 -2.484375 0.765625q-1.171875 0 -2.078125 -0.515625q-0.90625 -0.515625 -1.421875 -1.453125q-0.515625 -0.953125 -0.515625 -2.21875zm16.901215 -0.171875q0 0.4375 -0.0625 0.796875l-5.9375 0q0.078125 0.875 0.609375 1.375q0.546875 0.5 1.34375 0.5q1.140625 0 1.625 -0.984375l2.21875 0q-0.359375 1.171875 -1.359375 1.921875q-0.984375 0.75 -2.4375 0.75q-1.171875 0 -2.109375 -0.515625q-0.921875 -0.515625 -1.453125 -1.46875q-0.515625 -0.953125 -0.515625 -2.203125q0 -1.25 0.515625 -2.203125q0.515625 -0.953125 1.4375 -1.46875q0.921875 -0.515625 2.125 -0.515625q1.15625 0 2.0625 0.5q0.921875 0.5 1.421875 1.421875q0.515625 0.90625 0.515625 2.09375zm-2.125 -0.59375q-0.015625 -0.78125 -0.578125 -1.25q-0.546875 -0.484375 -1.359375 -0.484375q-0.765625 0 -1.28125 0.46875q-0.515625 0.453125 -0.640625 1.265625l3.859375 0z" fill-rule="nonzero"/></g></g></svg>